sawarabi-gothic-medium.sfdir
StartChar: quotedbl
Encoding: 34 34 5
Width: 443
Flags: W
LayerCount: 2
Fore
SplineSet
100 493 m 1,0,-1
 90 734 l 1,1,-1
 178 734 l 1,2,-1
 167 493 l 1,3,-1
 100 493 l 1,0,-1
276 493 m 1,4,-1
 266 734 l 1,5,-1
 354 734 l 1,6,-1
 343 493 l 1,7,-1
 276 493 l 1,4,-1
EndSplineSet
EndChar
StartChar: numbersign
Encoding: 35 35 6
Width: 634
Flags: W
LayerCount: 2
Fore
SplineSet
144 188 m 1,0,-1
 30 188 l 1,1,-1
 30 260 l 1,2,-1
 161 260 l 1,3,-1
 199 420 l 1,4,-1
 84 420 l 1,5,-1
 84 492 l 1,6,-1
 216 492 l 1,7,-1
 259 671 l 1,8,-1
 341 671 l 1,9,-1
 298 492 l 1,10,-1
 409 492 l 1,11,-1
 452 671 l 1,12,-1
 534 671 l 1,13,-1
 491 492 l 1,14,-1
 605 492 l 1,15,-1
 605 420 l 1,16,-1
 474 420 l 1,17,-1
 436 260 l 1,18,-1
 551 260 l 1,19,-1
 551 188 l 1,20,-1
 419 188 l 1,21,-1
 374 0 l 1,22,-1
 292 0 l 1,23,-1
 337 188 l 1,24,-1
 226 188 l 1,25,-1
 181 0 l 1,26,-1
 99 0 l 1,27,-1
 144 188 l 1,0,-1
392 420 m 1,28,-1
 281 420 l 1,29,-1
 243 260 l 1,30,-1
 354 260 l 1,31,-1
 392 420 l 1,28,-1
EndSplineSet
EndChar
StartChar: dollar
Encoding: 36 36 7
Width: 500
Flags: W
LayerCount: 2
Fore
SplineSet
211 119 m 1,0,-1
 211 334 l 1,1,2
 43 388 43 388 43 503 c 1,3,4
 45 584 45 584 88 627 c 0,5,6
 130 669 130 669 211 683 c 1,7,-1
 211 781 l 1,8,-1
 284 781 l 1,9,-1
 284 685 l 1,10,11
 346 677 346 677 390 650 c 0,12,13
 437 621 437 621 455 590 c 1,14,-1
 391 550 l 1,15,16
 384 564 384 564 350 587 c 1,17,18
 314 610 314 610 284 616 c 1,19,-1
 284 400 l 1,20,21
 345 381 345 381 384 355 c 1,22,23
 456 312 456 312 456 232 c 128,-1,24
 456 152 456 152 408 103 c 0,25,26
 359 54 359 54 284 43 c 1,27,-1
 284 -35 l 1,28,-1
 211 -35 l 1,29,-1
 211 44 l 1,30,31
 96 57 96 57 40 124 c 1,32,-1
 99 184 l 1,33,34
 137 128 137 128 211 119 c 1,0,-1
211 434 m 1,35,-1
 211 613 l 1,36,37
 121 590 121 590 121 515 c 0,38,39
 121 465 121 465 176 446 c 2,40,-1
 211 434 l 1,35,-1
371 223 m 0,41,42
 371 282 371 282 313 301 c 2,43,-1
 284 311 l 1,44,-1
 284 123 l 1,45,46
 371 142 371 142 371 223 c 0,41,42
EndSplineSet
EndChar
StartChar: percent
Encoding: 37 37 8
Width: 715
Flags: W
LayerCount: 2
Fore
SplineSet
127 356 m 0,0,1
 56 400 56 400 56 523 c 0,2,3
 56 645 56 645 130 692 c 0,4,5
 158 710 158 710 193 710 c 0,6,7
 230 710 230 710 258 691 c 1,8,9
 333 644 333 644 333 522 c 128,-1,10
 333 400 333 400 259 356 c 0,11,12
 229 338 229 338 194 338 c 2,13,-1
 191 338 l 2,14,15
 156 338 156 338 127 356 c 0,0,1
195 406 m 1,16,17
 255 410 255 410 255 526 c 0,18,19
 255 641 255 641 192 641 c 1,20,21
 134 637 134 637 134 522 c 0,22,23
 134 406 134 406 195 406 c 1,16,17
676 615 m 1,24,-1
 143 68 l 1,25,-1
 40 68 l 1,26,-1
 574 615 l 1,27,-1
 676 615 l 1,24,-1
535 -15 m 2,28,-1
 528 -15 l 2,29,30
 492 -15 492 -15 464 3 c 0,31,32
 393 47 393 47 393 170 c 128,-1,33
 393 293 393 293 466 338 c 0,34,35
 495 355 495 355 527 355 c 2,36,-1
 535 355 l 2,37,38
 566 355 566 355 595 338 c 0,39,40
 670 292 670 292 670 169 c 0,41,42
 670 47 670 47 597 2 c 0,43,44
 568 -15 568 -15 535 -15 c 2,28,-1
552 280 m 0,45,46
 544 286 544 286 531 286 c 0,47,48
 517 286 517 286 508 280 c 0,49,50
 470 257 470 257 470 171 c 0,51,52
 470 84 470 84 508 58 c 0,53,54
 517 52 517 52 532 52 c 0,55,56
 592 56 592 56 592 165 c 0,57,58
 592 250 592 250 552 280 c 0,45,46
EndSplineSet
EndChar
StartChar: ampersand
Encoding: 38 38 9
Width: 680
Flags: W
LayerCount: 2
Fore
SplineSet
447 555 m 0,0,1
 447 466 447 466 326 387 c 1,2,3
 412 308 412 308 469 242 c 1,4,5
 493 277 493 277 507 402 c 1,6,-1
 594 402 l 1,7,8
 595 401 595 401 595 396 c 0,9,10
 595 289 595 289 532 184 c 1,11,-1
 609 74 l 2,12,13
 637 35 637 35 651 0 c 1,14,-1
 527 0 l 1,15,-1
 476 106 l 1,16,17
 390 -11 390 -11 282 -11 c 0,18,19
 171 -11 171 -11 107 47 c 1,20,21
 40 105 40 105 40 182 c 0,22,23
 40 299 40 299 206 405 c 1,24,25
 100 472 100 472 100 558 c 0,26,27
 100 714 100 714 274 714 c 0,28,29
 447 714 447 714 447 555 c 0,0,1
187 560 m 0,30,31
 187 502 187 502 274 436 c 1,32,33
 364 484 364 484 364 555 c 0,34,35
 364 647 364 647 279 647 c 0,36,37
 187 647 187 647 187 560 c 0,30,31
279 64 m 0,38,39
 343 64 343 64 424 160 c 1,40,41
 365 254 365 254 256 360 c 1,42,43
 138 275 138 275 138 189 c 128,-1,44
 138 103 138 103 223 70 c 1,45,46
 248 64 248 64 279 64 c 0,38,39
EndSplineSet
EndChar
StartChar: quotesingle
Encoding: 39 39 10
Width: 267
Flags: W
LayerCount: 2
Fore
SplineSet
96 493 m 1,0,-1
 80 734 l 1,1,-1
 188 734 l 1,2,-1
 171 493 l 1,3,-1
 96 493 l 1,0,-1
EndSplineSet
EndChar
StartChar: parenleft
Encoding: 40 40 11
Width: 378
Flags: W
LayerCount: 2
Fore
SplineSet
90 266 m 128,-1,1
 90 354 90 354 111 434 c 128,-1,2
 132 514 132 514 159 563 c 0,3,4
 188 617 188 617 226 660 c 1,5,6
 265 708 265 708 292 724 c 1,7,-1
 350 724 l 1,8,9
 189 557 189 557 189 274 c 0,10,11
 189 -8 189 -8 350 -193 c 1,12,-1
 292 -193 l 1,13,14
 266 -178 266 -178 226 -129 c 1,15,16
 188 -86 188 -86 159 -32 c 0,17,18
 132 19 132 19 111 98 c 0,19,0
 90 178 90 178 90 266 c 128,-1,1
EndSplineSet
Substitution2: "'rtla' Right to Left Alternates in CJK Ideographic lookup 0 subtable" parenright
EndChar
StartChar: parenright
Encoding: 41 41 12
Width: 378
Flags: W
LayerCount: 2
Fore
SplineSet
288 266 m 128,-1,1
 288 178 288 178 267 98 c 0,2,3
 246 19 246 19 219 -32 c 0,4,5
 194 -79 194 -79 153 -129 c 1,6,7
 110 -178 110 -178 86 -193 c 1,8,-1
 28 -193 l 1,9,10
 188 -10 188 -10 190 274 c 1,11,-1
 190 275 l 2,12,13
 190 558 190 558 28 724 c 1,14,-1
 86 724 l 1,15,16
 113 708 113 708 153 660 c 0,17,18
 194 610 194 610 219 563 c 0,19,20
 246 514 246 514 267 434 c 128,-1,0
 288 354 288 354 288 266 c 128,-1,1
EndSplineSet
Substitution2: "'rtla' Right to Left Alternates in CJK Ideographic lookup 0 subtable" parenleft
EndChar
StartChar: asterisk
Encoding: 42 42 13
Width: 450
Flags: W
LayerCount: 2
Fore
SplineSet
92 456 m 1,0,-1
 179 552 l 1,1,-1
 50 583 l 1,2,-1
 76 661 l 1,3,-1
 194 606 l 1,4,-1
 184 740 l 1,5,-1
 267 740 l 1,6,-1
 257 606 l 1,7,-1
 375 661 l 1,8,-1
 401 583 l 1,9,-1
 272 553 l 1,10,-1
 359 455 l 1,11,-1
 292 407 l 1,12,-1
 226 524 l 1,13,-1
 159 407 l 1,14,-1
 92 456 l 1,0,-1
EndSplineSet
EndChar
StartChar: plus
Encoding: 43 43 14
Width: 539
Flags: W
LayerCount: 2
Fore
SplineSet
50 245 m 1,0,-1
 50 327 l 1,1,-1
 229 327 l 1,2,-1
 229 507 l 1,3,-1
 311 507 l 1,4,-1
 311 327 l 1,5,-1
 490 327 l 1,6,-1
 490 245 l 1,7,-1
 311 245 l 1,8,-1
 311 66 l 1,9,-1
 229 66 l 1,10,-1
 229 245 l 1,11,-1
 50 245 l 1,0,-1
EndSplineSet
EndChar
StartChar: comma
Encoding: 44 44 15
Width: 331
Flags: W
LayerCount: 2
Fore
SplineSet
231 120 m 1,0,-1
 231 -3 l 2,1,2
 231 -100 231 -100 191 -170 c 1,3,-1
 121 -170 l 1,4,5
 161 -106 161 -106 161 -12 c 2,6,-1
 161 -3 l 1,7,-1
 109 -3 l 1,8,-1
 109 120 l 1,9,-1
 231 120 l 1,0,-1
EndSplineSet
EndChar
StartChar: hyphen
Encoding: 45 45 16
Width: 469
Flags: W
LayerCount: 2
Fore
SplineSet
60 245 m 1,0,-1
 60 327 l 1,1,-1
 410 327 l 1,2,-1
 410 245 l 1,3,-1
 60 245 l 1,0,-1
EndSplineSet
EndChar
StartChar: period
Encoding: 46 46 17
Width: 312
Flags: W
LayerCount: 2
Fore
SplineSet
213 120 m 1,0,-1
 213 -3 l 1,1,-1
 100 -3 l 1,2,-1
 100 120 l 1,3,-1
 213 120 l 1,0,-1
EndSplineSet
EndChar
StartChar: slash
Encoding: 47 47 18
Width: 540
Flags: W
LayerCount: 2
Fore
SplineSet
30 -120 m 1,0,-1
 425 800 l 1,1,-1
 510 800 l 1,2,-1
 115 -120 l 1,3,-1
 30 -120 l 1,0,-1
EndSplineSet
EndChar
StartChar: zero
Encoding: 48 48 19
Width: 550
Flags: W
LayerCount: 2
Fore
SplineSet
93 109 m 0,0,1
 55 215 55 215 55 349 c 0,2,3
 55 489 55 489 95 596 c 1,4,5
 140 720 140 720 274 720 c 2,6,-1
 275 720 l 2,7,8
 359 720 359 720 395 687 c 1,9,10
 431 651 431 651 453 597 c 0,11,12
 495 491 495 491 495 352 c 2,13,-1
 495 351 l 2,14,15
 495 216 495 216 455 109 c 0,16,17
 435 54 435 54 398 20 c 0,18,19
 361 -15 361 -15 275 -15 c 2,20,-1
 274 -15 l 2,21,22
 211 -15 211 -15 161 20 c 0,23,24
 113 53 113 53 93 109 c 0,0,1
180 562 m 0,25,26
 145 480 145 480 145 350 c 0,27,28
 145 153 145 153 216 82 c 0,29,30
 232 66 232 66 275 66 c 128,-1,31
 318 66 318 66 334 84 c 1,32,33
 405 152 405 152 405 351 c 0,34,35
 405 479 405 479 381 560 c 1,36,37
 355 640 355 640 276 640 c 0,38,39
 214 640 214 640 180 562 c 0,25,26
EndSplineSet
EndChar
StartChar: one
Encoding: 49 49 20
Width: 550
Flags: W
LayerCount: 2
Fore
SplineSet
258 -3 m 1,0,-1
 258 573 l 1,1,2
 202 495 202 495 127 495 c 2,3,-1
 102 495 l 1,4,-1
 102 568 l 1,5,6
 146 573 146 573 182 589 c 1,7,8
 232 613 232 613 251 725 c 1,9,-1
 344 725 l 1,10,-1
 344 -3 l 1,11,-1
 258 -3 l 1,0,-1
EndSplineSet
EndChar
StartChar: two
Encoding: 50 50 21
Width: 550
Flags: W
LayerCount: 2
Fore
SplineSet
280 637 m 0,0,1
 162 637 162 637 124 478 c 1,2,-1
 64 518 l 1,3,4
 116 720 116 720 262 720 c 2,5,-1
 280 720 l 2,6,7
 413 720 413 720 466 613 c 0,8,9
 485 576 485 576 485 538 c 0,10,11
 485 419 485 419 406 359 c 0,12,13
 180 186 180 186 163 86 c 1,14,-1
 490 86 l 1,15,-1
 490 0 l 1,16,-1
 66 0 l 1,17,-1
 66 82 l 1,18,19
 99 232 99 232 287 366 c 1,20,21
 397 443 397 443 397 531 c 0,22,23
 397 587 397 587 363 612 c 128,-1,24
 329 637 329 637 280 637 c 0,0,1
EndSplineSet
EndChar
StartChar: three
Encoding: 51 51 22
Width: 550
Flags: W
LayerCount: 2
Fore
SplineSet
356 544 m 0,0,1
 356 641 356 641 226 641 c 0,2,3
 150 641 150 641 122 586 c 1,4,-1
 56 610 l 1,5,6
 98 720 98 720 234 720 c 0,7,8
 439 720 439 720 443 542 c 1,9,10
 443 456 443 456 347 397 c 1,11,12
 480 346 480 346 480 210 c 0,13,14
 480 105 480 105 412 49 c 1,15,16
 341 -7 341 -7 246 -7 c 0,17,18
 62 -7 62 -7 35 144 c 1,19,-1
 102 161 l 1,20,21
 108 75 108 75 242 75 c 0,22,23
 311 75 311 75 352 113 c 1,24,25
 390 151 390 151 390 216 c 0,26,27
 390 333 390 333 213 345 c 2,28,-1
 155 349 l 1,29,-1
 155 424 l 1,30,-1
 211 429 l 2,31,32
 356 442 356 442 356 544 c 0,0,1
EndSplineSet
EndChar
StartChar: four
Encoding: 52 52 23
Width: 550
Flags: W
LayerCount: 2
Fore
SplineSet
320 162 m 1,0,-1
 25 162 l 1,1,-1
 303 725 l 1,2,-1
 408 725 l 1,3,-1
 408 250 l 1,4,-1
 490 250 l 1,5,-1
 490 162 l 1,6,-1
 408 162 l 1,7,-1
 408 -3 l 1,8,-1
 320 -3 l 1,9,-1
 320 162 l 1,0,-1
156 250 m 1,10,-1
 320 250 l 1,11,-1
 320 610 l 1,12,-1
 156 250 l 1,10,-1
EndSplineSet
EndChar
StartChar: five
Encoding: 53 53 24
Width: 550
Flags: W
LayerCount: 2
Fore
SplineSet
247 72 m 1,0,1
 406 72 406 72 406 231 c 128,-1,2
 406 390 406 390 231 390 c 1,3,4
 170 389 170 389 100 373 c 1,5,-1
 113 728 l 1,6,-1
 458 728 l 1,7,-1
 458 650 l 1,8,-1
 193 650 l 1,9,-1
 186 458 l 1,10,11
 236 463 236 463 265 463 c 0,12,13
 494 463 494 463 494 228 c 0,14,15
 494 115 494 115 438 53 c 0,16,17
 381 -10 381 -10 266 -10 c 0,18,19
 102 -10 102 -10 61 112 c 1,20,-1
 123 150 l 1,21,22
 145 74 145 74 247 72 c 1,0,1
EndSplineSet
EndChar
StartChar: six
Encoding: 54 54 25
Width: 550
Flags: W
LayerCount: 2
Fore
SplineSet
265 719 m 2,0,-1
 280 719 l 2,1,2
 368 719 368 719 428 659 c 0,3,4
 469 618 469 618 483 560 c 1,5,-1
 401 530 l 1,6,7
 393 572 393 572 362 603 c 128,-1,8
 331 634 331 634 280 634 c 2,9,-1
 265 634 l 2,10,11
 209 634 209 634 175 585 c 1,12,13
 139 536 139 536 139 469 c 2,14,-1
 139 388 l 1,15,16
 156 417 156 417 191 434 c 0,17,18
 223 450 223 450 265 450 c 2,19,-1
 280 450 l 2,20,21
 374 450 374 450 432 380 c 128,-1,22
 490 310 490 310 490 226 c 2,23,-1
 490 208 l 2,24,25
 490 117 490 117 428 49 c 0,26,27
 367 -17 367 -17 280 -17 c 2,28,-1
 265 -17 l 2,29,30
 176 -17 176 -17 115 50 c 0,31,32
 53 118 53 118 53 208 c 2,33,-1
 53 469 l 2,34,35
 53 583 53 583 114 650 c 0,36,37
 176 719 176 719 265 719 c 2,0,-1
265 69 m 2,38,-1
 280 69 l 2,39,40
 330 69 330 69 367 109 c 128,-1,41
 404 149 404 149 404 208 c 2,42,-1
 404 226 l 2,43,44
 404 279 404 279 370 322 c 0,45,46
 336 364 336 364 280 364 c 2,47,-1
 265 364 l 2,48,49
 211 364 211 364 175 320 c 128,-1,50
 139 276 139 276 139 226 c 2,51,-1
 139 208 l 2,52,53
 139 151 139 151 177 110 c 128,-1,54
 215 69 215 69 265 69 c 2,38,-1
EndSplineSet
EndChar
StartChar: seven
Encoding: 55 55 26
Width: 550
Flags: W
LayerCount: 2
Fore
SplineSet
279 -3 m 1,0,-1
 177 -3 l 1,1,2
 177 166 177 166 207 276 c 0,3,4
 237 387 237 387 311 496 c 2,5,-1
 410 641 l 1,6,-1
 62 641 l 1,7,-1
 62 724 l 1,8,-1
 488 724 l 1,9,-1
 488 632 l 1,10,-1
 365 449 l 1,11,12
 278 292 278 292 278 68 c 0,13,14
 278 13 278 13 279 -3 c 1,0,-1
EndSplineSet
EndChar
StartChar: eight
Encoding: 56 56 27
Width: 550
Flags: W
LayerCount: 2
Fore
SplineSet
282 -17 m 2,0,-1
 268 -17 l 2,1,2
 182 -17 182 -17 122 31 c 0,3,4
 48 90 48 90 48 202 c 0,5,6
 48 296 48 296 138 364 c 0,7,8
 146 370 146 370 156 376 c 1,9,-1
 152 380 l 1,10,11
 119 401 119 401 96 440 c 1,12,13
 72 478 72 478 72 522 c 2,14,-1
 72 532 l 2,15,16
 72 616 72 616 131 670 c 256,17,18
 190 724 190 724 272 724 c 2,19,-1
 288 724 l 2,20,21
 369 724 369 724 425 668 c 0,22,23
 480 613 480 613 480 532 c 2,24,-1
 480 522 l 2,25,26
 480 483 480 483 454 436 c 1,27,28
 428 392 428 392 404 380 c 2,29,-1
 396 376 l 1,30,-1
 412 364 l 1,31,32
 448 339 448 339 475 297 c 0,33,34
 502 254 502 254 502 202 c 0,35,36
 502 91 502 91 430 31 c 0,37,38
 372 -17 372 -17 282 -17 c 2,0,-1
288 638 m 2,39,-1
 272 638 l 2,40,41
 222 638 222 638 190 609 c 128,-1,42
 158 580 158 580 158 532 c 2,43,-1
 158 522 l 2,44,45
 158 470 158 470 192 442 c 0,46,47
 227 413 227 413 272 413 c 2,48,-1
 288 413 l 2,49,50
 330 413 330 413 361 447 c 1,51,52
 392 478 392 478 392 522 c 2,53,-1
 392 532 l 2,54,55
 392 578 392 578 362 608 c 128,-1,56
 332 638 332 638 288 638 c 2,39,-1
282 339 m 2,57,-1
 268 339 l 2,58,59
 219 339 219 339 178 304 c 1,60,61
 138 268 138 268 138 200 c 128,-1,62
 138 132 138 132 174 100 c 0,63,64
 208 69 208 69 268 69 c 2,65,-1
 282 69 l 2,66,67
 339 69 339 69 376 100 c 0,68,69
 414 132 414 132 414 201 c 128,-1,70
 414 270 414 270 372 305 c 1,71,72
 329 339 329 339 282 339 c 2,57,-1
EndSplineSet
EndChar
StartChar: nine
Encoding: 57 57 28
Width: 550
Flags: W
LayerCount: 2
Fore
SplineSet
278 -17 m 2,0,-1
 263 -17 l 2,1,2
 175 -17 175 -17 115 43 c 0,3,4
 75 83 75 83 60 142 c 1,5,-1
 142 172 l 1,6,7
 150 130 150 130 181 99 c 128,-1,8
 212 68 212 68 263 68 c 2,9,-1
 278 68 l 2,10,11
 333 68 333 68 369 109 c 0,12,13
 404 150 404 150 404 216 c 2,14,-1
 404 324 l 1,15,16
 387 295 387 295 352 279 c 0,17,18
 315 262 315 262 278 262 c 2,19,-1
 263 262 l 2,20,21
 169 262 169 262 111 332 c 128,-1,22
 53 402 53 402 53 486 c 2,23,-1
 53 494 l 2,24,25
 53 585 53 585 115 653 c 1,26,27
 177 718 177 718 263 718 c 2,28,-1
 278 718 l 2,29,30
 366 718 366 718 428 652 c 1,31,32
 490 584 490 584 490 494 c 2,33,-1
 490 216 l 2,34,35
 490 112 490 112 429 48 c 0,36,37
 367 -17 367 -17 278 -17 c 2,0,-1
278 633 m 2,38,-1
 263 633 l 2,39,40
 213 633 213 633 176 593 c 128,-1,41
 139 553 139 553 139 494 c 2,42,-1
 139 486 l 2,43,44
 139 435 139 435 174 391 c 0,45,46
 208 348 208 348 263 348 c 2,47,-1
 278 348 l 2,48,49
 332 348 332 348 368 392 c 128,-1,50
 404 436 404 436 404 486 c 2,51,-1
 404 494 l 2,52,53
 404 553 404 553 367 593 c 128,-1,54
 330 633 330 633 278 633 c 2,38,-1
EndSplineSet
EndChar
StartChar: colon
Encoding: 58 58 29
Width: 312
Flags: W
LayerCount: 2
Fore
SplineSet
217 516 m 1,0,-1
 217 393 l 1,1,-1
 95 393 l 1,2,-1
 95 516 l 1,3,-1
 217 516 l 1,0,-1
217 120 m 1,4,-1
 217 -3 l 1,5,-1
 95 -3 l 1,6,-1
 95 120 l 1,7,-1
 217 120 l 1,4,-1
EndSplineSet
EndChar
StartChar: semicolon
Encoding: 59 59 30
Width: 312
Flags: W
LayerCount: 2
Fore
SplineSet
223 516 m 1,0,-1
 223 393 l 1,1,-1
 100 393 l 1,2,-1
 100 516 l 1,3,-1
 223 516 l 1,0,-1
223 120 m 1,4,-1
 223 -3 l 2,5,6
 223 -81 223 -81 173 -170 c 1,7,-1
 107 -170 l 1,8,9
 157 -102 157 -102 157 -10 c 2,10,-1
 157 -3 l 1,11,-1
 100 -3 l 1,12,-1
 100 120 l 1,13,-1
 223 120 l 1,4,-1
EndSplineSet
EndChar
StartChar: less
Encoding: 60 60 31
Width: 525
Flags: W
LayerCount: 2
Fore
SplineSet
465 18 m 1,0,-1
 90 261 l 1,1,-1
 90 327 l 1,2,-1
 465 570 l 1,3,-1
 465 477 l 1,4,-1
 184 295 l 1,5,-1
 465 112 l 1,6,-1
 465 18 l 1,0,-1
EndSplineSet
Substitution2: "'rtla' Right to Left Alternates in CJK Ideographic lookup 0 subtable" greater
EndChar
StartChar: equal
Encoding: 61 61 32
Width: 525
Flags: W
LayerCount: 2
Fore
SplineSet
60 327 m 1,0,-1
 60 409 l 1,1,-1
 465 409 l 1,2,-1
 465 327 l 1,3,-1
 60 327 l 1,0,-1
60 162 m 1,4,-1
 60 244 l 1,5,-1
 465 244 l 1,6,-1
 465 162 l 1,7,-1
 60 162 l 1,4,-1
EndSplineSet
EndChar
StartChar: greater
Encoding: 62 62 33
Width: 525
Flags: W
LayerCount: 2
Fore
SplineSet
60 570 m 1,0,-1
 435 327 l 1,1,-1
 435 261 l 1,2,-1
 60 18 l 1,3,-1
 60 112 l 1,4,-1
 341 295 l 1,5,-1
 60 477 l 1,6,-1
 60 570 l 1,0,-1
EndSplineSet
Substitution2: "'rtla' Right to Left Alternates in CJK Ideographic lookup 0 subtable" less
EndChar
StartChar: question
Encoding: 63 63 34
Width: 585
Flags: W
LayerCount: 2
Fore
SplineSet
419 541 m 0,0,1
 419 643 419 643 287 643 c 0,2,3
 154 643 154 643 120 558 c 1,4,-1
 60 595 l 1,5,6
 124 725 124 725 289 725 c 1,7,8
 421 723 421 723 495 615 c 0,9,10
 516 584 516 584 516 545 c 2,11,-1
 516 535 l 2,12,13
 516 473 516 473 454 428 c 0,14,15
 361 361 361 361 339 343 c 0,16,17
 316 323 316 323 306 309 c 0,18,19
 294 292 294 292 294 261 c 2,20,-1
 294 178 l 1,21,-1
 211 178 l 1,22,-1
 211 261 l 2,23,24
 211 342 211 342 285 404 c 1,25,26
 302 420 302 420 347 448 c 0,27,28
 419 492 419 492 419 541 c 0,0,1
309 100 m 1,29,-1
 309 -3 l 1,30,-1
 196 -3 l 1,31,-1
 196 100 l 1,32,-1
 309 100 l 1,29,-1
EndSplineSet
EndChar
StartChar: at
Encoding: 64 64 35
Width: 813
Flags: W
LayerCount: 2
Fore
SplineSet
476 249 m 1,0,1
 399 178 399 178 301 178 c 0,2,3
 254 178 254 178 226 212 c 128,-1,4
 198 246 198 246 198 305 c 0,5,6
 198 395 198 395 269 469 c 0,7,8
 339 542 339 542 437 542 c 0,9,10
 494 542 494 542 534 508 c 1,11,-1
 545 553 l 1,12,-1
 619 542 l 1,13,-1
 585 470 l 2,14,15
 533 362 533 362 533 295 c 0,16,17
 533 253 533 253 544 245 c 1,18,19
 554 236 554 236 584 236 c 1,20,21
 641 238 641 238 672 300 c 0,22,23
 703 361 703 361 703 437 c 1,24,25
 702 442 702 442 702 458 c 0,26,27
 698 546 698 546 622 608 c 0,28,29
 545 670 545 670 456 670 c 0,30,31
 302 670 302 670 207 568 c 0,32,33
 113 468 113 468 113 329 c 0,34,35
 113 192 113 192 190 124 c 1,36,37
 266 55 266 55 373 55 c 0,38,39
 543 55 543 55 607 149 c 1,40,-1
 661 110 l 1,41,42
 606 52 606 52 543 24 c 0,43,44
 476 -6 476 -6 370 -6 c 0,45,46
 237 -6 237 -6 134 82 c 0,47,48
 31 169 31 169 31 326 c 0,49,50
 31 481 31 481 153 606 c 0,51,52
 274 729 274 729 458 729 c 0,53,54
 574 729 574 729 678 652 c 1,55,56
 779 575 779 575 779 452 c 0,57,58
 779 347 779 347 724 262 c 0,59,60
 668 175 668 175 567 175 c 0,61,62
 529 175 529 175 509 192 c 1,63,64
 488 208 488 208 476 249 c 1,0,1
474 342 m 1,65,66
 505 411 505 411 505 436 c 0,67,68
 505 458 505 458 485 470 c 0,69,70
 464 482 464 482 437 482 c 0,71,72
 377 480 377 480 331 426 c 0,73,74
 284 370 284 370 284 316 c 0,75,76
 284 259 284 259 321 240 c 1,77,78
 412 244 412 244 474 342 c 1,65,66
EndSplineSet
EndChar
StartChar: A
Encoding: 65 65 36
Width: 735
Flags: W
LayerCount: 2
Fore
SplineSet
148 -3 m 1,0,-1
 40 -3 l 1,1,-1
 328 725 l 1,2,-1
 418 725 l 1,3,-1
 695 -3 l 1,4,-1
 584 -3 l 1,5,-1
 516 188 l 1,6,-1
 216 188 l 1,7,-1
 148 -3 l 1,0,-1
489 276 m 1,8,-1
 376 625 l 1,9,-1
 240 276 l 1,10,-1
 489 276 l 1,8,-1
EndSplineSet
EndChar
StartChar: B
Encoding: 66 66 37
Width: 625
Flags: W
LayerCount: 2
Fore
SplineSet
60 720 m 1,0,-1
 348 720 l 2,1,2
 430 720 430 720 489 666 c 1,3,4
 547 611 547 611 547 533 c 0,5,6
 547 454 547 454 478 396 c 1,7,8
 528 370 528 370 556 320 c 128,-1,9
 584 270 584 270 585 217 c 1,10,11
 585 109 585 109 519 55 c 1,12,13
 455 0 455 0 329 0 c 2,14,-1
 60 0 l 1,15,-1
 60 720 l 1,0,-1
153 423 m 1,16,-1
 346 423 l 2,17,18
 398 423 398 423 426 451 c 0,19,20
 454 478 454 478 454 526 c 128,-1,21
 454 574 454 574 424 608 c 128,-1,22
 394 642 394 642 348 642 c 2,23,-1
 153 642 l 1,24,-1
 153 423 l 1,16,-1
153 83 m 1,25,-1
 342 83 l 1,26,27
 491 86 491 86 491 209 c 2,28,-1
 491 214 l 2,29,30
 491 268 491 268 455 309 c 1,31,32
 418 348 418 348 350 348 c 2,33,-1
 153 348 l 1,34,-1
 153 83 l 1,25,-1
EndSplineSet
EndChar
StartChar: D
Encoding: 68 68 39
Width: 670
Flags: W
LayerCount: 2
Fore
SplineSet
587 530 m 0,0,1
 620 456 620 456 620 379 c 0,2,3
 620 0 620 0 286 0 c 2,4,-1
 60 0 l 1,5,-1
 60 725 l 1,6,-1
 299 725 l 2,7,8
 498 725 498 725 587 530 c 0,0,1
153 83 m 1,9,-1
 211 83 l 2,10,11
 288 83 288 83 303 84 c 0,12,13
 403 85 403 85 461 151 c 0,14,15
 517 216 517 216 517 367 c 0,16,17
 517 592 517 592 379 631 c 0,18,19
 347 640 347 640 299 640 c 2,20,-1
 153 640 l 1,21,-1
 153 83 l 1,9,-1
EndSplineSet
EndChar
StartChar: F
Encoding: 70 70 41
Width: 580
Flags: W
LayerCount: 2
Fore
SplineSet
590 642 m 1,0,-1
 205 642 l 1,1,-1
 205 409 l 1,2,-1
 534 409 l 1,3,-1
 534 331 l 1,4,-1
 205 331 l 1,5,-1
 205 -3 l 1,6,-1
 110 -3 l 1,7,-1
 110 720 l 1,8,-1
 590 720 l 1,9,-1
 590 642 l 1,0,-1
EndSplineSet
EndChar
StartChar: G
Encoding: 71 71 42
Width: 730
Flags: W
LayerCount: 2
Fore
SplineSet
671 37 m 1,0,-1
 650 28 l 1,1,2
 560 -12 560 -12 446 -12 c 0,3,4
 50 -12 50 -12 50 353 c 1,5,6
 52 728 52 728 448 728 c 0,7,8
 580 728 580 728 656 682 c 1,9,-1
 646 589 l 1,10,11
 608 648 608 648 448 648 c 0,12,13
 148 648 148 648 148 363 c 0,14,15
 148 73 148 73 445 73 c 0,16,17
 514 73 514 73 578 99 c 1,18,-1
 578 309 l 1,19,-1
 392 309 l 1,20,-1
 392 382 l 1,21,-1
 671 382 l 1,22,-1
 671 37 l 1,0,-1
EndSplineSet
EndChar
StartChar: H
Encoding: 72 72 43
Width: 750
Flags: W
LayerCount: 2
Fore
SplineSet
595 428 m 1,0,-1
 595 725 l 1,1,-1
 690 725 l 1,2,-1
 690 -3 l 1,3,-1
 595 -3 l 1,4,-1
 595 345 l 1,5,-1
 153 345 l 1,6,-1
 153 -3 l 1,7,-1
 60 -3 l 1,8,-1
 60 725 l 1,9,-1
 153 725 l 1,10,-1
 153 428 l 1,11,-1
 595 428 l 1,0,-1
EndSplineSet
EndChar
StartChar: I
Encoding: 73 73 44
Width: 289
Flags: W
LayerCount: 2
Fore
SplineSet
100 -6 m 1,0,-1
 100 731 l 1,1,-1
 190 731 l 1,2,-1
 190 -6 l 1,3,-1
 100 -6 l 1,0,-1
EndSplineSet
EndChar
StartChar: K
Encoding: 75 75 46
Width: 661
Flags: W
LayerCount: 2
Fore
SplineSet
176 725 m 1,0,-1
 176 408 l 1,1,-1
 489 725 l 1,2,-1
 613 725 l 1,3,-1
 277 409 l 1,4,-1
 642 0 l 1,5,-1
 522 0 l 1,6,-1
 225 364 l 1,7,-1
 176 314 l 1,8,-1
 176 0 l 1,9,-1
 80 0 l 1,10,-1
 80 725 l 1,11,-1
 176 725 l 1,0,-1
EndSplineSet
EndChar
StartChar: M
Encoding: 77 77 48
Width: 830
Flags: W
LayerCount: 2
Fore
SplineSet
60 -3 m 1,0,-1
 60 725 l 1,1,-1
 174 725 l 1,2,-1
 417 129 l 1,3,-1
 656 725 l 1,4,-1
 770 725 l 1,5,-1
 770 -3 l 1,6,-1
 674 -3 l 1,7,-1
 674 562 l 1,8,-1
 462 25 l 1,9,-1
 374 25 l 1,10,-1
 152 562 l 1,11,-1
 152 -3 l 1,12,-1
 60 -3 l 1,0,-1
EndSplineSet
EndChar
StartChar: N
Encoding: 78 78 49
Width: 770
Flags: W
LayerCount: 2
Fore
SplineSet
710 0 m 1,0,-1
 618 0 l 1,1,-1
 152 575 l 1,2,-1
 152 -3 l 1,3,-1
 60 -3 l 1,4,-1
 60 725 l 1,5,-1
 145 725 l 1,6,-1
 615 146 l 1,7,-1
 615 725 l 1,8,-1
 710 725 l 1,9,-1
 710 0 l 1,0,-1
EndSplineSet
EndChar
StartChar: O
Encoding: 79 79 50
Width: 753
Flags: W
LayerCount: 2
Fore
SplineSet
82 170 m 0,0,1
 35 256 35 256 35 360 c 0,2,3
 35 463 35 463 82 552 c 0,4,5
 129 639 129 639 207 692 c 0,6,7
 284 745 284 745 377 745 c 128,-1,8
 470 745 470 745 547 695 c 128,-1,9
 624 645 624 645 672 558 c 1,10,11
 719 469 719 469 719 362 c 0,12,13
 719 253 719 253 672 167 c 1,14,15
 622 80 622 80 547 31 c 1,16,17
 471 -20 471 -20 377 -20 c 128,-1,18
 283 -20 283 -20 207 32 c 1,19,20
 129 83 129 83 82 170 c 0,0,1
381 668 m 1,21,-1
 380 668 l 2,22,23
 278 668 278 668 210 579 c 0,24,25
 141 489 141 489 141 360 c 0,26,27
 141 230 141 230 207 144 c 0,28,29
 272 58 272 58 375 58 c 0,30,31
 479 58 479 58 546 143 c 1,32,33
 613 225 613 225 613 362 c 0,34,35
 613 497 613 497 549 582 c 0,36,37
 484 667 484 667 381 668 c 1,21,-1
EndSplineSet
EndChar
StartChar: P
Encoding: 80 80 51
Width: 650
Flags: W
LayerCount: 2
Fore
SplineSet
610 508 m 2,0,-1
 610 498 l 2,1,2
 610 431 610 431 573 370 c 0,3,4
 523 286 523 286 380 278 c 1,5,6
 322 276 322 276 156 276 c 1,7,-1
 156 -3 l 1,8,-1
 60 -3 l 1,9,-1
 60 725 l 1,10,-1
 331 725 l 2,11,12
 376 725 376 725 385 724 c 0,13,14
 496 720 496 720 572 636 c 1,15,16
 610 592 610 592 610 508 c 2,0,-1
156 344 m 1,17,-1
 347 344 l 2,18,19
 437 344 437 344 486 411 c 0,20,21
 503 434 503 434 503 499 c 128,-1,22
 503 564 503 564 485 593 c 1,23,24
 448 657 448 657 360 657 c 2,25,-1
 156 657 l 1,26,-1
 156 344 l 1,17,-1
EndSplineSet
EndChar
StartChar: Q
Encoding: 81 81 52
Width: 753
Flags: W
LayerCount: 2
Fore
SplineSet
82 170 m 0,0,1
 35 256 35 256 35 360 c 0,2,3
 35 463 35 463 82 552 c 0,4,5
 129 639 129 639 207 692 c 0,6,7
 284 745 284 745 377 745 c 128,-1,8
 470 745 470 745 547 695 c 128,-1,9
 624 645 624 645 672 558 c 1,10,11
 719 469 719 469 719 362 c 0,12,13
 719 253 719 253 672 167 c 0,14,15
 613 59 613 59 511 10 c 1,16,17
 534 -56 534 -56 599 -56 c 0,18,19
 637 -56 637 -56 686 -28 c 1,20,-1
 709 -113 l 1,21,22
 660 -147 660 -147 600 -147 c 0,23,24
 510 -147 510 -147 430 -16 c 1,25,26
 410 -20 410 -20 377 -20 c 0,27,28
 283 -20 283 -20 207 32 c 1,29,30
 129 83 129 83 82 170 c 0,0,1
373 52 m 1,31,-1
 375 52 l 2,32,33
 479 52 479 52 546 140 c 1,34,35
 613 225 613 225 613 362 c 2,36,-1
 613 363 l 2,37,38
 613 497 613 497 549 585 c 1,39,40
 484 672 484 672 381 673 c 1,41,-1
 380 673 l 2,42,43
 278 673 278 673 210 581 c 1,44,45
 141 490 141 490 141 360 c 0,46,47
 141 231 141 231 206 142 c 128,-1,48
 271 53 271 53 373 52 c 1,31,-1
EndSplineSet
EndChar
StartChar: R
Encoding: 82 82 53
Width: 700
Flags: W
LayerCount: 2
Fore
SplineSet
605 518 m 2,0,-1
 605 508 l 2,1,2
 605 450 605 450 565 386 c 1,3,4
 528 320 528 320 405 303 c 1,5,-1
 640 -5 l 1,6,-1
 516 -5 l 1,7,-1
 322 297 l 1,8,9
 303 296 303 296 153 296 c 1,10,-1
 153 -3 l 1,11,-1
 60 -3 l 1,12,-1
 60 725 l 1,13,-1
 321 725 l 2,14,15
 366 725 366 725 375 724 c 0,16,17
 491 719 491 719 567 636 c 1,18,19
 605 592 605 592 605 518 c 2,0,-1
153 372 m 1,20,-1
 337 372 l 2,21,22
 445 372 445 372 489 431 c 0,23,24
 506 454 506 454 506 509 c 256,25,26
 506 564 506 564 488 593 c 0,27,28
 455 649 455 649 350 649 c 2,29,-1
 153 649 l 1,30,-1
 153 372 l 1,20,-1
EndSplineSet
EndChar
StartChar: S
Encoding: 83 83 54
Width: 601
Flags: W
LayerCount: 2
Fore
SplineSet
557 620 m 1,0,-1
 477 588 l 1,1,2
 460 651 460 651 320 651 c 0,3,4
 246 651 246 651 205 625 c 128,-1,5
 164 599 164 599 164 550 c 0,6,7
 164 471 164 471 328 425 c 1,8,9
 571 335 571 335 571 189 c 0,10,11
 571 -14 571 -14 294 -14 c 0,12,13
 76 -14 76 -14 30 130 c 1,14,-1
 111 153 l 1,15,16
 167 67 167 67 293 67 c 0,17,18
 471 67 471 67 471 182 c 0,19,20
 471 295 471 295 208 366 c 1,21,22
 69 418 69 418 69 537 c 2,23,-1
 69 541 l 2,24,25
 69 635 69 635 131 683 c 128,-1,26
 193 731 193 731 310 731 c 0,27,28
 515 731 515 731 557 620 c 1,0,-1
EndSplineSet
EndChar
StartChar: T
Encoding: 84 84 55
Width: 625
Flags: W
LayerCount: 2
Fore
SplineSet
600 725 m 1,0,-1
 600 647 l 1,1,-1
 361 647 l 1,2,-1
 361 -3 l 1,3,-1
 265 -3 l 1,4,-1
 265 647 l 1,5,-1
 25 647 l 1,6,-1
 25 725 l 1,7,-1
 600 725 l 1,0,-1
EndSplineSet
EndChar
StartChar: V
Encoding: 86 86 57
Width: 700
Flags: W
LayerCount: 2
Fore
SplineSet
353 108 m 1,0,-1
 569 725 l 1,1,-1
 670 725 l 1,2,-1
 392 -8 l 1,3,-1
 316 -8 l 1,4,-1
 30 725 l 1,5,-1
 127 725 l 1,6,-1
 353 108 l 1,0,-1
EndSplineSet
EndChar
StartChar: W
Encoding: 87 87 58
Width: 915
Flags: W
LayerCount: 2
Fore
SplineSet
232 -3 m 1,0,-1
 30 734 l 1,1,-1
 121 734 l 1,2,-1
 274 168 l 1,3,-1
 436 728 l 1,4,-1
 529 728 l 1,5,-1
 687 166 l 1,6,-1
 841 734 l 1,7,-1
 935 734 l 1,8,-1
 729 -3 l 1,9,-1
 649 -3 l 1,10,-1
 480 593 l 1,11,-1
 312 -3 l 1,12,-1
 232 -3 l 1,0,-1
EndSplineSet
EndChar
StartChar: X
Encoding: 88 88 59
Width: 703
Flags: W
LayerCount: 2
Fore
SplineSet
643 725 m 1,0,-1
 396 382 l 1,1,-1
 674 -3 l 1,2,-1
 564 -3 l 1,3,-1
 351 325 l 1,4,-1
 145 -3 l 1,5,-1
 30 -3 l 1,6,-1
 308 382 l 1,7,-1
 61 725 l 1,8,-1
 171 725 l 1,9,-1
 351 443 l 1,10,-1
 528 725 l 1,11,-1
 643 725 l 1,0,-1
EndSplineSet
EndChar
StartChar: Y
Encoding: 89 89 60
Width: 703
Flags: W
LayerCount: 2
Fore
SplineSet
653 725 m 1,0,-1
 400 362 l 1,1,-1
 400 -3 l 1,2,-1
 303 -3 l 1,3,-1
 303 362 l 1,4,-1
 51 725 l 1,5,-1
 156 725 l 1,6,-1
 351 423 l 1,7,-1
 543 725 l 1,8,-1
 653 725 l 1,0,-1
EndSplineSet
EndChar
StartChar: Z
Encoding: 90 90 61
Width: 615
Flags: W
LayerCount: 2
Fore
SplineSet
564 647 m 1,0,-1
 159 78 l 1,1,-1
 576 78 l 1,2,-1
 576 2 l 1,3,-1
 50 2 l 1,4,-1
 50 84 l 1,5,-1
 454 652 l 1,6,-1
 61 652 l 1,7,-1
 61 730 l 1,8,-1
 564 730 l 1,9,-1
 564 647 l 1,0,-1
EndSplineSet
EndChar
StartChar: bracketleft
Encoding: 91 91 62
Width: 470
Flags: W
LayerCount: 2
Fore
SplineSet
420 -167 m 1,0,-1
 420 -240 l 1,1,-1
 140 -240 l 1,2,-1
 140 731 l 1,3,-1
 420 731 l 1,4,-1
 420 658 l 1,5,-1
 232 658 l 1,6,-1
 232 -167 l 1,7,-1
 420 -167 l 1,0,-1
EndSplineSet
Substitution2: "'rtla' Right to Left Alternates in CJK Ideographic lookup 0 subtable" bracketright
EndChar
StartChar: backslash
Encoding: 92 92 63
Width: 540
Flags: W
LayerCount: 2
Fore
SplineSet
510 -120 m 1,0,-1
 425 -120 l 1,1,-1
 30 800 l 1,2,-1
 115 800 l 1,3,-1
 510 -120 l 1,0,-1
EndSplineSet
EndChar
StartChar: bracketright
Encoding: 93 93 64
Width: 470
Flags: W
LayerCount: 2
Fore
SplineSet
50 731 m 1,0,-1
 330 731 l 1,1,-1
 330 -240 l 1,2,-1
 50 -240 l 1,3,-1
 50 -167 l 1,4,-1
 238 -167 l 1,5,-1
 238 658 l 1,6,-1
 50 658 l 1,7,-1
 50 731 l 1,0,-1
EndSplineSet
Substitution2: "'rtla' Right to Left Alternates in CJK Ideographic lookup 0 subtable" bracketleft
EndChar
StartChar: asciicircum
Encoding: 94 94 65
Width: 500
Flags: W
LayerCount: 2
Fore
SplineSet
387 473 m 1,0,-1
 250 665 l 1,1,-1
 114 473 l 1,2,-1
 40 473 l 1,3,-1
 220 750 l 1,4,-1
 280 750 l 1,5,-1
 459 473 l 1,6,-1
 387 473 l 1,0,-1
EndSplineSet
EndChar
StartChar: underscore
Encoding: 95 95 66
Width: 500
Flags: W
LayerCount: 2
Fore
SplineSet
32 0 m 1,0,-1
 32 82 l 1,1,-1
 468 82 l 1,2,-1
 468 0 l 1,3,-1
 32 0 l 1,0,-1
EndSplineSet
EndChar
StartChar: grave
Encoding: 96 96 67
Width: 300
Flags: W
LayerCount: 2
Fore
SplineSet
195 513 m 1,0,-1
 40 734 l 1,1,-1
 138 734 l 1,2,-1
 270 513 l 1,3,-1
 195 513 l 1,0,-1
EndSplineSet
EndChar
StartChar: a
Encoding: 97 97 68
Width: 521
Flags: W
LayerCount: 2
Fore
SplineSet
368 354 m 1,0,-1
 370 368 l 1,1,2
 370 415 370 415 344 441 c 128,-1,3
 318 467 318 467 269 467 c 0,4,5
 201 467 201 467 162 454 c 0,6,7
 121 440 121 440 90 411 c 1,8,-1
 40 459 l 1,9,10
 119 538 119 538 254 538 c 2,11,-1
 259 538 l 2,12,13
 456 538 456 538 456 324 c 2,14,-1
 456 98 l 2,15,16
 456 58 456 58 486 -2 c 1,17,-1
 413 0 l 1,18,19
 372 24 372 24 368 82 c 1,20,21
 320 -1 320 -1 232 -11 c 1,22,23
 135 -11 135 -11 85 33 c 128,-1,24
 35 77 35 77 35 139 c 2,25,-1
 35 142 l 2,26,27
 35 206 35 206 65 256 c 1,28,29
 124 349 124 349 368 354 c 1,0,-1
220 75 m 1,30,31
 276 75 276 75 310 99 c 1,32,33
 344 121 344 121 361 178 c 0,34,35
 368 198 368 198 368 209 c 2,36,-1
 368 288 l 1,37,38
 251 284 251 284 189 247 c 0,39,40
 127 209 127 209 127 151 c 0,41,42
 127 119 127 119 142 98 c 1,43,44
 155 77 155 77 220 75 c 1,30,31
EndSplineSet
EndChar
StartChar: b
Encoding: 98 98 69
Width: 555
Flags: W
LayerCount: 2
Fore
SplineSet
515 270 m 0,0,1
 515 144 515 144 457 65 c 0,2,3
 398 -15 398 -15 302 -15 c 0,4,5
 190 -15 190 -15 159 72 c 1,6,-1
 159 -3 l 1,7,-1
 70 -3 l 1,8,-1
 70 740 l 1,9,-1
 159 740 l 1,10,-1
 159 443 l 1,11,12
 204 535 204 535 301 535 c 128,-1,13
 398 535 398 535 456 465 c 0,14,15
 515 394 515 394 515 270 c 0,0,1
423 261 m 1,16,17
 417 445 417 445 289 445 c 1,18,19
 167 444 167 444 159 299 c 1,20,-1
 159 230 l 1,21,22
 172 76 172 76 289 76 c 0,23,24
 351 76 351 76 387 127 c 1,25,26
 421 178 421 178 423 261 c 1,16,17
EndSplineSet
EndChar
StartChar: c
Encoding: 99 99 70
Width: 510
Flags: W
LayerCount: 2
Fore
SplineSet
412 144 m 1,0,-1
 493 98 l 1,1,2
 467 -12 467 -12 313 -12 c 0,3,4
 46 -12 46 -12 46 270 c 0,5,6
 46 530 46 530 305 530 c 0,7,8
 461 530 461 530 480 406 c 1,9,-1
 406 384 l 1,10,11
 391 447 391 447 302 447 c 0,12,13
 139 447 139 447 139 271 c 0,14,15
 139 80 139 80 304 80 c 0,16,17
 402 80 402 80 412 144 c 1,0,-1
EndSplineSet
EndChar
StartChar: d
Encoding: 100 100 71
Width: 555
Flags: W
LayerCount: 2
Fore
SplineSet
40 270 m 0,0,1
 40 394 40 394 99 465 c 0,2,3
 157 535 157 535 263 535 c 0,4,5
 352 535 352 535 416 459 c 1,6,-1
 416 740 l 1,7,-1
 505 740 l 1,8,-1
 505 -3 l 1,9,-1
 416 -3 l 1,10,-1
 416 65 l 1,11,12
 369 -15 369 -15 263 -15 c 128,-1,13
 157 -15 157 -15 98 65 c 0,14,15
 40 144 40 144 40 270 c 0,0,1
276 445 m 0,16,17
 210 446 210 446 172 399 c 128,-1,18
 134 352 134 352 132 261 c 1,19,20
 133 178 133 178 166 127 c 0,21,22
 198 76 198 76 276 76 c 0,23,24
 341 76 341 76 375 114 c 128,-1,25
 409 152 409 152 416 230 c 1,26,-1
 416 299 l 1,27,28
 408 444 408 444 276 445 c 0,16,17
EndSplineSet
EndChar
StartChar: e
Encoding: 101 101 72
Width: 530
Flags: W
LayerCount: 2
Fore
SplineSet
495 225 m 1,0,-1
 128 225 l 1,1,2
 144 73 144 73 285 73 c 0,3,4
 404 73 404 73 475 136 c 1,5,-1
 475 40 l 1,6,7
 393 -12 393 -12 279 -12 c 0,8,9
 40 -12 40 -12 40 264 c 0,10,11
 40 374 40 374 105.5 452 c 128,-1,12
 171 530 171 530 279 530 c 0,13,14
 495 530 495 530 495 225 c 1,0,-1
278 441 m 2,15,-1
 276 441 l 2,16,17
 146 441 146 441 128 300 c 1,18,-1
 409 300 l 1,19,20
 400 441 400 441 278 441 c 2,15,-1
EndSplineSet
EndChar
StartChar: f
Encoding: 102 102 73
Width: 405
Flags: W
LayerCount: 2
Fore
SplineSet
336 667 m 0,0,1
 231 667 231 667 231 545 c 2,2,-1
 231 493 l 1,3,-1
 387 493 l 1,4,-1
 387 420 l 1,5,-1
 231 420 l 1,6,-1
 231 -3 l 1,7,-1
 139 -3 l 1,8,-1
 139 420 l 1,9,-1
 15 420 l 1,10,-1
 15 493 l 1,11,-1
 139 493 l 1,12,-1
 139 545 l 2,13,14
 139 636 139 636 196 688 c 1,15,16
 251 740 251 740 315 740 c 0,17,18
 377 740 377 740 390 694 c 1,19,-1
 383 646 l 1,20,21
 371 667 371 667 336 667 c 0,0,1
EndSplineSet
EndChar
StartChar: g
Encoding: 103 103 74
Width: 561
Flags: W
LayerCount: 2
Fore
SplineSet
491 538 m 1,0,-1
 491 -45 l 1,1,2
 488 -238 488 -238 266 -240 c 1,3,4
 117 -240 117 -240 64 -160 c 1,5,-1
 127 -104 l 1,6,7
 184 -155 184 -155 268 -155 c 0,8,9
 403 -155 403 -155 403 -25 c 2,10,-1
 403 77 l 1,11,12
 367 5 367 5 281 -10 c 1,13,14
 179 -10 179 -10 115 72 c 0,15,16
 50 155 50 155 50 275 c 128,-1,17
 50 395 50 395 115 466 c 1,18,19
 181 536 181 536 278 536 c 2,20,-1
 281 536 l 1,21,22
 351 535 351 535 408 470 c 1,23,-1
 408 538 l 1,24,-1
 491 538 l 1,0,-1
149 266 m 1,25,26
 150 188 150 188 186 131 c 1,27,28
 220 74 220 74 284 74 c 0,29,30
 390 74 390 74 403 206 c 1,31,-1
 403 309 l 1,32,33
 395 452 395 452 284 452 c 0,34,35
 227 452 227 452 189 405 c 1,36,37
 151 356 151 356 149 266 c 1,25,26
EndSplineSet
EndChar
StartChar: i
Encoding: 105 105 76
Width: 260
Flags: W
LayerCount: 2
Fore
SplineSet
180 699 m 1,0,-1
 180 601 l 1,1,-1
 80 601 l 1,2,-1
 80 699 l 1,3,-1
 180 699 l 1,0,-1
178 521 m 1,4,-1
 178 -3 l 1,5,-1
 87 -3 l 1,6,-1
 87 521 l 1,7,-1
 178 521 l 1,4,-1
EndSplineSet
EndChar
StartChar: j
Encoding: 106 106 77
Width: 260
Flags: W
LayerCount: 2
Fore
SplineSet
180 699 m 1,0,-1
 180 601 l 1,1,-1
 78 601 l 1,2,-1
 78 699 l 1,3,-1
 180 699 l 1,0,-1
175 522 m 1,4,-1
 175 -48 l 2,5,6
 175 -240 175 -240 -28 -240 c 0,7,8
 -52 -240 -52 -240 -59 -239 c 1,9,-1
 -70 -173 l 1,10,11
 82 -173 82 -173 82 -72 c 2,12,-1
 82 522 l 1,13,-1
 175 522 l 1,4,-1
EndSplineSet
EndChar
StartChar: k
Encoding: 107 107 78
Width: 535
Flags: W
LayerCount: 2
Fore
SplineSet
375 520 m 1,0,-1
 494 520 l 1,1,-1
 276 327 l 1,2,-1
 505 -3 l 1,3,-1
 389 -3 l 1,4,-1
 221 278 l 1,5,-1
 157 214 l 1,6,-1
 157 -3 l 1,7,-1
 70 -3 l 1,8,-1
 70 740 l 1,9,-1
 157 740 l 1,10,-1
 157 312 l 1,11,-1
 375 520 l 1,0,-1
EndSplineSet
EndChar
StartChar: l
Encoding: 108 108 79
Width: 260
Flags: W
LayerCount: 2
Fore
SplineSet
84 740 m 1,0,-1
 176 740 l 1,1,-1
 176 -3 l 1,2,-1
 84 -3 l 1,3,-1
 84 740 l 1,0,-1
EndSplineSet
EndChar
StartChar: n
Encoding: 110 110 81
Width: 568
Flags: W
LayerCount: 2
Fore
SplineSet
420 -3 m 1,0,-1
 420 319 l 2,1,2
 420 453 420 453 309 453 c 0,3,4
 229 453 229 453 185.5 403 c 128,-1,5
 142 353 142 353 142 255 c 2,6,-1
 142 -3 l 1,7,-1
 49 -3 l 1,8,-1
 49 536 l 1,9,-1
 142 536 l 1,10,-1
 142 413 l 1,11,12
 164 471 164 471 213.5 504.5 c 128,-1,13
 263 538 263 538 311 538 c 0,14,15
 513 537 513 537 513 345 c 2,16,-1
 513 -3 l 1,17,-1
 420 -3 l 1,0,-1
EndSplineSet
EndChar
StartChar: o
Encoding: 111 111 82
Width: 540
Flags: W
LayerCount: 2
Fore
SplineSet
90 64 m 1,0,1
 20 146 20 146 20 266 c 0,2,3
 20 384 20 384 90 463 c 128,-1,4
 160 542 160 542 268 542 c 0,5,6
 375 542 375 542 448 463 c 128,-1,7
 521 384 521 384 521 266 c 0,8,9
 521 146 521 146 448 64 c 0,10,11
 374 -20 374 -20 268 -20 c 0,12,13
 160 -20 160 -20 90 64 c 1,0,1
153 408 m 128,-1,15
 112 349 112 349 112 266 c 0,16,17
 112 184 112 184 153 119 c 0,18,19
 193 55 193 55 265 55 c 0,20,21
 335 55 335 55 378 119 c 1,22,23
 420 184 420 184 420 266 c 0,24,25
 420 350 420 350 378 408 c 0,26,27
 336 467 336 467 266 467 c 0,28,14
 194 467 194 467 153 408 c 128,-1,15
EndSplineSet
EndChar
StartChar: p
Encoding: 112 112 83
Width: 558
Flags: W
LayerCount: 2
Fore
SplineSet
164 531 m 1,0,-1
 164 460 l 1,1,2
 226 538 226 538 290 538 c 0,3,4
 394 538 394 538 451 464 c 0,5,6
 508 389 508 389 508 264 c 0,7,8
 508 138 508 138 450 62 c 0,9,10
 391 -15 391 -15 290 -15 c 0,11,12
 210 -15 210 -15 164 66 c 1,13,-1
 164 -200 l 1,14,-1
 70 -200 l 1,15,-1
 70 531 l 1,16,-1
 164 531 l 1,0,-1
384 402 m 1,17,18
 352 450 352 450 284 450 c 0,19,20
 180 450 180 450 164 282 c 1,21,-1
 164 221 l 1,22,23
 172 74 172 74 284 74 c 0,24,25
 347 74 347 74 381 126 c 0,26,27
 414 177 414 177 416 262 c 1,28,29
 415 353 415 353 384 402 c 1,17,18
EndSplineSet
EndChar
StartChar: q
Encoding: 113 113 84
Width: 563
Flags: W
LayerCount: 2
Fore
SplineSet
399 -200 m 1,0,-1
 399 66 l 1,1,2
 352 -15 352 -15 273 -15 c 0,3,4
 170 -15 170 -15 110 61 c 0,5,6
 50 136 50 136 50 262 c 128,-1,7
 50 388 50 388 110 463 c 0,8,9
 169 537 169 537 276 537 c 0,10,11
 357 537 357 537 399 454 c 1,12,-1
 399 530 l 1,13,-1
 493 530 l 1,14,-1
 493 -200 l 1,15,-1
 399 -200 l 1,0,-1
178 402 m 0,16,17
 145 354 145 354 144 260 c 1,18,19
 146 175 146 175 181 125 c 128,-1,20
 216 75 216 75 279 75 c 0,21,22
 390 76 390 76 399 221 c 1,23,-1
 399 292 l 1,24,25
 386 449 386 449 280 449 c 0,26,27
 211 449 211 449 178 402 c 0,16,17
EndSplineSet
EndChar
StartChar: r
Encoding: 114 114 85
Width: 380
Flags: W
LayerCount: 2
Fore
SplineSet
311 538 m 0,0,1
 321 538 321 538 355 536 c 1,2,-1
 354 447 l 1,3,4
 334 451 334 451 315 451 c 0,5,6
 229 448 229 448 190 409 c 128,-1,7
 151 370 151 370 151 292 c 2,8,-1
 151 -3 l 1,9,-1
 58 -3 l 1,10,-1
 58 513 l 1,11,-1
 151 513 l 1,12,-1
 151 407 l 1,13,14
 170 470 170 470 215 504 c 0,15,16
 259 538 259 538 311 538 c 0,0,1
EndSplineSet
EndChar
StartChar: s
Encoding: 115 115 86
Width: 480
Flags: W
LayerCount: 2
Fore
SplineSet
439 412 m 1,0,-1
 362 393 l 1,1,2
 348 436 348 436 316.5 451.5 c 128,-1,3
 285 467 285 467 225 467 c 1,4,5
 174 466 174 466 152 448 c 128,-1,6
 130 430 130 430 130 383 c 0,7,8
 130 348 130 348 158 331 c 128,-1,9
 186 314 186 314 234.5 307.5 c 128,-1,10
 283 301 283 301 331.5 290 c 128,-1,11
 380 279 380 279 414 244.5 c 128,-1,12
 448 210 448 210 448 149 c 0,13,14
 448 83 448 83 395.5 39 c 128,-1,15
 343 -5 343 -5 239 -5 c 0,16,17
 40 -5 40 -5 15 133 c 1,18,-1
 99 148 l 1,19,20
 107 114 107 114 142.5 94.5 c 128,-1,21
 178 75 178 75 239 75 c 0,22,23
 302 75 302 75 329.5 97.5 c 128,-1,24
 357 120 357 120 357 168 c 0,25,26
 357 201 357 201 324.5 216 c 128,-1,27
 292 231 292 231 243 237 c 128,-1,28
 194 243 194 243 145.5 253 c 128,-1,29
 97 263 97 263 67.5 296 c 128,-1,30
 38 329 38 329 38 387 c 0,31,32
 38 537 38 537 232 537 c 0,33,34
 317 537 317 537 368 510.5 c 128,-1,35
 419 484 419 484 439 412 c 1,0,-1
EndSplineSet
EndChar
StartChar: t
Encoding: 116 116 87
Width: 353
Flags: W
LayerCount: 2
Fore
SplineSet
337 92 m 1,0,-1
 343 56 l 1,1,2
 320 -7 320 -7 221 -7 c 0,3,4
 83 -7 83 -7 83 134 c 2,5,-1
 83 440 l 1,6,-1
 10 440 l 1,7,-1
 10 513 l 1,8,-1
 83 513 l 1,9,-1
 83 668 l 1,10,-1
 174 668 l 1,11,-1
 174 513 l 1,12,-1
 323 513 l 1,13,-1
 323 440 l 1,14,-1
 174 440 l 1,15,-1
 174 148 l 2,16,17
 174 66 174 66 257 66 c 0,18,19
 311 66 311 66 337 92 c 1,0,-1
EndSplineSet
EndChar
StartChar: u
Encoding: 117 117 88
Width: 538
Flags: W
LayerCount: 2
Fore
SplineSet
143 523 m 1,0,-1
 143 252 l 2,1,2
 143 69 143 69 249 69 c 0,3,4
 395 69 395 69 395 264 c 2,5,-1
 395 523 l 1,6,-1
 488 523 l 1,7,-1
 488 -3 l 1,8,-1
 395 -3 l 1,9,-1
 395 80 l 1,10,11
 357 -15 357 -15 241 -15 c 1,12,13
 50 -13 50 -13 50 232 c 2,14,-1
 50 523 l 1,15,-1
 143 523 l 1,0,-1
EndSplineSet
EndChar
StartChar: v
Encoding: 118 118 89
Width: 504
Flags: W
LayerCount: 2
Fore
SplineSet
252 85 m 1,0,-1
 394 533 l 1,1,-1
 494 533 l 1,2,-1
 290 -3 l 1,3,-1
 214 -3 l 1,4,-1
 10 533 l 1,5,-1
 110 533 l 1,6,-1
 252 85 l 1,0,-1
EndSplineSet
EndChar
StartChar: w
Encoding: 119 119 90
Width: 764
Flags: W
LayerCount: 2
Fore
SplineSet
167 0 m 1,0,-1
 30 533 l 1,1,-1
 125 533 l 1,2,-1
 219 107 l 1,3,-1
 324 522 l 1,4,-1
 436 522 l 1,5,-1
 533 110 l 1,6,-1
 638 533 l 1,7,-1
 734 533 l 1,8,-1
 586 0 l 1,9,-1
 486 0 l 1,10,-1
 378 437 l 1,11,-1
 270 0 l 1,12,-1
 167 0 l 1,0,-1
EndSplineSet
EndChar
StartChar: x
Encoding: 120 120 91
Width: 550
Flags: W
LayerCount: 2
Fore
SplineSet
26 538 m 1,0,-1
 138 538 l 1,1,-1
 275 327 l 1,2,-1
 402 538 l 1,3,-1
 524 538 l 1,4,-1
 324 272 l 1,5,-1
 535 -3 l 1,6,-1
 424 -3 l 1,7,-1
 275 216 l 1,8,-1
 136 -3 l 1,9,-1
 15 -3 l 1,10,-1
 226 272 l 1,11,-1
 26 538 l 1,0,-1
EndSplineSet
EndChar
StartChar: z
Encoding: 122 122 93
Width: 498
Flags: W
LayerCount: 2
Fore
SplineSet
458 464 m 1,0,-1
 149 73 l 1,1,-1
 458 73 l 1,2,-1
 458 0 l 1,3,-1
 40 0 l 1,4,-1
 40 71 l 1,5,-1
 348 461 l 1,6,-1
 48 461 l 1,7,-1
 48 534 l 1,8,-1
 458 534 l 1,9,-1
 458 464 l 1,0,-1
EndSplineSet
EndChar
StartChar: braceleft
Encoding: 123 123 94
Width: 470
Flags: W
LayerCount: 2
Fore
SplineSet
420 -199 m 1,0,-1
 361 -200 l 1,1,2
 224 -200 224 -200 177 -126 c 0,3,4
 154 -88 154 -88 154 -43 c 0,5,6
 154 0 154 0 171 56 c 0,7,8
 188 110 188 110 188 135 c 0,9,10
 188 200 188 200 147 223 c 0,11,12
 115 240 115 240 96 240 c 2,13,-1
 95 240 l 1,14,-1
 96 292 l 1,15,-1
 110 294 l 2,16,17
 151 300 151 300 175 338 c 0,18,19
 187 358 187 358 187 392 c 0,20,21
 187 430 187 430 171 479 c 0,22,23
 154 533 154 533 154 577 c 0,24,25
 154 624 154 624 178 658 c 1,26,27
 200 693 200 693 244 713 c 0,28,29
 285 732 285 732 372 732 c 2,30,-1
 420 732 l 1,31,-1
 420 673 l 1,32,33
 394 674 394 674 359 674 c 0,34,35
 247 674 247 674 247 571 c 0,36,37
 247 546 247 546 264 492 c 128,-1,38
 281 438 281 438 281 395 c 0,39,40
 281 315 281 315 201 265 c 1,41,42
 280 216 280 216 280 134 c 0,43,44
 280 87 280 87 264 39 c 0,45,46
 247 -15 247 -15 247 -40 c 128,-1,47
 247 -65 247 -65 255 -79 c 0,48,49
 294 -142 294 -142 361 -142 c 1,50,-1
 420 -141 l 1,51,-1
 420 -199 l 1,0,-1
EndSplineSet
Substitution2: "'rtla' Right to Left Alternates in CJK Ideographic lookup 0 subtable" braceright
EndChar
StartChar: bar
Encoding: 124 124 95
Width: 260
Flags: W
LayerCount: 2
Fore
SplineSet
168 -190 m 1,0,-1
 92 -190 l 1,1,-1
 92 800 l 1,2,-1
 168 800 l 1,3,-1
 168 -190 l 1,0,-1
EndSplineSet
EndChar
StartChar: braceright
Encoding: 125 125 96
Width: 470
Flags: W
LayerCount: 2
Fore
SplineSet
50 -141 m 1,0,-1
 109 -142 l 1,1,2
 173 -142 173 -142 215 -79 c 1,3,4
 223 -65 223 -65 223 -40 c 0,5,6
 223 -9 223 -9 207 39 c 0,7,8
 190 93 190 93 190 134 c 0,9,10
 190 216 190 216 269 265 c 1,11,12
 189 315 189 315 189 395 c 0,13,14
 189 438 189 438 206 492 c 128,-1,15
 223 546 223 546 223 571 c 0,16,17
 223 674 223 674 110 674 c 0,18,19
 76 674 76 674 50 673 c 1,20,-1
 50 732 l 1,21,-1
 98 732 l 2,22,23
 185 732 185 732 226 713 c 0,24,25
 268 694 268 694 293 658 c 1,26,27
 316 623 316 623 316 577 c 0,28,29
 316 527 316 527 300 479 c 1,30,31
 283 423 283 423 283 397 c 0,32,33
 283 366 283 366 295 348 c 0,34,35
 330 293 330 293 361 289 c 2,36,-1
 375 287 l 1,37,-1
 375 245 l 1,38,-1
 374 245 l 2,39,40
 355 245 355 245 323 228 c 0,41,42
 282 205 282 205 282 135 c 0,43,44
 282 110 282 110 299 56 c 0,45,46
 316 0 316 0 316 -43 c 0,47,48
 316 -88 316 -88 293 -126 c 1,49,50
 243 -200 243 -200 109 -200 c 1,51,-1
 50 -199 l 1,52,-1
 50 -141 l 1,0,-1
EndSplineSet
Substitution2: "'rtla' Right to Left Alternates in CJK Ideographic lookup 0 subtable" braceleft
EndChar
StartChar: asciitilde
Encoding: 126 126 97
Width: 500
Flags: W
LayerCount: 2
Fore
SplineSet
176 648 m 1,0,1
 120 638 120 638 86 561 c 1,2,-1
 38 605 l 1,3,4
 110 726 110 726 189 726 c 0,5,6
 228 726 228 726 258 682 c 128,-1,7
 288 638 288 638 318 638 c 0,8,9
 372 638 372 638 410 721 c 1,10,-1
 462 680 l 1,11,-1
 430 638 l 2,12,13
 372 562 372 562 316 562 c 0,14,15
 278 562 278 562 242 605 c 128,-1,16
 206 648 206 648 176 648 c 1,0,1
EndSplineSet
EndChar
StartChar: exclamdown
Encoding: 161 161 99
Width: 362
Flags: W
LayerCount: 2
Fore
SplineSet
237 430 m 1,0,-1
 125 430 l 1,1,-1
 125 544 l 1,2,-1
 237 544 l 1,3,-1
 237 430 l 1,0,-1
150 332 m 1,4,-1
 212 332 l 1,5,-1
 228 -190 l 1,6,-1
 135 -190 l 1,7,-1
 150 332 l 1,4,-1
EndSplineSet
EndChar
StartChar: cent
Encoding: 162 162 100
Width: 520
Flags: W
LayerCount: 2
Fore
SplineSet
454 138 m 1,0,-1
 475 82 l 1,1,2
 414 19 414 19 332 19 c 2,3,-1
 323 19 l 1,4,-1
 323 -110 l 1,5,-1
 259 -110 l 1,6,-1
 259 27 l 1,7,8
 185 44 185 44 128 96 c 0,9,10
 45 173 45 173 45 289 c 0,11,12
 45 407 45 407 130 480 c 1,13,14
 188 532 188 532 259 547 c 1,15,-1
 259 680 l 1,16,-1
 323 680 l 1,17,-1
 323 554 l 1,18,19
 424 552 424 552 475 473 c 1,20,-1
 435 437 l 1,21,22
 392 477 392 477 331 477 c 2,23,-1
 323 477 l 1,24,-1
 323 96 l 1,25,26
 414 96 414 96 454 138 c 1,0,-1
259 104 m 1,27,-1
 259 465 l 1,28,29
 221 451 221 451 194 424 c 1,30,31
 137 370 137 370 137 294 c 0,32,33
 137 219 137 219 190 151 c 0,34,35
 215 118 215 118 259 104 c 1,27,-1
EndSplineSet
EndChar
StartChar: sterling
Encoding: 163 163 101
Width: 544
Flags: W
LayerCount: 2
Fore
SplineSet
402 192 m 1,0,-1
 495 178 l 1,1,2
 491 92 491 92 475 62 c 0,3,4
 459 31 459 31 421 10 c 0,5,6
 384 -11 384 -11 338 -11 c 2,7,-1
 328 -11 l 2,8,9
 299 -11 299 -11 240 30 c 0,10,11
 211 50 211 50 184 50 c 0,12,13
 153 50 153 50 138 43 c 0,14,15
 106 30 106 30 90 -11 c 1,16,-1
 57 -11 l 1,17,-1
 57 80 l 1,18,19
 59 79 59 79 67 79 c 0,20,21
 74 79 74 79 76 80 c 0,22,23
 150 145 150 145 153 214 c 0,24,25
 154 226 154 226 154 276 c 0,26,27
 154 310 154 310 148 334 c 1,28,-1
 40 334 l 1,29,-1
 40 400 l 1,30,-1
 127 400 l 1,31,32
 106 521 106 521 100 537 c 1,33,34
 93 551 93 551 93 573 c 0,35,36
 93 638 93 638 136 681 c 0,37,38
 155 700 155 700 191 710 c 0,39,40
 224 720 224 720 259 720 c 0,41,42
 370 720 370 720 444 683 c 1,43,-1
 410 599 l 1,44,45
 338 647 338 647 262 647 c 0,46,47
 187 647 187 647 185 585 c 1,48,-1
 185 579 l 2,49,50
 185 506 185 506 215 400 c 1,51,-1
 380 400 l 1,52,-1
 380 334 l 1,53,-1
 228 334 l 1,54,55
 233 304 233 304 233 273 c 0,56,57
 233 236 233 236 218 195 c 1,58,59
 199 148 199 148 181 125 c 1,60,61
 198 131 198 131 214 131 c 0,62,63
 229 131 229 131 242 124 c 0,64,65
 327 75 327 75 340 71 c 0,66,67
 361 63 361 63 372 63 c 0,68,69
 406 63 406 63 406 114 c 2,70,-1
 406 126 l 1,71,-1
 402 192 l 1,0,-1
EndSplineSet
EndChar
StartChar: currency
Encoding: 164 164 102
Width: 637
Flags: W
LayerCount: 2
Fore
SplineSet
52 141 m 1,0,-1
 136 225 l 1,1,2
 96 280 96 280 96 353 c 0,3,4
 96 421 96 421 134 477 c 1,5,-1
 52 559 l 1,6,-1
 110 617 l 1,7,-1
 191 536 l 1,8,9
 248 578 248 578 321 578 c 0,10,11
 395 578 395 578 450 538 c 1,12,-1
 528 617 l 1,13,-1
 586 559 l 1,14,-1
 507 481 l 1,15,16
 547 426 547 426 547 352 c 0,17,18
 547 279 547 279 505 222 c 1,19,-1
 586 141 l 1,20,-1
 528 83 l 1,21,-1
 446 165 l 1,22,23
 390 127 390 127 322 127 c 0,24,25
 249 127 249 127 194 167 c 1,26,-1
 110 83 l 1,27,-1
 52 141 l 1,0,-1
322 501 m 0,28,29
 260 501 260 501 217 458 c 0,30,31
 173 414 173 414 173 353 c 128,-1,32
 173 292 173 292 217 248 c 128,-1,33
 261 204 261 204 322 204 c 128,-1,34
 383 204 383 204 427 248 c 128,-1,35
 471 292 471 292 471 352 c 0,36,37
 471 413 471 413 427 457 c 128,-1,38
 383 501 383 501 322 501 c 0,28,29
EndSplineSet
EndChar
StartChar: yen
Encoding: 165 165 103
Width: 703
Flags: W
LayerCount: 2
Fore
SplineSet
393 140 m 1,0,-1
 393 -3 l 1,1,-1
 310 -3 l 1,2,-1
 310 140 l 1,3,-1
 134 140 l 1,4,-1
 134 217 l 1,5,-1
 310 217 l 1,6,-1
 310 286 l 1,7,-1
 134 286 l 1,8,-1
 134 362 l 1,9,-1
 310 362 l 1,10,-1
 61 725 l 1,11,-1
 161 725 l 1,12,-1
 351 428 l 1,13,-1
 543 725 l 1,14,-1
 643 725 l 1,15,-1
 393 362 l 1,16,-1
 570 362 l 1,17,-1
 570 286 l 1,18,-1
 393 286 l 1,19,-1
 393 217 l 1,20,-1
 570 217 l 1,21,-1
 570 140 l 1,22,-1
 393 140 l 1,0,-1
EndSplineSet
EndChar
StartChar: brokenbar
Encoding: 166 166 104
Width: 193
Flags: W
LayerCount: 2
Fore
SplineSet
129 405 m 1,0,-1
 65 405 l 1,1,-1
 65 800 l 1,2,-1
 129 800 l 1,3,-1
 129 405 l 1,0,-1
129 -130 m 1,4,-1
 65 -130 l 1,5,-1
 65 265 l 1,6,-1
 129 265 l 1,7,-1
 129 -130 l 1,4,-1
EndSplineSet
EndChar
StartChar: section
Encoding: 167 167 105
Width: 534
Flags: W
LayerCount: 2
Fore
SplineSet
234 -94 m 2,0,-1
 237 -94 l 2,1,2
 403 -94 403 -94 403 -10 c 2,3,-1
 403 -5 l 2,4,5
 403 26 403 26 327 60 c 0,6,7
 277 82 277 82 273 83 c 0,8,9
 250 90 250 90 216 105 c 0,10,11
 174 123 174 123 150 141 c 2,12,-1
 114 168 l 2,13,14
 54 213 54 213 54 266 c 0,15,16
 54 321 54 321 94 364 c 1,17,18
 133 409 133 409 182 425 c 1,19,20
 40 471 40 471 40 570 c 0,21,22
 40 624 40 624 76 660 c 0,23,24
 139 724 139 724 257 724 c 128,-1,25
 375 724 375 724 470 656 c 1,26,-1
 429 608 l 1,27,28
 370 649 370 649 283 649 c 0,29,30
 132 649 132 649 132 566 c 0,31,32
 132 523 132 523 206 488 c 1,33,34
 252 468 252 468 264 465 c 0,35,36
 290 457 290 457 293 455 c 2,37,-1
 350 426 l 2,38,39
 480 360 480 360 480 286 c 0,40,41
 480 230 480 230 444 186 c 1,42,43
 407 143 407 143 355 123 c 1,44,45
 495 78 495 78 495 -8 c 2,46,-1
 495 -10 l 2,47,48
 495 -64 495 -64 460 -102 c 1,49,50
 396 -168 396 -168 267 -168 c 0,51,52
 137 -168 137 -168 42 -106 c 1,53,-1
 70 -54 l 1,54,55
 86 -62 86 -62 139 -78 c 1,56,57
 187 -94 187 -94 234 -94 c 2,0,-1
309 365 m 1,58,59
 289 375 289 375 247 375 c 0,60,61
 206 375 206 375 175 342 c 0,62,63
 143 307 143 307 143 263 c 128,-1,64
 143 219 143 219 226 183 c 1,65,66
 246 173 246 173 289 173 c 0,67,68
 328 173 328 173 361 206 c 1,69,70
 393 241 393 241 393 285 c 0,71,72
 393 330 393 330 309 365 c 1,58,59
EndSplineSet
EndChar
StartChar: dieresis
Encoding: 168 168 106
Width: 401
Flags: W
LayerCount: 2
Fore
SplineSet
151 626 m 1,0,-1
 60 626 l 1,1,-1
 60 720 l 1,2,-1
 151 720 l 1,3,-1
 151 626 l 1,0,-1
342 626 m 1,4,-1
 251 626 l 1,5,-1
 251 720 l 1,6,-1
 342 720 l 1,7,-1
 342 626 l 1,4,-1
EndSplineSet
EndChar
StartChar: copyright
Encoding: 169 169 107
Width: 747
Flags: W
LayerCount: 2
Fore
SplineSet
35 363 m 0,0,1
 35 457 35 457 81 533 c 1,2,3
 127 611 127 611 204 657 c 1,4,5
 282 702 282 702 374 702 c 128,-1,6
 466 702 466 702 544 657 c 0,7,8
 622 611 622 611 668 533 c 0,9,10
 713 455 713 455 713 363 c 0,11,12
 713 270 713 270 668 192 c 1,13,14
 622 115 622 115 544 69 c 1,15,16
 468 23 468 23 374 23 c 128,-1,17
 280 23 280 23 204 69 c 1,18,19
 126 114 126 114 81 192 c 1,20,21
 35 268 35 268 35 363 c 0,0,1
85 362 m 128,-1,23
 85 242 85 242 170 158 c 1,24,25
 254 73 254 73 374 73 c 128,-1,26
 494 73 494 73 579 158 c 1,27,28
 663 244 663 244 663 362 c 1,29,-1
 664 362 l 1,30,31
 663 480 663 480 579 567 c 1,32,33
 494 652 494 652 374 652 c 128,-1,34
 254 652 254 652 170 567 c 0,35,22
 85 482 85 482 85 362 c 128,-1,23
402 231 m 0,36,37
 465 231 465 231 515 269 c 1,38,-1
 520 204 l 1,39,40
 456 155 456 155 395 155 c 0,41,42
 176 155 176 155 176 362 c 0,43,44
 176 563 176 563 394 563 c 0,45,46
 459 563 459 563 515 510 c 1,47,-1
 510 444 l 1,48,49
 478 488 478 488 406 489 c 1,50,51
 268 489 268 489 268 362 c 0,52,53
 268 231 268 231 402 231 c 0,36,37
EndSplineSet
EndChar
StartChar: ordfeminine
Encoding: 170 170 108
Width: 379
Flags: W
LayerCount: 2
Fore
SplineSet
95 636 m 1,0,-1
 47 654 l 1,1,2
 87 730 87 730 190 730 c 2,3,-1
 191 730 l 2,4,5
 329 730 329 730 329 605 c 2,6,-1
 329 470 l 2,7,8
 329 410 329 410 345 385 c 1,9,-1
 270 385 l 1,10,-1
 254 422 l 1,11,12
 221 380 221 380 165 380 c 128,-1,13
 109 380 109 380 76 413 c 1,14,15
 43 444 43 444 43 491 c 0,16,17
 43 566 43 566 124 605 c 1,18,19
 180 630 180 630 254 630 c 1,20,21
 254 667 254 667 193 667 c 0,22,23
 144 667 144 667 95 636 c 1,0,-1
172 449 m 0,24,25
 254 449 254 449 254 518 c 2,26,-1
 254 573 l 1,27,28
 121 557 121 557 121 493 c 0,29,30
 121 449 121 449 172 449 c 0,24,25
334 260 m 1,31,-1
 38 260 l 1,32,-1
 38 315 l 1,33,-1
 334 315 l 1,34,-1
 334 260 l 1,31,-1
EndSplineSet
EndChar
StartChar: guillemotleft
Encoding: 171 171 109
Width: 584
Flags: W
LayerCount: 2
Fore
SplineSet
80 252 m 1,0,-1
 80 337 l 1,1,-1
 316 508 l 1,2,-1
 316 408 l 1,3,-1
 157 295 l 1,4,-1
 316 182 l 1,5,-1
 316 82 l 1,6,-1
 80 252 l 1,0,-1
305 252 m 1,7,-1
 305 337 l 1,8,-1
 540 508 l 1,9,-1
 540 408 l 1,10,-1
 381 295 l 1,11,-1
 540 182 l 1,12,-1
 540 82 l 1,13,-1
 305 252 l 1,7,-1
EndSplineSet
EndChar
StartChar: uni00AD
Encoding: 173 173 111
Width: 379
Flags: W
LayerCount: 2
Fore
SplineSet
40 245 m 1,0,-1
 40 327 l 1,1,-1
 340 327 l 1,2,-1
 340 245 l 1,3,-1
 40 245 l 1,0,-1
EndSplineSet
EndChar
StartChar: registered
Encoding: 174 174 112
Width: 747
Flags: W
LayerCount: 2
Fore
SplineSet
35 363 m 0,0,1
 35 457 35 457 81 533 c 1,2,3
 127 611 127 611 204 657 c 1,4,5
 282 702 282 702 374 702 c 128,-1,6
 466 702 466 702 544 657 c 0,7,8
 622 611 622 611 668 533 c 0,9,10
 713 455 713 455 713 363 c 0,11,12
 713 270 713 270 668 192 c 1,13,14
 622 115 622 115 544 69 c 1,15,16
 468 23 468 23 374 23 c 128,-1,17
 280 23 280 23 204 69 c 1,18,19
 126 114 126 114 81 192 c 1,20,21
 35 268 35 268 35 363 c 0,0,1
85 362 m 128,-1,23
 85 242 85 242 170 158 c 1,24,25
 254 73 254 73 374 73 c 128,-1,26
 494 73 494 73 579 158 c 1,27,28
 663 244 663 244 663 362 c 1,29,-1
 664 362 l 1,30,31
 663 480 663 480 579 567 c 1,32,33
 494 652 494 652 374 652 c 128,-1,34
 254 652 254 652 170 567 c 0,35,22
 85 482 85 482 85 362 c 128,-1,23
510 371 m 1,36,37
 488 334 488 334 439 322 c 1,38,-1
 564 153 l 1,39,-1
 461 153 l 1,40,-1
 369 316 l 1,41,-1
 324 316 l 1,42,-1
 324 148 l 1,43,-1
 244 148 l 1,44,-1
 244 567 l 1,45,-1
 371 567 l 2,46,47
 462 567 462 567 508 516 c 0,48,49
 532 489 532 489 532 446 c 2,50,-1
 532 440 l 2,51,52
 532 405 532 405 510 371 c 1,36,37
324 379 m 1,53,-1
 380 379 l 2,54,55
 449 379 449 379 449 443 c 0,56,57
 449 506 449 506 387 506 c 2,58,-1
 324 506 l 1,59,-1
 324 379 l 1,53,-1
EndSplineSet
EndChar
StartChar: macron
Encoding: 175 175 113
Width: 483
Flags: W
LayerCount: 2
Fore
SplineSet
97 698 m 1,0,-1
 97 760 l 1,1,-1
 387 760 l 1,2,-1
 387 698 l 1,3,-1
 97 698 l 1,0,-1
EndSplineSet
EndChar
StartChar: degree
Encoding: 176 176 114
Width: 361
Flags: W
LayerCount: 2
Fore
SplineSet
80 670 m 0,0,1
 80 712 80 712 109 741 c 128,-1,2
 138 770 138 770 181 770 c 128,-1,3
 224 770 224 770 253 741 c 128,-1,4
 282 712 282 712 282 670 c 0,5,6
 282 627 282 627 253 598 c 0,7,8
 224 568 224 568 181 568 c 128,-1,9
 138 568 138 568 109 598 c 0,10,11
 80 627 80 627 80 670 c 0,0,1
122 671 m 128,-1,13
 122 647 122 647 139 630 c 1,14,15
 155 612 155 612 180 612 c 0,16,17
 204 612 204 612 221 630 c 0,18,19
 238 647 238 647 238 671 c 128,-1,20
 238 695 238 695 221 712 c 128,-1,21
 204 729 204 729 180 729 c 128,-1,22
 156 729 156 729 139 712 c 128,-1,12
 122 695 122 695 122 671 c 128,-1,13
EndSplineSet
EndChar
StartChar: plusminus
Encoding: 177 177 115
Width: 539
Flags: W
LayerCount: 2
Fore
SplineSet
50 406 m 1,0,-1
 50 488 l 1,1,-1
 229 488 l 1,2,-1
 229 668 l 1,3,-1
 311 668 l 1,4,-1
 311 488 l 1,5,-1
 490 488 l 1,6,-1
 490 406 l 1,7,-1
 311 406 l 1,8,-1
 311 227 l 1,9,-1
 229 227 l 1,10,-1
 229 406 l 1,11,-1
 50 406 l 1,0,-1
50 79 m 1,12,-1
 50 161 l 1,13,-1
 490 161 l 1,14,-1
 490 79 l 1,15,-1
 50 79 l 1,12,-1
EndSplineSet
EndChar
StartChar: uni00B2
Encoding: 178 178 116
Width: 379
Flags: W
LayerCount: 2
Fore
SplineSet
104 607 m 1,0,-1
 50 609 l 1,1,2
 50 730 50 730 171 730 c 0,3,4
 262 730 262 730 297 673 c 0,5,6
 309 654 309 654 309 625 c 0,7,8
 309 575 309 575 280 549 c 1,9,10
 146 455 146 455 132 421 c 1,11,-1
 310 421 l 1,12,-1
 310 359 l 1,13,-1
 51 359 l 1,14,-1
 51 410 l 1,15,16
 65 476 65 476 167 544 c 0,17,18
 233 588 233 588 233 613 c 0,19,20
 233 672 233 672 174 672 c 2,21,-1
 173 672 l 2,22,23
 106 672 106 672 104 607 c 1,0,-1
EndSplineSet
EndChar
StartChar: uni00B3
Encoding: 179 179 117
Width: 379
Flags: W
LayerCount: 2
Fore
SplineSet
243 484 m 0,0,1
 243 534 243 534 152 534 c 2,2,-1
 114 534 l 1,3,-1
 114 583 l 1,4,-1
 151 585 l 2,5,6
 226 590 226 590 226 629 c 0,7,8
 226 653 226 653 216 663 c 128,-1,9
 206 673 206 673 166 673 c 0,10,11
 125 673 125 673 113 649 c 1,12,-1
 46 661 l 1,13,14
 76 739 76 739 167 739 c 0,15,16
 304 739 304 739 304 628 c 0,17,18
 304 589 304 589 232 565 c 1,19,20
 318 535 318 535 318 482 c 128,-1,21
 318 429 318 429 275 395 c 128,-1,22
 232 361 232 361 173 361 c 0,23,24
 58 361 58 361 40 459 c 1,25,-1
 106 468 l 1,26,27
 109 428 109 428 176 427 c 0,28,29
 243 427 243 427 243 484 c 0,0,1
EndSplineSet
EndChar
StartChar: acute
Encoding: 180 180 118
Width: 276
Flags: W
LayerCount: 2
Fore
SplineSet
247 780 m 1,0,-1
 89 654 l 1,1,-1
 30 654 l 1,2,-1
 122 780 l 1,3,-1
 247 780 l 1,0,-1
EndSplineSet
EndChar
StartChar: uni00B5
Encoding: 181 181 119
Width: 538
Flags: W
LayerCount: 2
Fore
SplineSet
143 499 m 1,0,-1
 143 252 l 2,1,2
 143 51 143 51 250 51 c 0,3,4
 396 51 396 51 396 264 c 2,5,-1
 396 499 l 1,6,-1
 489 499 l 1,7,-1
 489 -3 l 1,8,-1
 396 -3 l 1,9,-1
 396 80 l 1,10,11
 358 -15 358 -15 242 -15 c 0,12,13
 188 -15 188 -15 143 35 c 1,14,-1
 143 -185 l 1,15,-1
 50 -185 l 1,16,-1
 50 499 l 1,17,-1
 143 499 l 1,0,-1
EndSplineSet
EndChar
StartChar: paragraph
Encoding: 182 182 120
Width: 550
Flags: W
LayerCount: 2
Fore
SplineSet
290 -130 m 1,0,-1
 290 393 l 1,1,2
 129 399 129 399 84 468 c 0,3,4
 69 491 69 491 65 512 c 0,5,6
 60 537 60 537 60 562 c 0,7,8
 60 584 60 584 65 612 c 1,9,10
 77 664 77 664 130 696 c 0,11,12
 188 730 188 730 290 730 c 2,13,-1
 485 730 l 1,14,-1
 485 -130 l 1,15,-1
 420 -130 l 1,16,-1
 420 681 l 1,17,-1
 355 681 l 1,18,-1
 355 -130 l 1,19,-1
 290 -130 l 1,0,-1
EndSplineSet
EndChar
StartChar: periodcentered
Encoding: 183 183 121
Width: 550
Flags: W
LayerCount: 2
Fore
SplineSet
329 264 m 1,0,-1
 221 264 l 1,1,-1
 221 372 l 1,2,-1
 329 372 l 1,3,-1
 329 264 l 1,0,-1
EndSplineSet
EndChar
StartChar: cedilla
Encoding: 184 184 122
Width: 302
Flags: W
LayerCount: 2
Fore
SplineSet
53 -166 m 1,0,-1
 103 -166 l 2,1,2
 176 -166 176 -166 176 -123 c 0,3,4
 176 -97 176 -97 141 -97 c 1,5,-1
 66 -102 l 1,6,-1
 101 0 l 1,7,-1
 155 0 l 1,8,-1
 146 -51 l 1,9,10
 242 -51 242 -51 242 -110 c 0,11,12
 242 -216 242 -216 90 -216 c 2,13,-1
 45 -216 l 1,14,-1
 53 -166 l 1,0,-1
EndSplineSet
EndChar
StartChar: uni00B9
Encoding: 185 185 123
Width: 379
Flags: W
LayerCount: 2
Fore
SplineSet
92 666 m 1,0,-1
 104 666 l 2,1,2
 125 666 125 666 143 668 c 0,3,4
 158 670 158 670 169 703 c 1,5,-1
 175 725 l 1,6,-1
 245 725 l 1,7,-1
 245 355 l 1,8,-1
 177 355 l 1,9,-1
 177 612 l 1,10,11
 152 601 152 601 127 601 c 2,12,-1
 92 601 l 1,13,-1
 92 666 l 1,0,-1
EndSplineSet
EndChar
StartChar: ordmasculine
Encoding: 186 186 124
Width: 379
Flags: W
LayerCount: 2
Fore
SplineSet
24 564 m 0,0,1
 24 632 24 632 72 684 c 1,2,3
 118 736 118 736 188 736 c 128,-1,4
 258 736 258 736 307 684 c 128,-1,5
 356 632 356 632 356 564 c 2,6,-1
 356 530 l 2,7,8
 356 493 356 493 307 444 c 1,9,10
 258 392 258 392 188 392 c 128,-1,11
 118 392 118 392 72 444 c 1,12,13
 24 495 24 495 24 564 c 0,0,1
121 642 m 1,14,15
 92 607 92 607 92 564 c 0,16,17
 92 520 92 520 121 485 c 1,18,19
 150 452 150 452 187 452 c 0,20,21
 225 452 225 452 255 485 c 128,-1,22
 285 518 285 518 285 564 c 0,23,24
 285 607 285 607 256 642 c 1,25,26
 226 675 226 675 188 675 c 128,-1,27
 150 675 150 675 121 642 c 1,14,15
356 260 m 1,28,-1
 24 260 l 1,29,-1
 24 315 l 1,30,-1
 356 315 l 1,31,-1
 356 260 l 1,28,-1
EndSplineSet
EndChar
StartChar: guillemotright
Encoding: 187 187 125
Width: 584
Flags: W
LayerCount: 2
Fore
SplineSet
45 508 m 1,0,-1
 280 337 l 1,1,-1
 280 252 l 1,2,-1
 45 82 l 1,3,-1
 45 182 l 1,4,-1
 204 295 l 1,5,-1
 45 408 l 1,6,-1
 45 508 l 1,0,-1
269 508 m 1,7,-1
 505 337 l 1,8,-1
 505 252 l 1,9,-1
 269 82 l 1,10,-1
 269 182 l 1,11,-1
 428 295 l 1,12,-1
 269 408 l 1,13,-1
 269 508 l 1,7,-1
EndSplineSet
EndChar
StartChar: onequarter
Encoding: 188 188 126
Width: 739
Flags: W
LayerCount: 2
Fore
SplineSet
60 0 m 1,0,-1
 586 735 l 1,1,-1
 660 735 l 1,2,-1
 134 0 l 1,3,-1
 60 0 l 1,0,-1
50 671 m 1,4,-1
 62 671 l 2,5,6
 83 671 83 671 101 673 c 0,7,8
 116 675 116 675 124 699 c 2,9,-1
 127 708 l 1,10,-1
 133 730 l 1,11,-1
 203 730 l 1,12,-1
 203 360 l 1,13,-1
 135 360 l 1,14,-1
 135 617 l 1,15,16
 110 606 110 606 85 606 c 2,17,-1
 50 606 l 1,18,-1
 50 671 l 1,4,-1
568 83 m 1,19,-1
 397 83 l 1,20,-1
 561 384 l 1,21,-1
 637 384 l 1,22,-1
 637 133 l 1,23,-1
 690 133 l 1,24,-1
 690 83 l 1,25,-1
 637 83 l 1,26,-1
 637 0 l 1,27,-1
 568 0 l 1,28,-1
 568 83 l 1,19,-1
482 133 m 1,29,-1
 568 133 l 1,30,-1
 568 290 l 1,31,-1
 482 133 l 1,29,-1
EndSplineSet
EndChar
StartChar: onehalf
Encoding: 189 189 127
Width: 739
Flags: W
LayerCount: 2
Fore
SplineSet
60 0 m 1,0,-1
 586 735 l 1,1,-1
 660 735 l 1,2,-1
 134 0 l 1,3,-1
 60 0 l 1,0,-1
50 671 m 1,4,-1
 62 671 l 2,5,6
 83 671 83 671 101 673 c 0,7,8
 118 675 118 675 133 730 c 1,9,-1
 203 730 l 1,10,-1
 203 360 l 1,11,-1
 135 360 l 1,12,-1
 135 617 l 1,13,14
 110 606 110 606 85 606 c 2,15,-1
 50 606 l 1,16,-1
 50 671 l 1,4,-1
487 250 m 1,17,-1
 433 252 l 1,18,19
 433 373 433 373 554 373 c 0,20,21
 646 373 646 373 680 316 c 0,22,23
 692 296 692 296 692 268 c 0,24,25
 692 218 692 218 663 192 c 1,26,27
 529 98 529 98 515 64 c 1,28,-1
 693 64 l 1,29,-1
 693 2 l 1,30,-1
 434 2 l 1,31,-1
 434 53 l 1,32,33
 448 119 448 119 550 187 c 0,34,35
 616 232 616 232 616 256 c 0,36,37
 616 315 616 315 557 315 c 2,38,-1
 556 315 l 2,39,40
 489 315 489 315 487 250 c 1,17,-1
EndSplineSet
EndChar
StartChar: threequarters
Encoding: 190 190 128
Width: 739
Flags: W
LayerCount: 2
Fore
SplineSet
224 479 m 0,0,1
 224 529 224 529 133 529 c 2,2,-1
 95 529 l 1,3,-1
 95 578 l 1,4,-1
 132 580 l 2,5,6
 207 584 207 584 207 629 c 0,7,8
 207 653 207 653 197 663 c 128,-1,9
 187 673 187 673 147 673 c 0,10,11
 106 673 106 673 94 649 c 1,12,-1
 27 661 l 1,13,14
 57 739 57 739 148 739 c 0,15,16
 285 739 285 739 285 628 c 0,17,18
 285 584 285 584 213 560 c 1,19,20
 299 530 299 530 299 472 c 128,-1,21
 299 414 299 414 256 380 c 128,-1,22
 213 346 213 346 154 346 c 0,23,24
 39 346 39 346 21 444 c 1,25,-1
 87 453 l 1,26,27
 90 412 90 412 157 412 c 0,28,29
 223 412 223 412 224 479 c 0,0,1
74 0 m 1,30,-1
 600 735 l 1,31,-1
 674 735 l 1,32,-1
 148 0 l 1,33,-1
 74 0 l 1,30,-1
568 83 m 1,34,-1
 397 83 l 1,35,-1
 561 384 l 1,36,-1
 637 384 l 1,37,-1
 637 133 l 1,38,-1
 690 133 l 1,39,-1
 690 83 l 1,40,-1
 637 83 l 1,41,-1
 637 0 l 1,42,-1
 568 0 l 1,43,-1
 568 83 l 1,34,-1
482 133 m 1,44,-1
 568 133 l 1,45,-1
 568 290 l 1,46,-1
 482 133 l 1,44,-1
EndSplineSet
EndChar
StartChar: questiondown
Encoding: 191 191 129
Width: 555
Flags: W
LayerCount: 2
Fore
SplineSet
280 452 m 1,0,-1
 280 555 l 1,1,-1
 383 555 l 1,2,-1
 383 452 l 1,3,-1
 280 452 l 1,0,-1
165 11 m 0,4,5
 165 -91 165 -91 303 -91 c 0,6,7
 440 -91 440 -91 474 -6 c 1,8,-1
 534 -43 l 1,9,10
 470 -173 470 -173 295 -173 c 1,11,12
 163 -171 163 -171 89 -63 c 0,13,14
 68 -32 68 -32 68 7 c 2,15,-1
 68 17 l 2,16,17
 68 79 68 79 130 124 c 0,18,19
 192 168 192 168 246 209 c 1,20,21
 269 229 269 229 279 243 c 0,22,23
 290 260 290 260 290 291 c 2,24,-1
 290 374 l 1,25,-1
 373 374 l 1,26,-1
 373 291 l 2,27,28
 373 210 373 210 299 148 c 1,29,30
 282 132 282 132 237 104 c 0,31,32
 165 60 165 60 165 11 c 0,4,5
EndSplineSet
EndChar
StartChar: Aacute
Encoding: 193 193 131
Width: 735
Flags: W
LayerCount: 2
Fore
SplineSet
565 920 m 1,0,-1
 387 794 l 1,1,-1
 308 794 l 1,2,-1
 420 920 l 1,3,-1
 565 920 l 1,0,-1
584 -3 m 1,4,-1
 516 188 l 1,5,-1
 216 188 l 1,6,-1
 148 -3 l 1,7,-1
 40 -3 l 1,8,-1
 328 725 l 1,9,-1
 418 725 l 1,10,-1
 695 -3 l 1,11,-1
 584 -3 l 1,4,-1
240 276 m 1,12,-1
 489 276 l 1,13,-1
 376 625 l 1,14,-1
 240 276 l 1,12,-1
EndSplineSet
EndChar
StartChar: Acircumflex
Encoding: 194 194 132
Width: 735
Flags: W
LayerCount: 2
Fore
SplineSet
473 779 m 1,0,-1
 393 872 l 1,1,-1
 343 872 l 1,2,-1
 265 779 l 1,3,-1
 191 779 l 1,4,-1
 319 950 l 1,5,-1
 417 950 l 1,6,-1
 545 779 l 1,7,-1
 473 779 l 1,0,-1
584 -3 m 1,8,-1
 516 188 l 1,9,-1
 216 188 l 1,10,-1
 148 -3 l 1,11,-1
 40 -3 l 1,12,-1
 328 725 l 1,13,-1
 418 725 l 1,14,-1
 695 -3 l 1,15,-1
 584 -3 l 1,8,-1
240 276 m 1,16,-1
 489 276 l 1,17,-1
 376 625 l 1,18,-1
 240 276 l 1,16,-1
EndSplineSet
EndChar
StartChar: Atilde
Encoding: 195 195 133
Width: 735
Flags: W
LayerCount: 2
Fore
SplineSet
301 863 m 0,0,1
 247 863 247 863 221 789 c 1,2,-1
 169 789 l 1,3,4
 180 932 180 932 309 935 c 0,5,6
 340 935 340 935 373 899 c 1,7,8
 405 861 405 861 427 861 c 0,9,10
 482 861 482 861 508 930 c 1,11,-1
 559 930 l 1,12,13
 548 791 548 791 425 790 c 0,14,15
 389 790 389 790 356 827 c 1,16,17
 322 863 322 863 301 863 c 0,0,1
584 -3 m 1,18,-1
 516 188 l 1,19,-1
 216 188 l 1,20,-1
 148 -3 l 1,21,-1
 40 -3 l 1,22,-1
 328 725 l 1,23,-1
 418 725 l 1,24,-1
 695 -3 l 1,25,-1
 584 -3 l 1,18,-1
240 276 m 1,26,-1
 489 276 l 1,27,-1
 376 625 l 1,28,-1
 240 276 l 1,26,-1
EndSplineSet
EndChar
StartChar: Adieresis
Encoding: 196 196 134
Width: 735
Flags: W
LayerCount: 2
Fore
SplineSet
323 801 m 1,0,-1
 222 801 l 1,1,-1
 222 905 l 1,2,-1
 323 905 l 1,3,-1
 323 801 l 1,0,-1
514 801 m 1,4,-1
 413 801 l 1,5,-1
 413 905 l 1,6,-1
 514 905 l 1,7,-1
 514 801 l 1,4,-1
584 -3 m 1,8,-1
 516 188 l 1,9,-1
 216 188 l 1,10,-1
 148 -3 l 1,11,-1
 40 -3 l 1,12,-1
 328 725 l 1,13,-1
 418 725 l 1,14,-1
 695 -3 l 1,15,-1
 584 -3 l 1,8,-1
240 276 m 1,16,-1
 489 276 l 1,17,-1
 376 625 l 1,18,-1
 240 276 l 1,16,-1
EndSplineSet
EndChar
StartChar: Aring
Encoding: 197 197 135
Width: 735
Flags: W
LayerCount: 2
Fore
SplineSet
270 850 m 0,0,1
 270 892 270 892 299 921 c 128,-1,2
 328 950 328 950 371 950 c 128,-1,3
 414 950 414 950 443 921 c 128,-1,4
 472 892 472 892 472 850 c 0,5,6
 472 807 472 807 443 778 c 0,7,8
 414 748 414 748 371 748 c 128,-1,9
 328 748 328 748 299 778 c 0,10,11
 270 807 270 807 270 850 c 0,0,1
312 851 m 128,-1,13
 312 827 312 827 329 810 c 1,14,15
 345 792 345 792 370 792 c 0,16,17
 394 792 394 792 411 810 c 0,18,19
 428 827 428 827 428 851 c 128,-1,20
 428 875 428 875 411 892 c 128,-1,21
 394 909 394 909 370 909 c 128,-1,22
 346 909 346 909 329 892 c 128,-1,12
 312 875 312 875 312 851 c 128,-1,13
584 -3 m 1,23,-1
 516 188 l 1,24,-1
 216 188 l 1,25,-1
 148 -3 l 1,26,-1
 40 -3 l 1,27,-1
 328 725 l 1,28,-1
 418 725 l 1,29,-1
 695 -3 l 1,30,-1
 584 -3 l 1,23,-1
240 276 m 1,31,-1
 489 276 l 1,32,-1
 376 625 l 1,33,-1
 240 276 l 1,31,-1
EndSplineSet
EndChar
StartChar: AE
Encoding: 198 198 136
Width: 865
Flags: W
LayerCount: 2
Fore
SplineSet
767 350 m 1,0,-1
 525 350 l 1,1,-1
 525 73 l 1,2,-1
 825 73 l 1,3,-1
 825 0 l 1,4,-1
 438 0 l 1,5,-1
 438 188 l 1,6,-1
 226 188 l 1,7,-1
 137 -3 l 1,8,-1
 30 -3 l 1,9,-1
 379 725 l 1,10,-1
 813 725 l 1,11,-1
 813 652 l 1,12,-1
 525 652 l 1,13,-1
 525 423 l 1,14,-1
 767 423 l 1,15,-1
 767 350 l 1,0,-1
438 270 m 1,16,-1
 438 647 l 1,17,-1
 263 270 l 1,18,-1
 438 270 l 1,16,-1
EndSplineSet
EndChar
StartChar: Ccedilla
Encoding: 199 199 137
Width: 640
Flags: W
LayerCount: 2
Fore
SplineSet
380 -8 m 1,0,-1
 372 -51 l 1,1,2
 468 -51 468 -51 468 -110 c 0,3,4
 468 -216 468 -216 316 -216 c 2,5,-1
 271 -216 l 1,6,-1
 279 -166 l 1,7,-1
 329 -166 l 2,8,9
 402 -166 402 -166 402 -123 c 0,10,11
 402 -97 402 -97 367 -97 c 1,12,-1
 292 -102 l 1,13,-1
 327 -1 l 1,14,15
 111 38 111 38 60 249 c 1,16,17
 50 296 50 296 50 369 c 0,18,19
 50 438 50 438 65 496 c 1,20,21
 158 729 158 729 411 729 c 2,22,-1
 413 729 l 2,23,24
 533 729 533 729 614 643 c 1,25,-1
 604 560 l 1,26,27
 553 641 553 641 417 641 c 0,28,29
 150 641 150 641 150 364 c 0,30,31
 150 73 150 73 405 73 c 0,32,33
 513 73 513 73 610 149 c 1,34,-1
 620 66 l 1,35,36
 532 -10 532 -10 432 -10 c 0,37,38
 422 -10 422 -10 380 -8 c 1,0,-1
EndSplineSet
EndChar
StartChar: Egrave
Encoding: 200 200 138
Width: 630
Flags: W
LayerCount: 2
Fore
SplineSet
146 920 m 1,0,-1
 291 920 l 1,1,-1
 403 794 l 1,2,-1
 324 794 l 1,3,-1
 146 920 l 1,0,-1
80 720 m 1,4,-1
 579 720 l 1,5,-1
 579 642 l 1,6,-1
 175 642 l 1,7,-1
 175 423 l 1,8,-1
 507 423 l 1,9,-1
 507 345 l 1,10,-1
 175 345 l 1,11,-1
 175 78 l 1,12,-1
 590 78 l 1,13,-1
 590 0 l 1,14,-1
 80 0 l 1,15,-1
 80 720 l 1,4,-1
EndSplineSet
EndChar
StartChar: Ecircumflex
Encoding: 202 202 140
Width: 630
Flags: W
LayerCount: 2
Fore
SplineSet
435 779 m 1,0,-1
 355 872 l 1,1,-1
 305 872 l 1,2,-1
 227 779 l 1,3,-1
 153 779 l 1,4,-1
 281 950 l 1,5,-1
 379 950 l 1,6,-1
 507 779 l 1,7,-1
 435 779 l 1,0,-1
80 720 m 1,8,-1
 579 720 l 1,9,-1
 579 642 l 1,10,-1
 175 642 l 1,11,-1
 175 423 l 1,12,-1
 507 423 l 1,13,-1
 507 345 l 1,14,-1
 175 345 l 1,15,-1
 175 78 l 1,16,-1
 590 78 l 1,17,-1
 590 0 l 1,18,-1
 80 0 l 1,19,-1
 80 720 l 1,8,-1
EndSplineSet
EndChar
StartChar: Edieresis
Encoding: 203 203 141
Width: 630
Flags: W
LayerCount: 2
Fore
SplineSet
279 801 m 1,0,-1
 178 801 l 1,1,-1
 178 905 l 1,2,-1
 279 905 l 1,3,-1
 279 801 l 1,0,-1
470 801 m 1,4,-1
 369 801 l 1,5,-1
 369 905 l 1,6,-1
 470 905 l 1,7,-1
 470 801 l 1,4,-1
80 720 m 1,8,-1
 579 720 l 1,9,-1
 579 642 l 1,10,-1
 175 642 l 1,11,-1
 175 423 l 1,12,-1
 507 423 l 1,13,-1
 507 345 l 1,14,-1
 175 345 l 1,15,-1
 175 78 l 1,16,-1
 590 78 l 1,17,-1
 590 0 l 1,18,-1
 80 0 l 1,19,-1
 80 720 l 1,8,-1
EndSplineSet
EndChar
StartChar: Igrave
Encoding: 204 204 142
Width: 289
Flags: W
LayerCount: 2
Fore
SplineSet
-28 920 m 1,0,-1
 117 920 l 1,1,-1
 229 794 l 1,2,-1
 150 794 l 1,3,-1
 -28 920 l 1,0,-1
100 -6 m 1,4,-1
 100 731 l 1,5,-1
 190 731 l 1,6,-1
 190 -6 l 1,7,-1
 100 -6 l 1,4,-1
EndSplineSet
EndChar
StartChar: Iacute
Encoding: 205 205 143
Width: 289
Flags: W
LayerCount: 2
Fore
SplineSet
317 920 m 1,0,-1
 139 794 l 1,1,-1
 60 794 l 1,2,-1
 172 920 l 1,3,-1
 317 920 l 1,0,-1
100 -6 m 1,4,-1
 100 731 l 1,5,-1
 190 731 l 1,6,-1
 190 -6 l 1,7,-1
 100 -6 l 1,4,-1
EndSplineSet
EndChar
StartChar: Icircumflex
Encoding: 206 206 144
Width: 289
Flags: W
LayerCount: 2
Fore
SplineSet
246 779 m 1,0,-1
 166 872 l 1,1,-1
 116 872 l 1,2,-1
 38 779 l 1,3,-1
 -36 779 l 1,4,-1
 92 950 l 1,5,-1
 190 950 l 1,6,-1
 318 779 l 1,7,-1
 246 779 l 1,0,-1
100 -6 m 1,8,-1
 100 731 l 1,9,-1
 190 731 l 1,10,-1
 190 -6 l 1,11,-1
 100 -6 l 1,8,-1
EndSplineSet
EndChar
StartChar: Idieresis
Encoding: 207 207 145
Width: 310
Flags: W
LayerCount: 2
Fore
SplineSet
110 801 m 1,0,-1
 9 801 l 1,1,-1
 9 905 l 1,2,-1
 110 905 l 1,3,-1
 110 801 l 1,0,-1
301 801 m 1,4,-1
 200 801 l 1,5,-1
 200 905 l 1,6,-1
 301 905 l 1,7,-1
 301 801 l 1,4,-1
114 -6 m 1,8,-1
 114 731 l 1,9,-1
 204 731 l 1,10,-1
 204 -6 l 1,11,-1
 114 -6 l 1,8,-1
EndSplineSet
EndChar
StartChar: Eth
Encoding: 208 208 146
Width: 678
Flags: W
LayerCount: 2
Fore
SplineSet
517 646 m 0,0,1
 573 602 573 602 606 530 c 0,2,3
 639 456 639 456 639 367 c 0,4,5
 639 200 639 200 529 90 c 0,6,7
 439 0 439 0 277 0 c 2,8,-1
 100 0 l 1,9,-1
 100 336 l 1,10,-1
 10 336 l 1,11,-1
 10 398 l 1,12,-1
 100 398 l 1,13,-1
 100 725 l 1,14,-1
 290 725 l 2,15,16
 417 725 417 725 517 646 c 0,0,1
183 79 m 1,17,-1
 232 79 l 2,18,19
 278 79 278 79 293 80 c 0,20,21
 397 82 397 82 469 149 c 128,-1,22
 541 216 541 216 541 367 c 0,23,24
 541 430 541 430 526 480 c 1,25,26
 510 529 510 529 487 559 c 1,27,28
 466 589 466 589 433 609 c 128,-1,29
 400 629 400 629 370 637 c 1,30,31
 333 645 333 645 290 645 c 2,32,-1
 183 645 l 1,33,-1
 183 398 l 1,34,-1
 378 398 l 1,35,-1
 378 336 l 1,36,-1
 183 336 l 1,37,-1
 183 79 l 1,17,-1
EndSplineSet
EndChar
StartChar: Ntilde
Encoding: 209 209 147
Width: 770
Flags: W
LayerCount: 2
Fore
SplineSet
321 863 m 0,0,1
 267 863 267 863 241 789 c 1,2,-1
 189 789 l 1,3,4
 200 932 200 932 329 935 c 0,5,6
 360 935 360 935 393 899 c 1,7,8
 425 861 425 861 447 861 c 0,9,10
 502 861 502 861 528 930 c 1,11,-1
 579 930 l 1,12,13
 568 791 568 791 445 790 c 0,14,15
 409 790 409 790 376 827 c 1,16,17
 341 863 341 863 321 863 c 0,0,1
710 0 m 1,18,-1
 618 0 l 1,19,-1
 152 575 l 1,20,-1
 152 -3 l 1,21,-1
 60 -3 l 1,22,-1
 60 725 l 1,23,-1
 145 725 l 1,24,-1
 615 146 l 1,25,-1
 615 725 l 1,26,-1
 710 725 l 1,27,-1
 710 0 l 1,18,-1
EndSplineSet
EndChar
StartChar: Ograve
Encoding: 210 210 148
Width: 753
Flags: W
LayerCount: 2
Fore
SplineSet
227 920 m 1,0,-1
 372 920 l 1,1,-1
 484 794 l 1,2,-1
 405 794 l 1,3,-1
 227 920 l 1,0,-1
82 170 m 0,4,5
 35 256 35 256 35 360 c 0,6,7
 35 463 35 463 82 552 c 0,8,9
 129 639 129 639 207 692 c 0,10,11
 284 745 284 745 377 745 c 128,-1,12
 470 745 470 745 547 695 c 128,-1,13
 624 645 624 645 672 558 c 1,14,15
 719 469 719 469 719 362 c 0,16,17
 719 253 719 253 672 167 c 1,18,19
 622 80 622 80 547 31 c 1,20,21
 471 -20 471 -20 377 -20 c 128,-1,22
 283 -20 283 -20 207 32 c 1,23,24
 129 83 129 83 82 170 c 0,4,5
381 668 m 1,25,-1
 380 668 l 2,26,27
 278 668 278 668 210 579 c 0,28,29
 141 489 141 489 141 360 c 0,30,31
 141 230 141 230 207 144 c 0,32,33
 272 58 272 58 375 58 c 0,34,35
 479 58 479 58 546 143 c 1,36,37
 613 225 613 225 613 362 c 0,38,39
 613 497 613 497 549 582 c 0,40,41
 484 667 484 667 381 668 c 1,25,-1
EndSplineSet
EndChar
StartChar: Otilde
Encoding: 213 213 151
Width: 753
Flags: W
LayerCount: 2
Fore
SplineSet
319 873 m 0,0,1
 265 873 265 873 239 799 c 1,2,-1
 187 799 l 1,3,4
 198 942 198 942 327 945 c 0,5,6
 358 945 358 945 391 909 c 1,7,8
 423 871 423 871 445 871 c 0,9,10
 500 871 500 871 526 940 c 1,11,-1
 577 940 l 1,12,13
 566 801 566 801 443 800 c 0,14,15
 407 800 407 800 374 837 c 1,16,17
 340 873 340 873 319 873 c 0,0,1
82 170 m 0,18,19
 35 256 35 256 35 360 c 0,20,21
 35 463 35 463 82 552 c 0,22,23
 129 639 129 639 207 692 c 0,24,25
 284 745 284 745 377 745 c 128,-1,26
 470 745 470 745 547 695 c 128,-1,27
 624 645 624 645 672 558 c 1,28,29
 719 469 719 469 719 362 c 0,30,31
 719 253 719 253 672 167 c 1,32,33
 622 80 622 80 547 31 c 1,34,35
 471 -20 471 -20 377 -20 c 128,-1,36
 283 -20 283 -20 207 32 c 1,37,38
 129 83 129 83 82 170 c 0,18,19
381 668 m 1,39,-1
 380 668 l 2,40,41
 278 668 278 668 210 579 c 0,42,43
 141 489 141 489 141 360 c 0,44,45
 141 230 141 230 207 144 c 0,46,47
 272 58 272 58 375 58 c 0,48,49
 479 58 479 58 546 143 c 1,50,51
 613 225 613 225 613 362 c 0,52,53
 613 497 613 497 549 582 c 0,54,55
 484 667 484 667 381 668 c 1,39,-1
EndSplineSet
EndChar
StartChar: multiply
Encoding: 215 215 153
Width: 475
Flags: W
LayerCount: 2
Fore
SplineSet
178 352 m 1,0,-1
 30 501 l 1,1,-1
 89 560 l 1,2,-1
 238 412 l 1,3,-1
 386 560 l 1,4,-1
 445 501 l 1,5,-1
 296 352 l 1,6,-1
 445 204 l 1,7,-1
 386 145 l 1,8,-1
 238 294 l 1,9,-1
 89 145 l 1,10,-1
 30 204 l 1,11,-1
 178 352 l 1,0,-1
EndSplineSet
EndChar
StartChar: Oslash
Encoding: 216 216 154
Width: 753
Flags: W
LayerCount: 2
Fore
SplineSet
35 -23 m 1,0,-1
 130 100 l 1,1,2
 35 213 35 213 35 360 c 0,3,4
 35 463 35 463 82 552 c 0,5,6
 129 639 129 639 207 692 c 0,7,8
 284 745 284 745 385 745 c 128,-1,9
 486 745 486 745 573 676 c 1,10,-1
 626 745 l 1,11,-1
 719 745 l 1,12,-1
 626 625 l 1,13,14
 719 514 719 514 719 362 c 0,15,16
 719 253 719 253 672 167 c 1,17,18
 622 80 622 80 547 31 c 1,19,20
 471 -20 471 -20 371 -20 c 0,21,22
 272 -20 272 -20 183 49 c 1,23,-1
 128 -23 l 1,24,-1
 35 -23 l 1,0,-1
381 668 m 1,25,-1
 380 668 l 2,26,27
 279 668 279 668 205 579 c 1,28,29
 131 487 131 487 131 369 c 0,30,31
 131 248 131 248 183 169 c 1,32,-1
 524 613 l 1,33,34
 463 667 463 667 381 668 c 1,25,-1
573 555 m 1,35,-1
 232 112 l 1,36,37
 294 58 294 58 375 58 c 0,38,39
 478 58 478 58 551 143 c 0,40,41
 623 227 623 227 623 352 c 0,42,43
 623 475 623 475 573 555 c 1,35,-1
EndSplineSet
EndChar
StartChar: Yacute
Encoding: 221 221 159
Width: 703
Flags: W
LayerCount: 2
Fore
SplineSet
510 920 m 1,0,-1
 332 794 l 1,1,-1
 253 794 l 1,2,-1
 365 920 l 1,3,-1
 510 920 l 1,0,-1
653 725 m 1,4,-1
 400 362 l 1,5,-1
 400 -3 l 1,6,-1
 303 -3 l 1,7,-1
 303 362 l 1,8,-1
 51 725 l 1,9,-1
 156 725 l 1,10,-1
 351 423 l 1,11,-1
 543 725 l 1,12,-1
 653 725 l 1,4,-1
EndSplineSet
EndChar
StartChar: Thorn
Encoding: 222 222 160
Width: 585
Flags: W
LayerCount: 2
Fore
SplineSet
546 392 m 2,0,-1
 546 382 l 2,1,2
 546 325 546 325 509 264 c 0,3,4
 459 180 459 180 316 172 c 1,5,6
 254 170 254 170 153 170 c 1,7,-1
 152 -6 l 1,8,-1
 60 -6 l 1,9,-1
 60 731 l 1,10,-1
 152 731 l 1,11,-1
 152 599 l 1,12,-1
 267 599 l 2,13,14
 312 599 312 599 321 598 c 0,15,16
 432 594 432 594 508 510 c 1,17,18
 546 466 546 466 546 392 c 2,0,-1
153 243 m 1,19,-1
 283 243 l 2,20,21
 378 243 378 243 425 305 c 0,22,23
 442 328 442 328 442 383 c 256,24,25
 442 438 442 438 424 467 c 0,26,27
 389 526 389 526 296 526 c 2,28,-1
 153 526 l 1,29,-1
 153 243 l 1,19,-1
EndSplineSet
EndChar
StartChar: germandbls
Encoding: 223 223 161
Width: 574
Flags: W
LayerCount: 2
Fore
SplineSet
60 1 m 1,0,-1
 60 520 l 2,1,2
 60 659 60 659 129 731 c 1,3,4
 196 803 196 803 282 803 c 0,5,6
 365 803 365 803 430 753 c 0,7,8
 493 704 493 704 493 619 c 2,9,-1
 493 547 l 1,10,-1
 463 538 l 2,11,12
 342 502 342 502 342 430 c 2,13,-1
 342 428 l 2,14,15
 342 423 342 423 428 367 c 0,16,17
 534 297 534 297 534 185 c 0,18,19
 534 -3 534 -3 360 -3 c 2,20,-1
 358 -3 l 2,21,22
 266 -3 266 -3 186 50 c 1,23,-1
 246 115 l 1,24,25
 274 93 274 93 296 84 c 0,26,27
 317 75 317 75 364 75 c 0,28,29
 450 75 450 75 450 180 c 0,30,31
 450 258 450 258 388 290 c 0,32,33
 257 356 257 356 257 427 c 2,34,-1
 257 431 l 2,35,36
 257 492 257 492 294 538 c 0,37,38
 333 586 333 586 400 611 c 1,39,-1
 400 619 l 2,40,41
 400 660 400 660 374 692 c 0,42,43
 349 723 349 723 288 723 c 0,44,45
 228 723 228 723 191 671 c 0,46,47
 153 618 153 618 153 520 c 2,48,-1
 153 1 l 1,49,-1
 60 1 l 1,0,-1
EndSplineSet
EndChar
StartChar: agrave
Encoding: 224 224 162
Width: 521
Flags: W
LayerCount: 2
Fore
SplineSet
88 701 m 1,0,-1
 233 701 l 1,1,-1
 345 575 l 1,2,-1
 266 575 l 1,3,-1
 88 701 l 1,0,-1
368 354 m 1,4,-1
 370 368 l 1,5,6
 370 460 370 460 269 460 c 0,7,8
 151 460 151 460 90 411 c 1,9,-1
 40 459 l 1,10,11
 119 538 119 538 254 538 c 2,12,-1
 259 538 l 2,13,14
 456 538 456 538 456 324 c 2,15,-1
 456 98 l 2,16,17
 456 58 456 58 486 -2 c 1,18,-1
 413 0 l 1,19,20
 372 24 372 24 368 82 c 1,21,22
 320 -1 320 -1 232 -11 c 1,23,24
 135 -11 135 -11 85 33 c 128,-1,25
 35 77 35 77 35 139 c 2,26,-1
 35 142 l 2,27,28
 35 206 35 206 65 256 c 1,29,30
 124 349 124 349 368 354 c 1,4,-1
220 75 m 1,31,32
 325 75 325 75 361 190 c 0,33,34
 368 210 368 210 368 221 c 2,35,-1
 368 277 l 1,36,37
 127 267 127 267 127 151 c 0,38,39
 127 119 127 119 142 98 c 1,40,41
 155 77 155 77 220 75 c 1,31,32
EndSplineSet
EndChar
StartChar: atilde
Encoding: 227 227 165
Width: 521
Flags: W
LayerCount: 2
Fore
SplineSet
208 644 m 0,0,1
 154 644 154 644 128 570 c 1,2,-1
 76 570 l 1,3,4
 87 713 87 713 216 716 c 0,5,6
 247 716 247 716 280 680 c 1,7,8
 312 642 312 642 334 642 c 0,9,10
 390 642 390 642 415 711 c 1,11,-1
 466 711 l 1,12,13
 455 572 455 572 332 571 c 0,14,15
 296 571 296 571 263 608 c 1,16,17
 229 644 229 644 208 644 c 0,0,1
368 354 m 1,18,-1
 370 368 l 1,19,20
 370 460 370 460 269 460 c 0,21,22
 151 460 151 460 90 411 c 1,23,-1
 40 459 l 1,24,25
 119 538 119 538 254 538 c 2,26,-1
 259 538 l 2,27,28
 456 538 456 538 456 324 c 2,29,-1
 456 98 l 2,30,31
 456 58 456 58 486 -2 c 1,32,-1
 413 0 l 1,33,34
 372 24 372 24 368 82 c 1,35,36
 320 -1 320 -1 232 -11 c 1,37,38
 135 -11 135 -11 85 33 c 128,-1,39
 35 77 35 77 35 139 c 2,40,-1
 35 142 l 2,41,42
 35 206 35 206 65 256 c 1,43,44
 124 349 124 349 368 354 c 1,18,-1
220 75 m 1,45,46
 325 75 325 75 361 190 c 0,47,48
 368 210 368 210 368 221 c 2,49,-1
 368 277 l 1,50,51
 127 267 127 267 127 151 c 0,52,53
 127 119 127 119 142 98 c 1,54,55
 155 77 155 77 220 75 c 1,45,46
EndSplineSet
EndChar
StartChar: adieresis
Encoding: 228 228 166
Width: 521
Flags: W
LayerCount: 2
Fore
SplineSet
227 601 m 1,0,-1
 126 601 l 1,1,-1
 126 705 l 1,2,-1
 227 705 l 1,3,-1
 227 601 l 1,0,-1
418 601 m 1,4,-1
 317 601 l 1,5,-1
 317 705 l 1,6,-1
 418 705 l 1,7,-1
 418 601 l 1,4,-1
368 354 m 1,8,-1
 370 368 l 1,9,10
 370 460 370 460 269 460 c 0,11,12
 151 460 151 460 90 411 c 1,13,-1
 40 459 l 1,14,15
 119 538 119 538 254 538 c 2,16,-1
 259 538 l 2,17,18
 456 538 456 538 456 324 c 2,19,-1
 456 98 l 2,20,21
 456 58 456 58 486 -2 c 1,22,-1
 413 0 l 1,23,24
 372 24 372 24 368 82 c 1,25,26
 320 -1 320 -1 232 -11 c 1,27,28
 135 -11 135 -11 85 33 c 128,-1,29
 35 77 35 77 35 139 c 2,30,-1
 35 142 l 2,31,32
 35 206 35 206 65 256 c 1,33,34
 124 349 124 349 368 354 c 1,8,-1
220 75 m 1,35,36
 325 75 325 75 361 190 c 0,37,38
 368 210 368 210 368 221 c 2,39,-1
 368 277 l 1,40,41
 127 267 127 267 127 151 c 0,42,43
 127 119 127 119 142 98 c 1,44,45
 155 77 155 77 220 75 c 1,35,36
EndSplineSet
EndChar
StartChar: aring
Encoding: 229 229 167
Width: 521
Flags: W
LayerCount: 2
Fore
SplineSet
164 656 m 0,0,1
 164 698 164 698 193 727 c 128,-1,2
 222 756 222 756 265 756 c 128,-1,3
 308 756 308 756 337 727 c 128,-1,4
 366 698 366 698 366 656 c 0,5,6
 366 613 366 613 337 584 c 0,7,8
 308 554 308 554 265 554 c 128,-1,9
 222 554 222 554 193 584 c 0,10,11
 164 613 164 613 164 656 c 0,0,1
206 657 m 128,-1,13
 206 633 206 633 223 616 c 1,14,15
 239 598 239 598 264 598 c 0,16,17
 288 598 288 598 305 616 c 0,18,19
 322 633 322 633 322 657 c 128,-1,20
 322 681 322 681 305 698 c 128,-1,21
 288 715 288 715 264 715 c 128,-1,22
 240 715 240 715 223 698 c 128,-1,12
 206 681 206 681 206 657 c 128,-1,13
368 354 m 1,23,-1
 370 368 l 1,24,25
 370 460 370 460 269 460 c 0,26,27
 151 460 151 460 90 411 c 1,28,-1
 40 459 l 1,29,30
 119 538 119 538 254 538 c 2,31,-1
 259 538 l 2,32,33
 456 538 456 538 456 324 c 2,34,-1
 456 98 l 2,35,36
 456 58 456 58 486 -2 c 1,37,-1
 413 0 l 1,38,39
 372 24 372 24 368 82 c 1,40,41
 320 -1 320 -1 232 -11 c 1,42,43
 135 -11 135 -11 85 33 c 128,-1,44
 35 77 35 77 35 139 c 2,45,-1
 35 142 l 2,46,47
 35 206 35 206 65 256 c 1,48,49
 124 349 124 349 368 354 c 1,23,-1
220 75 m 1,50,51
 325 75 325 75 361 190 c 0,52,53
 368 210 368 210 368 221 c 2,54,-1
 368 277 l 1,55,56
 127 267 127 267 127 151 c 0,57,58
 127 119 127 119 142 98 c 1,59,60
 155 77 155 77 220 75 c 1,50,51
EndSplineSet
EndChar
StartChar: ae
Encoding: 230 230 168
Width: 801
Flags: W
LayerCount: 2
Fore
SplineSet
416 432 m 1,0,1
 492 510 492 510 574 510 c 0,2,3
 670 510 670 510 729 438 c 1,4,5
 786 366 786 366 786 256 c 2,6,-1
 786 218 l 1,7,-1
 427 218 l 1,8,9
 434 145 434 145 481 103 c 128,-1,10
 528 61 528 61 585 61 c 0,11,12
 700 61 700 61 730 100 c 1,13,-1
 786 52 l 1,14,15
 707 -15 707 -15 580 -15 c 0,16,17
 452 -15 452 -15 391 97 c 1,18,19
 336 14 336 14 217 -11 c 1,20,21
 126 -11 126 -11 70 33 c 0,22,23
 15 76 15 76 15 139 c 2,24,-1
 15 142 l 2,25,26
 15 185 15 185 45 234 c 0,27,28
 104 327 104 327 343 332 c 1,29,-1
 345 352 l 1,30,31
 345 423 345 423 251 439 c 1,32,33
 164 438 164 438 94 395 c 1,34,-1
 44 431 l 1,35,36
 123 510 123 510 246 510 c 2,37,-1
 251 510 l 2,38,39
 370 510 370 510 416 432 c 1,0,1
427 295 m 1,40,-1
 708 295 l 1,41,42
 690 433 690 433 581 434 c 1,43,-1
 571 434 l 2,44,45
 457 434 457 434 427 295 c 1,40,-1
110 142 m 1,46,47
 117 73 117 73 215 71 c 1,48,-1
 218 71 l 2,49,50
 312 71 312 71 336 148 c 0,51,52
 343 168 343 168 343 178 c 2,53,-1
 343 269 l 1,54,55
 162 260 162 260 128 196 c 0,56,57
 110 163 110 163 110 142 c 1,46,47
EndSplineSet
EndChar
StartChar: ccedilla
Encoding: 231 231 169
Width: 504
Flags: W
LayerCount: 2
Fore
SplineSet
318 70 m 0,0,1
 399 70 399 70 409 104 c 1,2,-1
 479 98 l 1,3,4
 453 -12 453 -12 327 -12 c 1,5,-1
 301 -11 l 1,6,-1
 294 -51 l 1,7,8
 390 -51 390 -51 390 -110 c 0,9,10
 390 -216 390 -216 238 -216 c 2,11,-1
 193 -216 l 1,12,-1
 201 -166 l 1,13,-1
 251 -166 l 2,14,15
 324 -166 324 -166 324 -123 c 0,16,17
 324 -97 324 -97 289 -97 c 1,18,-1
 214 -102 l 1,19,-1
 248 -3 l 1,20,21
 177 14 177 14 126 66 c 0,22,23
 50 142 50 142 50 270 c 0,24,25
 50 396 50 396 130 464 c 1,26,27
 210 530 210 530 306 530 c 0,28,29
 460 530 460 530 479 406 c 1,30,-1
 410 406 l 1,31,32
 395 455 395 455 322 455 c 0,33,34
 248 455 248 455 196 404 c 0,35,36
 143 351 143 351 143 271 c 0,37,38
 143 189 143 189 190 130 c 1,39,40
 236 70 236 70 318 70 c 0,0,1
EndSplineSet
EndChar
StartChar: egrave
Encoding: 232 232 170
Width: 530
Flags: W
LayerCount: 2
Fore
SplineSet
106 701 m 1,0,-1
 251 701 l 1,1,-1
 363 575 l 1,2,-1
 284 575 l 1,3,-1
 106 701 l 1,0,-1
475 136 m 1,4,-1
 475 40 l 1,5,6
 393 -12 393 -12 279 -12 c 0,7,8
 166 -12 166 -12 103 62 c 128,-1,9
 40 136 40 136 40 264 c 0,10,11
 40 393 40 393 108 459 c 1,12,13
 185 530 185 530 286 530 c 0,14,15
 408 530 408 530 455 429 c 1,16,17
 490 350 490 350 490 225 c 1,18,-1
 133 225 l 1,19,20
 142 147 142 147 179 110 c 0,21,22
 215 73 215 73 294 73 c 0,23,24
 338 73 338 73 388 88 c 0,25,26
 438 102 438 102 475 136 c 1,4,-1
133 304 m 1,27,-1
 412 304 l 1,28,29
 392 441 392 441 285 441 c 2,30,-1
 283 441 l 2,31,32
 166 441 166 441 133 304 c 1,27,-1
EndSplineSet
EndChar
StartChar: igrave
Encoding: 236 236 174
Width: 266
Flags: W
LayerCount: 2
Fore
SplineSet
-31 701 m 1,0,-1
 114 701 l 1,1,-1
 226 575 l 1,2,-1
 147 575 l 1,3,-1
 -31 701 l 1,0,-1
175 521 m 1,4,-1
 175 -3 l 1,5,-1
 92 -3 l 1,6,-1
 92 521 l 1,7,-1
 175 521 l 1,4,-1
EndSplineSet
EndChar
StartChar: iacute
Encoding: 237 237 175
Width: 266
Flags: W
LayerCount: 2
Fore
SplineSet
306 701 m 1,0,-1
 128 575 l 1,1,-1
 49 575 l 1,2,-1
 161 701 l 1,3,-1
 306 701 l 1,0,-1
175 521 m 1,4,-1
 175 -3 l 1,5,-1
 92 -3 l 1,6,-1
 92 521 l 1,7,-1
 175 521 l 1,4,-1
EndSplineSet
EndChar
StartChar: icircumflex
Encoding: 238 238 176
Width: 266
Flags: W
LayerCount: 2
Fore
SplineSet
238 570 m 1,0,-1
 158 663 l 1,1,-1
 108 663 l 1,2,-1
 30 570 l 1,3,-1
 -44 570 l 1,4,-1
 84 741 l 1,5,-1
 182 741 l 1,6,-1
 310 570 l 1,7,-1
 238 570 l 1,0,-1
175 521 m 1,8,-1
 175 -3 l 1,9,-1
 92 -3 l 1,10,-1
 92 521 l 1,11,-1
 175 521 l 1,8,-1
EndSplineSet
EndChar
StartChar: idieresis
Encoding: 239 239 177
Width: 266
Flags: W
LayerCount: 2
Fore
SplineSet
88 601 m 1,0,-1
 -13 601 l 1,1,-1
 -13 705 l 1,2,-1
 88 705 l 1,3,-1
 88 601 l 1,0,-1
279 601 m 1,4,-1
 178 601 l 1,5,-1
 178 705 l 1,6,-1
 279 705 l 1,7,-1
 279 601 l 1,4,-1
175 521 m 1,8,-1
 175 -3 l 1,9,-1
 92 -3 l 1,10,-1
 92 521 l 1,11,-1
 175 521 l 1,8,-1
EndSplineSet
EndChar
StartChar: eth
Encoding: 240 240 178
Width: 535
Flags: W
LayerCount: 2
Fore
SplineSet
479 323 m 0,0,1
 482 293 482 293 482 263 c 0,2,3
 482 68 482 68 357 12 c 0,4,5
 316 -7 316 -7 274 -7 c 2,6,-1
 273 -7 l 2,7,8
 160 -7 160 -7 107 64 c 128,-1,9
 54 135 54 135 54 232 c 0,10,11
 54 328 54 328 117 395 c 0,12,13
 179 461 179 461 249 462 c 1,14,15
 338 462 338 462 377 420 c 1,16,17
 336 542 336 542 253 600 c 1,18,-1
 141 499 l 1,19,-1
 97 548 l 1,20,-1
 198 639 l 1,21,22
 162 668 162 668 66 669 c 1,23,-1
 66 740 l 1,24,25
 164 724 164 724 243 680 c 1,26,-1
 321 754 l 1,27,-1
 365 705 l 1,28,-1
 299 642 l 1,29,30
 380 579 380 579 426 491 c 0,31,32
 471 403 471 403 479 323 c 0,0,1
399 231 m 0,33,34
 399 292 399 292 367 342 c 1,35,36
 334 390 334 390 244 390 c 0,37,38
 201 390 201 390 166 349 c 0,39,40
 132 309 132 309 132 237 c 2,41,-1
 132 235 l 2,42,43
 132 154 132 154 169 108 c 0,44,45
 207 60 207 60 273 60 c 0,46,47
 318 60 318 60 352 94 c 1,48,49
 399 138 399 138 399 231 c 0,33,34
EndSplineSet
EndChar
StartChar: ntilde
Encoding: 241 241 179
Width: 548
Flags: W
LayerCount: 2
Fore
SplineSet
204 644 m 0,0,1
 150 644 150 644 124 570 c 1,2,-1
 72 570 l 1,3,4
 83 713 83 713 212 716 c 0,5,6
 243 716 243 716 276 680 c 1,7,8
 308 642 308 642 330 642 c 0,9,10
 386 642 386 642 411 711 c 1,11,-1
 462 711 l 1,12,13
 451 572 451 572 328 571 c 0,14,15
 292 571 292 571 259 608 c 1,16,17
 224 644 224 644 204 644 c 0,0,1
406 -3 m 1,18,-1
 406 319 l 2,19,20
 406 453 406 453 299 453 c 0,21,22
 143 453 143 453 143 255 c 2,23,-1
 143 -3 l 1,24,-1
 50 -3 l 1,25,-1
 50 536 l 1,26,-1
 143 536 l 1,27,-1
 143 413 l 1,28,29
 190 538 190 538 301 538 c 1,30,31
 499 536 499 536 499 345 c 2,32,-1
 499 -3 l 1,33,-1
 406 -3 l 1,18,-1
EndSplineSet
EndChar
StartChar: ograve
Encoding: 242 242 180
Width: 540
Flags: W
LayerCount: 2
Fore
SplineSet
117 701 m 1,0,-1
 262 701 l 1,1,-1
 374 575 l 1,2,-1
 295 575 l 1,3,-1
 117 701 l 1,0,-1
90 69 m 1,4,5
 20 151 20 151 20 266 c 0,6,7
 20 379 20 379 90 458 c 128,-1,8
 160 537 160 537 262 537 c 128,-1,9
 364 537 364 537 437 458 c 128,-1,10
 510 379 510 379 510 266 c 0,11,12
 510 151 510 151 437 69 c 1,13,14
 364 -15 364 -15 262 -15 c 128,-1,15
 160 -15 160 -15 90 69 c 1,4,5
153 403 m 128,-1,17
 112 344 112 344 112 266 c 0,18,19
 112 189 112 189 153 124 c 0,20,21
 193 60 193 60 259 60 c 0,22,23
 324 60 324 60 367 124 c 1,24,25
 409 189 409 189 409 266 c 0,26,27
 409 344 409 344 367 403 c 128,-1,28
 325 462 325 462 260 462 c 0,29,16
 194 462 194 462 153 403 c 128,-1,17
EndSplineSet
EndChar
StartChar: otilde
Encoding: 245 245 183
Width: 540
Flags: W
LayerCount: 2
Fore
SplineSet
202 636 m 0,0,1
 148 636 148 636 122 562 c 1,2,-1
 70 562 l 1,3,4
 81 705 81 705 210 708 c 0,5,6
 241 708 241 708 274 672 c 1,7,8
 306 634 306 634 328 634 c 0,9,10
 384 634 384 634 409 703 c 1,11,-1
 460 703 l 1,12,13
 449 564 449 564 326 563 c 0,14,15
 290 563 290 563 257 600 c 1,16,17
 223 636 223 636 202 636 c 0,0,1
90 69 m 1,18,19
 20 151 20 151 20 266 c 0,20,21
 20 379 20 379 90 458 c 128,-1,22
 160 537 160 537 262 537 c 128,-1,23
 364 537 364 537 437 458 c 128,-1,24
 510 379 510 379 510 266 c 0,25,26
 510 151 510 151 437 69 c 1,27,28
 364 -15 364 -15 262 -15 c 128,-1,29
 160 -15 160 -15 90 69 c 1,18,19
153 403 m 128,-1,31
 112 344 112 344 112 266 c 0,32,33
 112 189 112 189 153 124 c 0,34,35
 193 60 193 60 259 60 c 0,36,37
 324 60 324 60 367 124 c 1,38,39
 409 189 409 189 409 266 c 0,40,41
 409 344 409 344 367 403 c 128,-1,42
 325 462 325 462 260 462 c 0,43,30
 194 462 194 462 153 403 c 128,-1,31
EndSplineSet
EndChar
StartChar: divide
Encoding: 247 247 185
Width: 539
Flags: W
LayerCount: 2
Fore
SplineSet
323 413 m 1,0,-1
 216 413 l 1,1,-1
 216 520 l 1,2,-1
 323 520 l 1,3,-1
 323 413 l 1,0,-1
50 245 m 1,4,-1
 50 327 l 1,5,-1
 490 327 l 1,6,-1
 490 245 l 1,7,-1
 50 245 l 1,4,-1
324 53 m 1,8,-1
 217 53 l 1,9,-1
 217 160 l 1,10,-1
 324 160 l 1,11,-1
 324 53 l 1,8,-1
EndSplineSet
EndChar
StartChar: oslash
Encoding: 248 248 186
Width: 550
Flags: W
LayerCount: 2
Fore
SplineSet
30 -18 m 1,0,-1
 96 68 l 1,1,2
 30 144 30 144 30 251 c 0,3,4
 30 357 30 357 100 436 c 128,-1,5
 170 515 170 515 272 515 c 0,6,7
 346 515 346 515 405 473 c 1,8,-1
 437 515 l 1,9,-1
 520 515 l 1,10,-1
 454 428 l 1,11,12
 520 351 520 351 520 247 c 0,13,14
 520 139 520 139 447 63 c 1,15,16
 374 -15 374 -15 272 -15 c 0,17,18
 201 -15 201 -15 145 23 c 1,19,-1
 113 -18 l 1,20,-1
 30 -18 l 1,0,-1
162 383 m 1,21,22
 115 324 115 324 115 256 c 0,23,24
 115 186 115 186 147 136 c 1,25,-1
 356 409 l 1,26,27
 318 439 318 439 272 439 c 0,28,29
 209 439 209 439 162 383 c 1,21,22
400 358 m 1,30,-1
 193 87 l 1,31,32
 228 60 228 60 272 60 c 0,33,34
 334 60 334 60 382 116 c 0,35,36
 429 172 429 172 429 241 c 0,37,38
 429 308 429 308 400 358 c 1,30,-1
EndSplineSet
EndChar
StartChar: ugrave
Encoding: 249 249 187
Width: 538
Flags: W
LayerCount: 2
Fore
SplineSet
92 701 m 1,0,-1
 237 701 l 1,1,-1
 349 575 l 1,2,-1
 270 575 l 1,3,-1
 92 701 l 1,0,-1
143 523 m 1,4,-1
 143 252 l 2,5,6
 143 69 143 69 249 69 c 0,7,8
 395 69 395 69 395 264 c 2,9,-1
 395 523 l 1,10,-1
 488 523 l 1,11,-1
 488 -3 l 1,12,-1
 395 -3 l 1,13,-1
 395 80 l 1,14,15
 357 -15 357 -15 241 -15 c 1,16,17
 50 -13 50 -13 50 232 c 2,18,-1
 50 523 l 1,19,-1
 143 523 l 1,4,-1
EndSplineSet
EndChar
StartChar: ucircumflex
Encoding: 251 251 189
Width: 538
Flags: W
LayerCount: 2
Fore
SplineSet
372 570 m 1,0,-1
 292 663 l 1,1,-1
 242 663 l 1,2,-1
 164 570 l 1,3,-1
 90 570 l 1,4,-1
 218 741 l 1,5,-1
 316 741 l 1,6,-1
 444 570 l 1,7,-1
 372 570 l 1,0,-1
143 523 m 1,8,-1
 143 252 l 2,9,10
 143 69 143 69 249 69 c 0,11,12
 395 69 395 69 395 264 c 2,13,-1
 395 523 l 1,14,-1
 488 523 l 1,15,-1
 488 -3 l 1,16,-1
 395 -3 l 1,17,-1
 395 80 l 1,18,19
 357 -15 357 -15 241 -15 c 1,20,21
 50 -13 50 -13 50 232 c 2,22,-1
 50 523 l 1,23,-1
 143 523 l 1,8,-1
EndSplineSet
EndChar
StartChar: thorn
Encoding: 254 254 192
Width: 567
Flags: W
LayerCount: 2
Fore
SplineSet
144 800 m 1,0,-1
 144 447 l 1,1,2
 200 515 200 515 287 515 c 2,3,-1
 290 515 l 2,4,5
 394 515 394 515 459 441 c 0,6,7
 523 368 523 368 523 246 c 0,8,9
 523 126 523 126 458 55 c 1,10,11
 392 -15 392 -15 290 -15 c 2,12,-1
 287 -15 l 2,13,14
 202 -15 202 -15 144 51 c 1,15,-1
 144 -170 l 1,16,-1
 60 -170 l 1,17,-1
 60 800 l 1,18,-1
 144 800 l 1,0,-1
390 382 m 128,-1,20
 352 432 352 432 284 432 c 0,21,22
 159 432 159 432 144 270 c 1,23,-1
 144 221 l 1,24,25
 153 71 153 71 284 69 c 0,26,27
 346 69 346 69 387 117 c 0,28,29
 428 164 428 164 429 249 c 1,30,19
 428 332 428 332 390 382 c 128,-1,20
EndSplineSet
EndChar
StartChar: ydieresis
Encoding: 255 255 193
Width: 565
Flags: W
LayerCount: 2
Fore
SplineSet
259 601 m 1,0,-1
 158 601 l 1,1,-1
 158 705 l 1,2,-1
 259 705 l 1,3,-1
 259 601 l 1,0,-1
450 601 m 1,4,-1
 349 601 l 1,5,-1
 349 705 l 1,6,-1
 450 705 l 1,7,-1
 450 601 l 1,4,-1
433 538 m 1,8,-1
 545 538 l 1,9,10
 464 330 464 330 413 197 c 0,11,12
 383 119 383 119 324 -33 c 2,13,-1
 300 -94 l 1,14,15
 234 -240 234 -240 159 -240 c 0,16,17
 81 -240 81 -240 50 -221 c 1,18,-1
 63 -161 l 1,19,20
 92 -173 92 -173 125 -173 c 0,21,22
 171 -173 171 -173 220 -55 c 1,23,24
 245 -2 245 -2 245 6 c 1,25,26
 210 90 210 90 20 538 c 1,27,-1
 125 538 l 1,28,-1
 282 89 l 1,29,-1
 433 538 l 1,8,-1
EndSplineSet
EndChar
StartChar: Abreve
Encoding: 258 258 196
Width: 735
Flags: W
LayerCount: 2
Fore
SplineSet
279 955 m 1,0,-1
 279 948 l 2,1,2
 279 916 279 916 305 893 c 128,-1,3
 331 870 331 870 368 870 c 0,4,5
 404 870 404 870 430 893 c 0,6,7
 455 915 455 915 455 948 c 2,8,-1
 455 955 l 1,9,-1
 528 955 l 1,10,-1
 528 950 l 2,11,12
 528 890 528 890 483 849 c 1,13,14
 436 808 436 808 369 808 c 0,15,16
 303 808 303 808 256 849 c 0,17,18
 210 889 210 889 210 950 c 2,19,-1
 210 955 l 1,20,-1
 279 955 l 1,0,-1
584 -3 m 1,21,-1
 516 188 l 1,22,-1
 216 188 l 1,23,-1
 148 -3 l 1,24,-1
 40 -3 l 1,25,-1
 328 725 l 1,26,-1
 418 725 l 1,27,-1
 695 -3 l 1,28,-1
 584 -3 l 1,21,-1
240 276 m 1,29,-1
 489 276 l 1,30,-1
 376 625 l 1,31,-1
 240 276 l 1,29,-1
EndSplineSet
EndChar
StartChar: abreve
Encoding: 259 259 197
Width: 521
Flags: W
LayerCount: 2
Fore
SplineSet
168 725 m 1,0,-1
 168 718 l 2,1,2
 168 686 168 686 194 663 c 128,-1,3
 220 640 220 640 257 640 c 0,4,5
 293 640 293 640 319 663 c 0,6,7
 344 685 344 685 344 718 c 2,8,-1
 344 725 l 1,9,-1
 417 725 l 1,10,-1
 417 720 l 2,11,12
 417 660 417 660 372 619 c 1,13,14
 325 578 325 578 258 578 c 0,15,16
 192 578 192 578 145 619 c 0,17,18
 99 659 99 659 99 720 c 2,19,-1
 99 725 l 1,20,-1
 168 725 l 1,0,-1
368 354 m 1,21,-1
 370 368 l 1,22,23
 370 460 370 460 269 460 c 0,24,25
 151 460 151 460 90 411 c 1,26,-1
 40 459 l 1,27,28
 119 538 119 538 254 538 c 2,29,-1
 259 538 l 2,30,31
 456 538 456 538 456 324 c 2,32,-1
 456 98 l 2,33,34
 456 58 456 58 486 -2 c 1,35,-1
 413 0 l 1,36,37
 372 24 372 24 368 82 c 1,38,39
 320 -1 320 -1 232 -11 c 1,40,41
 135 -11 135 -11 85 33 c 128,-1,42
 35 77 35 77 35 139 c 2,43,-1
 35 142 l 2,44,45
 35 206 35 206 65 256 c 1,46,47
 124 349 124 349 368 354 c 1,21,-1
220 75 m 1,48,49
 325 75 325 75 361 190 c 0,50,51
 368 210 368 210 368 221 c 2,52,-1
 368 277 l 1,53,54
 127 267 127 267 127 151 c 0,55,56
 127 119 127 119 142 98 c 1,57,58
 155 77 155 77 220 75 c 1,48,49
EndSplineSet
EndChar
StartChar: Aogonek
Encoding: 260 260 198
Width: 735
Flags: W
LayerCount: 2
Fore
SplineSet
698 -101 m 1,0,-1
 705 -150 l 1,1,2
 670 -206 670 -206 624 -206 c 0,3,4
 546 -206 546 -206 525 -170 c 0,5,6
 515 -154 515 -154 515 -120 c 0,7,8
 515 -61 515 -61 571 -14 c 2,9,-1
 584 -3 l 1,10,-1
 516 188 l 1,11,-1
 216 188 l 1,12,-1
 148 -3 l 1,13,-1
 40 -3 l 1,14,-1
 328 725 l 1,15,-1
 418 725 l 1,16,-1
 695 -3 l 1,17,-1
 636 -3 l 1,18,-1
 627 -14 l 2,19,20
 597 -52 597 -52 597 -95 c 256,21,22
 597 -138 597 -138 631 -138 c 0,23,24
 673 -138 673 -138 698 -101 c 1,0,-1
376 625 m 1,25,-1
 240 276 l 1,26,-1
 489 276 l 1,27,-1
 376 625 l 1,25,-1
EndSplineSet
EndChar
StartChar: aogonek
Encoding: 261 261 199
Width: 521
Flags: W
LayerCount: 2
Fore
SplineSet
514 -101 m 1,0,-1
 521 -150 l 1,1,2
 486 -206 486 -206 440 -206 c 0,3,4
 362 -206 362 -206 341 -170 c 0,5,6
 331 -154 331 -154 331 -120 c 0,7,8
 331 -61 331 -61 387 -14 c 1,9,-1
 404 1 l 1,10,-1
 412 1 l 1,11,12
 372 24 372 24 368 82 c 1,13,14
 320 -1 320 -1 232 -11 c 1,15,16
 135 -11 135 -11 85 33 c 128,-1,17
 35 77 35 77 35 139 c 2,18,-1
 35 142 l 2,19,20
 35 206 35 206 65 256 c 1,21,22
 124 349 124 349 368 354 c 1,23,-1
 370 368 l 1,24,25
 370 460 370 460 269 460 c 0,26,27
 151 460 151 460 90 411 c 1,28,-1
 40 459 l 1,29,30
 119 538 119 538 254 538 c 2,31,-1
 259 538 l 2,32,33
 456 538 456 538 456 324 c 2,34,-1
 456 98 l 2,35,36
 456 58 456 58 486 -2 c 1,37,-1
 453 -1 l 1,38,-1
 443 -14 l 2,39,40
 413 -52 413 -52 413 -95 c 256,41,42
 413 -138 413 -138 447 -138 c 0,43,44
 489 -138 489 -138 514 -101 c 1,0,-1
368 221 m 2,45,-1
 368 277 l 1,46,47
 127 267 127 267 127 151 c 0,48,49
 127 119 127 119 142 98 c 1,50,51
 155 77 155 77 220 75 c 1,52,53
 325 75 325 75 361 190 c 0,54,55
 368 210 368 210 368 221 c 2,45,-1
EndSplineSet
EndChar
StartChar: Cacute
Encoding: 262 262 200
Width: 640
Flags: W
LayerCount: 2
Fore
SplineSet
533 950 m 1,0,-1
 355 824 l 1,1,-1
 276 824 l 1,2,-1
 388 950 l 1,3,-1
 533 950 l 1,0,-1
405 73 m 0,4,5
 513 73 513 73 610 149 c 1,6,-1
 620 66 l 1,7,8
 532 -10 532 -10 432 -10 c 0,9,10
 123 -10 123 -10 60 249 c 1,11,12
 50 296 50 296 50 369 c 0,13,14
 50 438 50 438 65 496 c 1,15,16
 158 729 158 729 411 729 c 2,17,-1
 413 729 l 2,18,19
 533 729 533 729 614 643 c 1,20,-1
 604 560 l 1,21,22
 553 641 553 641 417 641 c 0,23,24
 150 641 150 641 150 364 c 0,25,26
 150 73 150 73 405 73 c 0,4,5
EndSplineSet
EndChar
StartChar: Ccircumflex
Encoding: 264 264 202
Width: 640
Flags: W
LayerCount: 2
Fore
SplineSet
474 779 m 1,0,-1
 394 872 l 1,1,-1
 344 872 l 1,2,-1
 266 779 l 1,3,-1
 192 779 l 1,4,-1
 320 950 l 1,5,-1
 418 950 l 1,6,-1
 546 779 l 1,7,-1
 474 779 l 1,0,-1
405 73 m 0,8,9
 513 73 513 73 610 149 c 1,10,-1
 620 66 l 1,11,12
 532 -10 532 -10 432 -10 c 0,13,14
 123 -10 123 -10 60 249 c 1,15,16
 50 296 50 296 50 369 c 0,17,18
 50 438 50 438 65 496 c 1,19,20
 158 729 158 729 411 729 c 2,21,-1
 413 729 l 2,22,23
 533 729 533 729 614 643 c 1,24,-1
 604 560 l 1,25,26
 553 641 553 641 417 641 c 0,27,28
 150 641 150 641 150 364 c 0,29,30
 150 73 150 73 405 73 c 0,8,9
EndSplineSet
EndChar
StartChar: ccircumflex
Encoding: 265 265 203
Width: 504
Flags: W
LayerCount: 2
Fore
SplineSet
385 570 m 1,0,-1
 305 663 l 1,1,-1
 255 663 l 1,2,-1
 177 570 l 1,3,-1
 103 570 l 1,4,-1
 231 741 l 1,5,-1
 329 741 l 1,6,-1
 457 570 l 1,7,-1
 385 570 l 1,0,-1
409 104 m 1,8,-1
 479 98 l 1,9,10
 453 -12 453 -12 327 -12 c 128,-1,11
 201 -12 201 -12 126 66 c 1,12,13
 50 142 50 142 50 270 c 0,14,15
 50 396 50 396 130 464 c 1,16,17
 210 530 210 530 306 530 c 0,18,19
 460 530 460 530 479 406 c 1,20,-1
 410 406 l 1,21,22
 395 455 395 455 322 455 c 0,23,24
 248 455 248 455 196 404 c 0,25,26
 143 351 143 351 143 271 c 0,27,28
 143 189 143 189 190 130 c 1,29,30
 236 70 236 70 318 70 c 0,31,32
 399 70 399 70 409 104 c 1,8,-1
EndSplineSet
EndChar
StartChar: Cdotaccent
Encoding: 266 266 204
Width: 640
Flags: W
LayerCount: 2
Fore
SplineSet
420 801 m 1,0,-1
 320 801 l 1,1,-1
 320 905 l 1,2,-1
 420 905 l 1,3,-1
 420 801 l 1,0,-1
405 73 m 0,4,5
 513 73 513 73 610 149 c 1,6,-1
 620 66 l 1,7,8
 532 -10 532 -10 432 -10 c 0,9,10
 123 -10 123 -10 60 249 c 1,11,12
 50 296 50 296 50 369 c 0,13,14
 50 438 50 438 65 496 c 1,15,16
 158 729 158 729 411 729 c 2,17,-1
 413 729 l 2,18,19
 533 729 533 729 614 643 c 1,20,-1
 604 560 l 1,21,22
 553 641 553 641 417 641 c 0,23,24
 150 641 150 641 150 364 c 0,25,26
 150 73 150 73 405 73 c 0,4,5
EndSplineSet
EndChar
StartChar: cdotaccent
Encoding: 267 267 205
Width: 504
Flags: W
LayerCount: 2
Fore
SplineSet
332 601 m 1,0,-1
 232 601 l 1,1,-1
 232 705 l 1,2,-1
 332 705 l 1,3,-1
 332 601 l 1,0,-1
409 104 m 1,4,-1
 479 98 l 1,5,6
 453 -12 453 -12 327 -12 c 128,-1,7
 201 -12 201 -12 126 66 c 1,8,9
 50 142 50 142 50 270 c 0,10,11
 50 396 50 396 130 464 c 1,12,13
 210 530 210 530 306 530 c 0,14,15
 460 530 460 530 479 406 c 1,16,-1
 410 406 l 1,17,18
 395 455 395 455 322 455 c 0,19,20
 248 455 248 455 196 404 c 0,21,22
 143 351 143 351 143 271 c 0,23,24
 143 189 143 189 190 130 c 1,25,26
 236 70 236 70 318 70 c 0,27,28
 399 70 399 70 409 104 c 1,4,-1
EndSplineSet
EndChar
StartChar: Dcaron
Encoding: 270 270 208
Width: 670
Flags: W
LayerCount: 2
Fore
SplineSet
125 960 m 1,0,-1
 199 960 l 1,1,-1
 277 867 l 1,2,-1
 327 867 l 1,3,-1
 407 960 l 1,4,-1
 479 960 l 1,5,-1
 351 789 l 1,6,-1
 253 789 l 1,7,-1
 125 960 l 1,0,-1
587 530 m 0,8,9
 620 456 620 456 620 379 c 0,10,11
 620 0 620 0 286 0 c 2,12,-1
 60 0 l 1,13,-1
 60 725 l 1,14,-1
 299 725 l 2,15,16
 498 725 498 725 587 530 c 0,8,9
153 83 m 1,17,-1
 211 83 l 2,18,19
 288 83 288 83 303 84 c 0,20,21
 403 85 403 85 461 151 c 0,22,23
 517 216 517 216 517 367 c 0,24,25
 517 592 517 592 379 631 c 0,26,27
 347 640 347 640 299 640 c 2,28,-1
 153 640 l 1,29,-1
 153 83 l 1,17,-1
EndSplineSet
EndChar
StartChar: Dcroat
Encoding: 272 272 210
Width: 678
Flags: W
LayerCount: 2
Fore
SplineSet
517 646 m 0,0,1
 573 602 573 602 606 530 c 0,2,3
 639 456 639 456 639 367 c 0,4,5
 639 200 639 200 529 90 c 0,6,7
 439 0 439 0 277 0 c 2,8,-1
 100 0 l 1,9,-1
 100 336 l 1,10,-1
 10 336 l 1,11,-1
 10 398 l 1,12,-1
 100 398 l 1,13,-1
 100 725 l 1,14,-1
 290 725 l 2,15,16
 417 725 417 725 517 646 c 0,0,1
193 75 m 1,17,-1
 232 75 l 2,18,19
 278 75 278 75 293 76 c 0,20,21
 395 78 395 78 463 147 c 1,22,23
 531 218 531 218 531 359 c 0,24,25
 531 503 531 503 488 558 c 0,26,27
 443 615 443 615 370 640 c 0,28,29
 341 650 341 650 290 650 c 2,30,-1
 193 650 l 1,31,-1
 193 398 l 1,32,-1
 378 398 l 1,33,-1
 378 336 l 1,34,-1
 193 336 l 1,35,-1
 193 75 l 1,17,-1
EndSplineSet
EndChar
StartChar: dcroat
Encoding: 273 273 211
Width: 628
Flags: W
LayerCount: 2
Fore
SplineSet
45 255 m 0,0,1
 45 374 45 374 111 445 c 0,2,3
 175 515 175 515 271 515 c 0,4,5
 366 515 366 515 424 449 c 1,6,-1
 424 578 l 1,7,-1
 313 578 l 1,8,-1
 313 640 l 1,9,-1
 424 640 l 1,10,-1
 424 740 l 1,11,-1
 518 740 l 1,12,-1
 518 640 l 1,13,-1
 618 640 l 1,14,-1
 618 578 l 1,15,-1
 518 578 l 1,16,-1
 518 -3 l 1,17,-1
 424 -3 l 1,18,-1
 424 53 l 1,19,20
 368 -15 368 -15 271 -15 c 0,21,22
 175 -15 175 -15 110 60 c 0,23,24
 45 134 45 134 45 255 c 0,0,1
183 113 m 1,25,26
 216 58 216 58 284 58 c 0,27,28
 408 58 408 58 424 230 c 1,29,-1
 424 279 l 1,30,31
 414 439 414 439 284 441 c 0,32,33
 220 441 220 441 186 389 c 0,34,35
 151 336 151 336 149 251 c 1,36,37
 150 170 150 170 183 113 c 1,25,26
EndSplineSet
EndChar
StartChar: Emacron
Encoding: 274 274 212
Width: 630
Flags: W
LayerCount: 2
Fore
SplineSet
185 823 m 1,0,-1
 185 885 l 1,1,-1
 475 885 l 1,2,-1
 475 823 l 1,3,-1
 185 823 l 1,0,-1
80 720 m 1,4,-1
 579 720 l 1,5,-1
 579 642 l 1,6,-1
 175 642 l 1,7,-1
 175 423 l 1,8,-1
 507 423 l 1,9,-1
 507 345 l 1,10,-1
 175 345 l 1,11,-1
 175 78 l 1,12,-1
 590 78 l 1,13,-1
 590 0 l 1,14,-1
 80 0 l 1,15,-1
 80 720 l 1,4,-1
EndSplineSet
EndChar
StartChar: Ebreve
Encoding: 276 276 214
Width: 630
Flags: W
LayerCount: 2
Fore
SplineSet
237 955 m 1,0,-1
 237 948 l 2,1,2
 237 916 237 916 263 893 c 128,-1,3
 289 870 289 870 326 870 c 0,4,5
 362 870 362 870 388 893 c 0,6,7
 413 915 413 915 413 948 c 2,8,-1
 413 955 l 1,9,-1
 486 955 l 1,10,-1
 486 950 l 2,11,12
 486 890 486 890 441 849 c 1,13,14
 394 808 394 808 327 808 c 0,15,16
 261 808 261 808 214 849 c 0,17,18
 168 889 168 889 168 950 c 2,19,-1
 168 955 l 1,20,-1
 237 955 l 1,0,-1
80 720 m 1,21,-1
 579 720 l 1,22,-1
 579 642 l 1,23,-1
 175 642 l 1,24,-1
 175 423 l 1,25,-1
 507 423 l 1,26,-1
 507 345 l 1,27,-1
 175 345 l 1,28,-1
 175 78 l 1,29,-1
 590 78 l 1,30,-1
 590 0 l 1,31,-1
 80 0 l 1,32,-1
 80 720 l 1,21,-1
EndSplineSet
EndChar
StartChar: ebreve
Encoding: 277 277 215
Width: 530
Flags: W
LayerCount: 2
Fore
SplineSet
196 725 m 1,0,-1
 196 718 l 2,1,2
 196 686 196 686 222 663 c 128,-1,3
 248 640 248 640 285 640 c 0,4,5
 321 640 321 640 347 663 c 0,6,7
 372 685 372 685 372 718 c 2,8,-1
 372 725 l 1,9,-1
 445 725 l 1,10,-1
 445 720 l 2,11,12
 445 660 445 660 400 619 c 1,13,14
 353 578 353 578 286 578 c 0,15,16
 220 578 220 578 173 619 c 0,17,18
 127 659 127 659 127 720 c 2,19,-1
 127 725 l 1,20,-1
 196 725 l 1,0,-1
475 136 m 1,21,-1
 475 40 l 1,22,23
 393 -12 393 -12 279 -12 c 0,24,25
 166 -12 166 -12 103 62 c 128,-1,26
 40 136 40 136 40 264 c 0,27,28
 40 393 40 393 108 459 c 1,29,30
 185 530 185 530 286 530 c 0,31,32
 408 530 408 530 455 429 c 1,33,34
 490 350 490 350 490 225 c 1,35,-1
 133 225 l 1,36,37
 142 147 142 147 179 110 c 0,38,39
 215 73 215 73 294 73 c 0,40,41
 338 73 338 73 388 88 c 0,42,43
 438 102 438 102 475 136 c 1,21,-1
133 304 m 1,44,-1
 412 304 l 1,45,46
 392 441 392 441 285 441 c 2,47,-1
 283 441 l 2,48,49
 166 441 166 441 133 304 c 1,44,-1
EndSplineSet
EndChar
StartChar: Edotaccent
Encoding: 278 278 216
Width: 630
Flags: W
LayerCount: 2
Fore
SplineSet
386 801 m 1,0,-1
 286 801 l 1,1,-1
 286 905 l 1,2,-1
 386 905 l 1,3,-1
 386 801 l 1,0,-1
80 720 m 1,4,-1
 579 720 l 1,5,-1
 579 642 l 1,6,-1
 175 642 l 1,7,-1
 175 423 l 1,8,-1
 507 423 l 1,9,-1
 507 345 l 1,10,-1
 175 345 l 1,11,-1
 175 78 l 1,12,-1
 590 78 l 1,13,-1
 590 0 l 1,14,-1
 80 0 l 1,15,-1
 80 720 l 1,4,-1
EndSplineSet
EndChar
StartChar: Eogonek
Encoding: 280 280 218
Width: 630
Flags: W
LayerCount: 2
Fore
SplineSet
603 -101 m 1,0,-1
 610 -150 l 1,1,2
 575 -206 575 -206 529 -206 c 0,3,4
 451 -206 451 -206 430 -170 c 0,5,6
 420 -154 420 -154 420 -120 c 0,7,8
 420 -61 420 -61 476 -14 c 1,9,-1
 492 0 l 1,10,-1
 80 0 l 1,11,-1
 80 720 l 1,12,-1
 579 720 l 1,13,-1
 579 642 l 1,14,-1
 175 642 l 1,15,-1
 175 423 l 1,16,-1
 507 423 l 1,17,-1
 507 345 l 1,18,-1
 175 345 l 1,19,-1
 175 78 l 1,20,-1
 590 78 l 1,21,-1
 590 0 l 1,22,-1
 543 0 l 1,23,-1
 532 -14 l 2,24,25
 502 -52 502 -52 502 -95 c 256,26,27
 502 -138 502 -138 536 -138 c 0,28,29
 578 -138 578 -138 603 -101 c 1,0,-1
EndSplineSet
EndChar
StartChar: eogonek
Encoding: 281 281 219
Width: 530
Flags: W
LayerCount: 2
Fore
SplineSet
294 73 m 0,0,1
 338 73 338 73 388 88 c 0,2,3
 438 102 438 102 475 136 c 1,4,-1
 475 40 l 1,5,6
 432 13 432 13 381 0 c 1,7,-1
 383 0 l 1,8,-1
 372 -14 l 2,9,10
 342 -52 342 -52 342 -95 c 256,11,12
 342 -138 342 -138 376 -138 c 0,13,14
 418 -138 418 -138 443 -101 c 1,15,-1
 450 -150 l 1,16,17
 415 -206 415 -206 369 -206 c 0,18,19
 291 -206 291 -206 270 -170 c 0,20,21
 260 -154 260 -154 260 -120 c 0,22,23
 260 -61 260 -61 316 -14 c 1,24,-1
 321 -10 l 1,25,26
 283 -12 283 -12 279 -12 c 0,27,28
 166 -12 166 -12 103 62 c 128,-1,29
 40 136 40 136 40 264 c 0,30,31
 40 393 40 393 108 459 c 1,32,33
 185 530 185 530 286 530 c 0,34,35
 408 530 408 530 455 429 c 1,36,37
 490 350 490 350 490 225 c 1,38,-1
 133 225 l 1,39,40
 142 147 142 147 179 110 c 0,41,42
 215 73 215 73 294 73 c 0,0,1
285 441 m 2,43,-1
 283 441 l 2,44,45
 166 441 166 441 133 304 c 1,46,-1
 412 304 l 1,47,48
 392 441 392 441 285 441 c 2,43,-1
EndSplineSet
EndChar
StartChar: Ecaron
Encoding: 282 282 220
Width: 630
Flags: W
LayerCount: 2
Fore
SplineSet
154 960 m 1,0,-1
 228 960 l 1,1,-1
 306 867 l 1,2,-1
 356 867 l 1,3,-1
 436 960 l 1,4,-1
 508 960 l 1,5,-1
 380 789 l 1,6,-1
 282 789 l 1,7,-1
 154 960 l 1,0,-1
80 720 m 1,8,-1
 579 720 l 1,9,-1
 579 642 l 1,10,-1
 175 642 l 1,11,-1
 175 423 l 1,12,-1
 507 423 l 1,13,-1
 507 345 l 1,14,-1
 175 345 l 1,15,-1
 175 78 l 1,16,-1
 590 78 l 1,17,-1
 590 0 l 1,18,-1
 80 0 l 1,19,-1
 80 720 l 1,8,-1
EndSplineSet
EndChar
StartChar: ecaron
Encoding: 283 283 221
Width: 530
Flags: W
LayerCount: 2
Fore
SplineSet
103 740 m 1,0,-1
 177 740 l 1,1,-1
 255 647 l 1,2,-1
 305 647 l 1,3,-1
 385 740 l 1,4,-1
 457 740 l 1,5,-1
 329 569 l 1,6,-1
 231 569 l 1,7,-1
 103 740 l 1,0,-1
475 136 m 1,8,-1
 475 40 l 1,9,10
 393 -12 393 -12 279 -12 c 0,11,12
 166 -12 166 -12 103 62 c 128,-1,13
 40 136 40 136 40 264 c 0,14,15
 40 393 40 393 108 459 c 1,16,17
 185 530 185 530 286 530 c 0,18,19
 408 530 408 530 455 429 c 1,20,21
 490 350 490 350 490 225 c 1,22,-1
 133 225 l 1,23,24
 142 147 142 147 179 110 c 0,25,26
 215 73 215 73 294 73 c 0,27,28
 338 73 338 73 388 88 c 0,29,30
 438 102 438 102 475 136 c 1,8,-1
133 304 m 1,31,-1
 412 304 l 1,32,33
 392 441 392 441 285 441 c 2,34,-1
 283 441 l 2,35,36
 166 441 166 441 133 304 c 1,31,-1
EndSplineSet
EndChar
StartChar: Gcircumflex
Encoding: 284 284 222
Width: 730
Flags: W
LayerCount: 2
Fore
SplineSet
516 779 m 1,0,-1
 436 872 l 1,1,-1
 386 872 l 1,2,-1
 308 779 l 1,3,-1
 234 779 l 1,4,-1
 362 950 l 1,5,-1
 460 950 l 1,6,-1
 588 779 l 1,7,-1
 516 779 l 1,0,-1
671 37 m 1,8,-1
 650 28 l 1,9,10
 560 -12 560 -12 446 -12 c 0,11,12
 50 -12 50 -12 50 353 c 1,13,14
 52 728 52 728 448 728 c 0,15,16
 580 728 580 728 656 682 c 1,17,-1
 646 589 l 1,18,19
 608 648 608 648 448 648 c 0,20,21
 148 648 148 648 148 363 c 0,22,23
 148 73 148 73 445 73 c 0,24,25
 514 73 514 73 578 99 c 1,26,-1
 578 309 l 1,27,-1
 392 309 l 1,28,-1
 392 382 l 1,29,-1
 671 382 l 1,30,-1
 671 37 l 1,8,-1
EndSplineSet
EndChar
StartChar: Gbreve
Encoding: 286 286 224
Width: 730
Flags: W
LayerCount: 2
Fore
SplineSet
308 955 m 1,0,-1
 308 948 l 2,1,2
 308 916 308 916 334 893 c 128,-1,3
 360 870 360 870 397 870 c 0,4,5
 433 870 433 870 459 893 c 0,6,7
 484 915 484 915 484 948 c 2,8,-1
 484 955 l 1,9,-1
 557 955 l 1,10,-1
 557 950 l 2,11,12
 557 890 557 890 512 849 c 1,13,14
 465 808 465 808 398 808 c 0,15,16
 332 808 332 808 285 849 c 0,17,18
 239 889 239 889 239 950 c 2,19,-1
 239 955 l 1,20,-1
 308 955 l 1,0,-1
671 37 m 1,21,-1
 650 28 l 1,22,23
 560 -12 560 -12 446 -12 c 0,24,25
 50 -12 50 -12 50 353 c 1,26,27
 52 728 52 728 448 728 c 0,28,29
 580 728 580 728 656 682 c 1,30,-1
 646 589 l 1,31,32
 608 648 608 648 448 648 c 0,33,34
 148 648 148 648 148 363 c 0,35,36
 148 73 148 73 445 73 c 0,37,38
 514 73 514 73 578 99 c 1,39,-1
 578 309 l 1,40,-1
 392 309 l 1,41,-1
 392 382 l 1,42,-1
 671 382 l 1,43,-1
 671 37 l 1,21,-1
EndSplineSet
EndChar
StartChar: gbreve
Encoding: 287 287 225
Width: 561
Flags: W
LayerCount: 2
Fore
SplineSet
211 725 m 1,0,-1
 211 718 l 2,1,2
 211 686 211 686 237 663 c 128,-1,3
 263 640 263 640 300 640 c 0,4,5
 336 640 336 640 362 663 c 0,6,7
 387 685 387 685 387 718 c 2,8,-1
 387 725 l 1,9,-1
 460 725 l 1,10,-1
 460 720 l 2,11,12
 460 660 460 660 415 619 c 1,13,14
 368 578 368 578 301 578 c 0,15,16
 235 578 235 578 188 619 c 0,17,18
 142 659 142 659 142 720 c 2,19,-1
 142 725 l 1,20,-1
 211 725 l 1,0,-1
491 538 m 1,21,-1
 491 -45 l 1,22,23
 488 -238 488 -238 266 -240 c 1,24,25
 117 -240 117 -240 64 -160 c 1,26,-1
 127 -117 l 1,27,28
 176 -160 176 -160 268 -160 c 0,29,30
 356 -160 356 -160 380 -119 c 1,31,32
 403 -75 403 -75 403 -45 c 2,33,-1
 403 77 l 1,34,35
 367 5 367 5 281 -10 c 1,36,37
 179 -10 179 -10 115 72 c 0,38,39
 50 155 50 155 50 275 c 128,-1,40
 50 395 50 395 115 466 c 1,41,42
 181 536 181 536 278 536 c 2,43,-1
 281 536 l 1,44,45
 351 535 351 535 408 470 c 1,46,-1
 408 538 l 1,47,-1
 491 538 l 1,21,-1
149 266 m 1,48,49
 150 188 150 188 186 131 c 1,50,51
 220 74 220 74 284 74 c 0,52,53
 390 74 390 74 403 206 c 1,54,-1
 403 309 l 1,55,56
 395 452 395 452 284 452 c 0,57,58
 227 452 227 452 189 405 c 1,59,60
 151 356 151 356 149 266 c 1,48,49
EndSplineSet
EndChar
StartChar: Gdotaccent
Encoding: 288 288 226
Width: 730
Flags: W
LayerCount: 2
Fore
SplineSet
442 801 m 1,0,-1
 342 801 l 1,1,-1
 342 905 l 1,2,-1
 442 905 l 1,3,-1
 442 801 l 1,0,-1
671 37 m 1,4,-1
 650 28 l 1,5,6
 560 -12 560 -12 446 -12 c 0,7,8
 50 -12 50 -12 50 353 c 1,9,10
 52 728 52 728 448 728 c 0,11,12
 580 728 580 728 656 682 c 1,13,-1
 646 589 l 1,14,15
 608 648 608 648 448 648 c 0,16,17
 148 648 148 648 148 363 c 0,18,19
 148 73 148 73 445 73 c 0,20,21
 514 73 514 73 578 99 c 1,22,-1
 578 309 l 1,23,-1
 392 309 l 1,24,-1
 392 382 l 1,25,-1
 671 382 l 1,26,-1
 671 37 l 1,4,-1
EndSplineSet
EndChar
StartChar: gdotaccent
Encoding: 289 289 227
Width: 561
Flags: W
LayerCount: 2
Fore
SplineSet
349 601 m 1,0,-1
 249 601 l 1,1,-1
 249 705 l 1,2,-1
 349 705 l 1,3,-1
 349 601 l 1,0,-1
491 538 m 1,4,-1
 491 -45 l 1,5,6
 488 -238 488 -238 266 -240 c 1,7,8
 117 -240 117 -240 64 -160 c 1,9,-1
 127 -117 l 1,10,11
 176 -160 176 -160 268 -160 c 0,12,13
 356 -160 356 -160 380 -119 c 1,14,15
 403 -75 403 -75 403 -45 c 2,16,-1
 403 77 l 1,17,18
 367 5 367 5 281 -10 c 1,19,20
 179 -10 179 -10 115 72 c 0,21,22
 50 155 50 155 50 275 c 128,-1,23
 50 395 50 395 115 466 c 1,24,25
 181 536 181 536 278 536 c 2,26,-1
 281 536 l 1,27,28
 351 535 351 535 408 470 c 1,29,-1
 408 538 l 1,30,-1
 491 538 l 1,4,-1
149 266 m 1,31,32
 150 188 150 188 186 131 c 1,33,34
 220 74 220 74 284 74 c 0,35,36
 390 74 390 74 403 206 c 1,37,-1
 403 309 l 1,38,39
 395 452 395 452 284 452 c 0,40,41
 227 452 227 452 189 405 c 1,42,43
 151 356 151 356 149 266 c 1,31,32
EndSplineSet
EndChar
StartChar: Gcommaaccent
Encoding: 290 290 228
Width: 730
Flags: W
LayerCount: 2
Fore
SplineSet
671 37 m 1,0,-1
 650 28 l 1,1,2
 560 -12 560 -12 446 -12 c 0,3,4
 50 -12 50 -12 50 353 c 1,5,6
 52 728 52 728 448 728 c 0,7,8
 580 728 580 728 656 682 c 1,9,-1
 646 589 l 1,10,11
 608 648 608 648 448 648 c 0,12,13
 148 648 148 648 148 363 c 0,14,15
 148 73 148 73 445 73 c 0,16,17
 514 73 514 73 578 99 c 1,18,-1
 578 309 l 1,19,-1
 392 309 l 1,20,-1
 392 382 l 1,21,-1
 671 382 l 1,22,-1
 671 37 l 1,0,-1
482 -46 m 1,23,-1
 482 -131 l 2,24,25
 482 -223 482 -223 440 -250 c 1,26,-1
 371 -250 l 1,27,28
 413 -212 413 -212 413 -186 c 2,29,-1
 413 -134 l 1,30,-1
 360 -134 l 1,31,-1
 360 -46 l 1,32,-1
 482 -46 l 1,23,-1
EndSplineSet
EndChar
StartChar: gcommaaccent
Encoding: 291 291 229
Width: 561
Flags: W
LayerCount: 2
Fore
SplineSet
228 577 m 1,0,-1
 228 681 l 2,1,2
 228 713 228 713 280 756 c 1,3,-1
 346 756 l 1,4,5
 288 716 288 716 288 690 c 0,6,7
 288 683 288 683 289 681 c 1,8,-1
 345 681 l 1,9,-1
 345 577 l 1,10,-1
 228 577 l 1,0,-1
491 538 m 1,11,-1
 491 -45 l 1,12,13
 488 -238 488 -238 266 -240 c 1,14,15
 117 -240 117 -240 64 -160 c 1,16,-1
 127 -117 l 1,17,18
 176 -160 176 -160 268 -160 c 0,19,20
 356 -160 356 -160 380 -119 c 1,21,22
 403 -75 403 -75 403 -45 c 2,23,-1
 403 77 l 1,24,25
 367 5 367 5 281 -10 c 1,26,27
 179 -10 179 -10 115 72 c 0,28,29
 50 155 50 155 50 275 c 128,-1,30
 50 395 50 395 115 466 c 1,31,32
 181 536 181 536 278 536 c 2,33,-1
 281 536 l 1,34,35
 351 535 351 535 408 470 c 1,36,-1
 408 538 l 1,37,-1
 491 538 l 1,11,-1
149 266 m 1,38,39
 150 188 150 188 186 131 c 1,40,41
 220 74 220 74 284 74 c 0,42,43
 390 74 390 74 403 206 c 1,44,-1
 403 309 l 1,45,46
 395 452 395 452 284 452 c 0,47,48
 227 452 227 452 189 405 c 1,49,50
 151 356 151 356 149 266 c 1,38,39
EndSplineSet
EndChar
StartChar: Hcircumflex
Encoding: 292 292 230
Width: 750
Flags: W
LayerCount: 2
Fore
SplineSet
486 779 m 1,0,-1
 406 872 l 1,1,-1
 356 872 l 1,2,-1
 278 779 l 1,3,-1
 204 779 l 1,4,-1
 332 950 l 1,5,-1
 430 950 l 1,6,-1
 558 779 l 1,7,-1
 486 779 l 1,0,-1
595 428 m 1,8,-1
 595 725 l 1,9,-1
 690 725 l 1,10,-1
 690 -3 l 1,11,-1
 595 -3 l 1,12,-1
 595 345 l 1,13,-1
 153 345 l 1,14,-1
 153 -3 l 1,15,-1
 60 -3 l 1,16,-1
 60 725 l 1,17,-1
 153 725 l 1,18,-1
 153 428 l 1,19,-1
 595 428 l 1,8,-1
EndSplineSet
EndChar
StartChar: hcircumflex
Encoding: 293 293 231
Width: 572
Flags: W
LayerCount: 2
Fore
SplineSet
415 779 m 1,0,-1
 335 872 l 1,1,-1
 285 872 l 1,2,-1
 207 779 l 1,3,-1
 133 779 l 1,4,-1
 261 950 l 1,5,-1
 359 950 l 1,6,-1
 487 779 l 1,7,-1
 415 779 l 1,0,-1
414 -3 m 1,8,-1
 414 345 l 2,9,10
 414 466 414 466 307 466 c 0,11,12
 224 466 224 466 199 412 c 0,13,14
 173 355 173 355 173 284 c 2,15,-1
 173 -3 l 1,16,-1
 80 -3 l 1,17,-1
 80 740 l 1,18,-1
 173 740 l 1,19,-1
 173 441 l 1,20,21
 219 538 219 538 301 538 c 0,22,23
 512 538 512 538 512 362 c 2,24,-1
 512 -3 l 1,25,-1
 414 -3 l 1,8,-1
EndSplineSet
EndChar
StartChar: Hbar
Encoding: 294 294 232
Width: 790
Flags: W
LayerCount: 2
Fore
SplineSet
100 640 m 1,0,-1
 100 725 l 1,1,-1
 192 725 l 1,2,-1
 192 640 l 1,3,-1
 592 640 l 1,4,-1
 592 725 l 1,5,-1
 691 725 l 1,6,-1
 691 640 l 1,7,-1
 761 640 l 1,8,-1
 761 578 l 1,9,-1
 691 578 l 1,10,-1
 691 -3 l 1,11,-1
 592 -3 l 1,12,-1
 592 345 l 1,13,-1
 192 345 l 1,14,-1
 192 -3 l 1,15,-1
 100 -3 l 1,16,-1
 100 578 l 1,17,-1
 30 578 l 1,18,-1
 30 640 l 1,19,-1
 100 640 l 1,0,-1
192 428 m 1,20,-1
 592 428 l 1,21,-1
 592 578 l 1,22,-1
 192 578 l 1,23,-1
 192 428 l 1,20,-1
EndSplineSet
EndChar
StartChar: hbar
Encoding: 295 295 233
Width: 635
Flags: W
LayerCount: 2
Fore
SplineSet
216 578 m 1,0,-1
 216 406 l 1,1,2
 262 503 262 503 365 503 c 0,3,4
 466 503 466 503 522 447 c 1,5,6
 576 390 576 390 576 291 c 2,7,-1
 576 -3 l 1,8,-1
 478 -3 l 1,9,-1
 478 274 l 2,10,11
 478 330 478 330 458 382 c 0,12,13
 439 431 439 431 360 431 c 0,14,15
 282 431 282 431 249 378 c 0,16,17
 216 324 216 324 216 261 c 2,18,-1
 216 -3 l 1,19,-1
 123 -3 l 1,20,-1
 123 578 l 1,21,-1
 20 578 l 1,22,-1
 20 640 l 1,23,-1
 123 640 l 1,24,-1
 123 740 l 1,25,-1
 216 740 l 1,26,-1
 216 640 l 1,27,-1
 325 640 l 1,28,-1
 325 578 l 1,29,-1
 216 578 l 1,0,-1
EndSplineSet
EndChar
StartChar: Itilde
Encoding: 296 296 234
Width: 331
Flags: W
LayerCount: 2
Fore
SplineSet
117 873 m 0,0,1
 63 873 63 873 37 799 c 1,2,-1
 -15 799 l 1,3,4
 -4 942 -4 942 125 945 c 0,5,6
 156 945 156 945 189 909 c 1,7,8
 221 871 221 871 243 871 c 0,9,10
 298 871 298 871 324 940 c 1,11,-1
 375 940 l 1,12,13
 364 801 364 801 241 800 c 0,14,15
 205 800 205 800 172 837 c 1,16,17
 138 873 138 873 117 873 c 0,0,1
125 -6 m 1,18,-1
 125 731 l 1,19,-1
 215 731 l 1,20,-1
 215 -6 l 1,21,-1
 125 -6 l 1,18,-1
EndSplineSet
EndChar
StartChar: itilde
Encoding: 297 297 235
Width: 359
Flags: W
LayerCount: 2
Fore
SplineSet
117 636 m 0,0,1
 63 636 63 636 37 562 c 1,2,-1
 -15 562 l 1,3,4
 -4 705 -4 705 125 708 c 0,5,6
 156 708 156 708 189 672 c 1,7,8
 221 634 221 634 243 634 c 0,9,10
 298 634 298 634 324 703 c 1,11,-1
 375 703 l 1,12,13
 364 564 364 564 241 563 c 0,14,15
 205 563 205 563 172 600 c 1,16,17
 138 636 138 636 117 636 c 0,0,1
209 521 m 1,18,-1
 209 -3 l 1,19,-1
 126 -3 l 1,20,-1
 126 521 l 1,21,-1
 209 521 l 1,18,-1
EndSplineSet
EndChar
StartChar: Imacron
Encoding: 298 298 236
Width: 331
Flags: W
LayerCount: 2
Fore
SplineSet
21 823 m 1,0,-1
 21 885 l 1,1,-1
 311 885 l 1,2,-1
 311 823 l 1,3,-1
 21 823 l 1,0,-1
125 -6 m 1,4,-1
 125 731 l 1,5,-1
 215 731 l 1,6,-1
 215 -6 l 1,7,-1
 125 -6 l 1,4,-1
EndSplineSet
EndChar
StartChar: imacron
Encoding: 299 299 237
Width: 290
Flags: W
LayerCount: 2
Fore
SplineSet
1 615 m 1,0,-1
 1 677 l 1,1,-1
 291 677 l 1,2,-1
 291 615 l 1,3,-1
 1 615 l 1,0,-1
187 521 m 1,4,-1
 187 -3 l 1,5,-1
 104 -3 l 1,6,-1
 104 521 l 1,7,-1
 187 521 l 1,4,-1
EndSplineSet
EndChar
StartChar: Ibreve
Encoding: 300 300 238
Width: 331
Flags: W
LayerCount: 2
Fore
SplineSet
80 955 m 1,0,-1
 80 948 l 2,1,2
 80 916 80 916 106 893 c 128,-1,3
 132 870 132 870 169 870 c 0,4,5
 205 870 205 870 231 893 c 0,6,7
 256 915 256 915 256 948 c 2,8,-1
 256 955 l 1,9,-1
 329 955 l 1,10,-1
 329 950 l 2,11,12
 329 890 329 890 284 849 c 1,13,14
 237 808 237 808 170 808 c 0,15,16
 104 808 104 808 57 849 c 0,17,18
 11 889 11 889 11 950 c 2,19,-1
 11 955 l 1,20,-1
 80 955 l 1,0,-1
125 -6 m 1,21,-1
 125 731 l 1,22,-1
 215 731 l 1,23,-1
 215 -6 l 1,24,-1
 125 -6 l 1,21,-1
EndSplineSet
EndChar
StartChar: ibreve
Encoding: 301 301 239
Width: 322
Flags: W
LayerCount: 2
Fore
SplineSet
79 725 m 1,0,-1
 79 718 l 2,1,2
 79 686 79 686 105 663 c 128,-1,3
 131 640 131 640 168 640 c 0,4,5
 204 640 204 640 230 663 c 0,6,7
 255 685 255 685 255 718 c 2,8,-1
 255 725 l 1,9,-1
 328 725 l 1,10,-1
 328 720 l 2,11,12
 328 660 328 660 283 619 c 1,13,14
 236 578 236 578 169 578 c 0,15,16
 103 578 103 578 56 619 c 0,17,18
 10 659 10 659 10 720 c 2,19,-1
 10 725 l 1,20,-1
 79 725 l 1,0,-1
203 521 m 1,21,-1
 203 -3 l 1,22,-1
 120 -3 l 1,23,-1
 120 521 l 1,24,-1
 203 521 l 1,21,-1
EndSplineSet
EndChar
StartChar: Iogonek
Encoding: 302 302 240
Width: 289
Flags: W
LayerCount: 2
Fore
SplineSet
223 -101 m 1,0,-1
 230 -150 l 1,1,2
 195 -206 195 -206 149 -206 c 0,3,4
 71 -206 71 -206 50 -170 c 0,5,6
 40 -154 40 -154 40 -120 c 0,7,8
 40 -61 40 -61 96 -14 c 1,9,-1
 105 -6 l 1,10,-1
 100 -6 l 1,11,-1
 100 731 l 1,12,-1
 190 731 l 1,13,-1
 190 -6 l 1,14,-1
 158 -6 l 1,15,-1
 152 -14 l 1,16,17
 122 -52 122 -52 122 -95 c 256,18,19
 122 -138 122 -138 156 -138 c 0,20,21
 198 -138 198 -138 223 -101 c 1,0,-1
EndSplineSet
EndChar
StartChar: iogonek
Encoding: 303 303 241
Width: 260
Flags: W
LayerCount: 2
Fore
SplineSet
180 601 m 1,0,-1
 80 601 l 1,1,-1
 80 699 l 1,2,-1
 180 699 l 1,3,-1
 180 601 l 1,0,-1
193 -101 m 1,4,-1
 200 -150 l 1,5,6
 165 -206 165 -206 119 -206 c 0,7,8
 41 -206 41 -206 20 -170 c 0,9,10
 10 -154 10 -154 10 -120 c 0,11,12
 10 -61 10 -61 66 -14 c 1,13,-1
 83 1 l 1,14,-1
 87 1 l 1,15,-1
 87 521 l 1,16,-1
 178 521 l 1,17,-1
 178 -3 l 1,18,-1
 131 -3 l 1,19,-1
 122 -14 l 2,20,21
 92 -52 92 -52 92 -95 c 256,22,23
 92 -138 92 -138 126 -138 c 0,24,25
 168 -138 168 -138 193 -101 c 1,4,-1
EndSplineSet
EndChar
StartChar: Idotaccent
Encoding: 304 304 242
Width: 289
Flags: W
LayerCount: 2
Fore
SplineSet
191 801 m 1,0,-1
 91 801 l 1,1,-1
 91 905 l 1,2,-1
 191 905 l 1,3,-1
 191 801 l 1,0,-1
100 -6 m 1,4,-1
 100 731 l 1,5,-1
 190 731 l 1,6,-1
 190 -6 l 1,7,-1
 100 -6 l 1,4,-1
EndSplineSet
EndChar
StartChar: dotlessi
Encoding: 305 305 243
Width: 266
Flags: W
LayerCount: 2
Fore
SplineSet
175 521 m 1,0,-1
 175 -3 l 1,1,-1
 92 -3 l 1,2,-1
 92 521 l 1,3,-1
 175 521 l 1,0,-1
EndSplineSet
EndChar
StartChar: IJ
Encoding: 306 306 244
Width: 607
Flags: W
LayerCount: 2
Fore
SplineSet
70 -6 m 1,0,-1
 70 731 l 1,1,-1
 152 731 l 1,2,-1
 152 -6 l 1,3,-1
 70 -6 l 1,0,-1
538 726 m 1,4,-1
 538 189 l 2,5,6
 538 79 538 79 486 27 c 1,7,8
 427 -34 427 -34 244 -35 c 1,9,-1
 244 44 l 1,10,11
 357 44 357 44 401 73 c 0,12,13
 444 101 444 101 444 179 c 2,14,-1
 444 726 l 1,15,-1
 538 726 l 1,4,-1
EndSplineSet
EndChar
StartChar: ij
Encoding: 307 307 245
Width: 512
Flags: W
LayerCount: 2
Fore
SplineSet
179 699 m 1,0,-1
 179 601 l 1,1,-1
 79 601 l 1,2,-1
 79 699 l 1,3,-1
 179 699 l 1,0,-1
460 699 m 1,4,-1
 460 601 l 1,5,-1
 358 601 l 1,6,-1
 358 699 l 1,7,-1
 460 699 l 1,4,-1
455 522 m 1,8,-1
 455 -48 l 2,9,10
 455 -240 455 -240 252 -240 c 0,11,12
 228 -240 228 -240 221 -239 c 1,13,-1
 210 -173 l 1,14,15
 362 -173 362 -173 362 -72 c 2,16,-1
 362 522 l 1,17,-1
 455 522 l 1,8,-1
177 521 m 1,18,-1
 177 -3 l 1,19,-1
 86 -3 l 1,20,-1
 86 521 l 1,21,-1
 177 521 l 1,18,-1
EndSplineSet
EndChar
StartChar: Jcircumflex
Encoding: 308 308 246
Width: 442
Flags: W
LayerCount: 2
Fore
SplineSet
417 779 m 1,0,-1
 337 872 l 1,1,-1
 287 872 l 1,2,-1
 209 779 l 1,3,-1
 135 779 l 1,4,-1
 263 950 l 1,5,-1
 361 950 l 1,6,-1
 489 779 l 1,7,-1
 417 779 l 1,0,-1
355 726 m 1,8,-1
 355 24 l 2,9,10
 355 -118 355 -118 301 -180 c 1,11,12
 246 -240 246 -240 60 -240 c 1,13,-1
 60 -167 l 1,14,15
 170 -167 170 -167 217 -137 c 1,16,17
 262 -107 262 -107 262 24 c 2,18,-1
 262 726 l 1,19,-1
 355 726 l 1,8,-1
EndSplineSet
EndChar
StartChar: jcircumflex
Encoding: 309 309 247
Width: 300
Flags: W
LayerCount: 2
Fore
SplineSet
253 570 m 1,0,-1
 173 663 l 1,1,-1
 123 663 l 1,2,-1
 45 570 l 1,3,-1
 -29 570 l 1,4,-1
 99 741 l 1,5,-1
 197 741 l 1,6,-1
 325 570 l 1,7,-1
 253 570 l 1,0,-1
195 500 m 1,8,-1
 195 -48 l 2,9,10
 195 -200 195 -200 -8 -200 c 0,11,12
 -32 -200 -32 -200 -39 -199 c 1,13,-1
 -50 -133 l 1,14,15
 102 -133 102 -133 102 -72 c 2,16,-1
 102 500 l 1,17,-1
 195 500 l 1,8,-1
EndSplineSet
EndChar
StartChar: Kcommaaccent
Encoding: 310 310 248
Width: 661
Flags: W
LayerCount: 2
Fore
SplineSet
176 725 m 1,0,-1
 176 408 l 1,1,-1
 489 725 l 1,2,-1
 613 725 l 1,3,-1
 277 409 l 1,4,-1
 642 0 l 1,5,-1
 522 0 l 1,6,-1
 225 364 l 1,7,-1
 176 314 l 1,8,-1
 176 0 l 1,9,-1
 80 0 l 1,10,-1
 80 725 l 1,11,-1
 176 725 l 1,0,-1
391 -46 m 1,12,-1
 391 -131 l 2,13,14
 391 -223 391 -223 349 -250 c 1,15,-1
 280 -250 l 1,16,17
 322 -212 322 -212 322 -186 c 2,18,-1
 322 -134 l 1,19,-1
 269 -134 l 1,20,-1
 269 -46 l 1,21,-1
 391 -46 l 1,12,-1
EndSplineSet
EndChar
StartChar: kcommaaccent
Encoding: 311 311 249
Width: 535
Flags: W
LayerCount: 2
Fore
SplineSet
375 520 m 1,0,-1
 494 520 l 1,1,-1
 276 327 l 1,2,-1
 505 -3 l 1,3,-1
 389 -3 l 1,4,-1
 221 278 l 1,5,-1
 157 214 l 1,6,-1
 157 -3 l 1,7,-1
 70 -3 l 1,8,-1
 70 740 l 1,9,-1
 157 740 l 1,10,-1
 157 312 l 1,11,-1
 375 520 l 1,0,-1
314 -46 m 1,12,-1
 314 -131 l 2,13,14
 314 -223 314 -223 272 -250 c 1,15,-1
 203 -250 l 1,16,17
 245 -212 245 -212 245 -186 c 2,18,-1
 245 -134 l 1,19,-1
 192 -134 l 1,20,-1
 192 -46 l 1,21,-1
 314 -46 l 1,12,-1
EndSplineSet
EndChar
StartChar: kgreenlandic
Encoding: 312 312 250
Width: 544
Flags: W
LayerCount: 2
Fore
SplineSet
380 500 m 1,0,-1
 494 500 l 1,1,-1
 274 310 l 1,2,-1
 505 -3 l 1,3,-1
 399 -3 l 1,4,-1
 223 266 l 1,5,-1
 152 204 l 1,6,-1
 152 -3 l 1,7,-1
 70 -3 l 1,8,-1
 70 500 l 1,9,-1
 152 500 l 1,10,-1
 152 293 l 1,11,-1
 380 500 l 1,0,-1
EndSplineSet
EndChar
StartChar: Lacute
Encoding: 313 313 251
Width: 589
Flags: W
LayerCount: 2
Fore
SplineSet
351 920 m 1,0,-1
 173 794 l 1,1,-1
 94 794 l 1,2,-1
 206 920 l 1,3,-1
 351 920 l 1,0,-1
157 74 m 1,4,-1
 549 74 l 1,5,-1
 549 0 l 1,6,-1
 60 0 l 1,7,-1
 60 725 l 1,8,-1
 157 725 l 1,9,-1
 157 74 l 1,4,-1
EndSplineSet
EndChar
StartChar: lacute
Encoding: 314 314 252
Width: 260
Flags: W
LayerCount: 2
Fore
SplineSet
326 920 m 1,0,-1
 148 794 l 1,1,-1
 69 794 l 1,2,-1
 181 920 l 1,3,-1
 326 920 l 1,0,-1
84 740 m 1,4,-1
 176 740 l 1,5,-1
 176 -3 l 1,6,-1
 84 -3 l 1,7,-1
 84 740 l 1,4,-1
EndSplineSet
EndChar
StartChar: Lcommaaccent
Encoding: 315 315 253
Width: 589
Flags: W
LayerCount: 2
Fore
SplineSet
157 74 m 1,0,-1
 549 74 l 1,1,-1
 549 0 l 1,2,-1
 60 0 l 1,3,-1
 60 725 l 1,4,-1
 157 725 l 1,5,-1
 157 74 l 1,0,-1
365 -46 m 1,6,-1
 365 -131 l 2,7,8
 365 -223 365 -223 323 -250 c 1,9,-1
 254 -250 l 1,10,11
 296 -212 296 -212 296 -186 c 2,12,-1
 296 -134 l 1,13,-1
 243 -134 l 1,14,-1
 243 -46 l 1,15,-1
 365 -46 l 1,6,-1
EndSplineSet
EndChar
StartChar: lcommaaccent
Encoding: 316 316 254
Width: 260
Flags: W
LayerCount: 2
Fore
SplineSet
84 740 m 1,0,-1
 176 740 l 1,1,-1
 176 -3 l 1,2,-1
 84 -3 l 1,3,-1
 84 740 l 1,0,-1
167 -46 m 1,4,-1
 167 -131 l 2,5,6
 167 -223 167 -223 125 -250 c 1,7,-1
 56 -250 l 1,8,9
 98 -212 98 -212 98 -186 c 2,10,-1
 98 -134 l 1,11,-1
 45 -134 l 1,12,-1
 45 -46 l 1,13,-1
 167 -46 l 1,4,-1
EndSplineSet
EndChar
StartChar: Lcaron
Encoding: 317 317 255
Width: 589
Flags: W
LayerCount: 2
Fore
SplineSet
157 74 m 1,0,-1
 549 74 l 1,1,-1
 549 0 l 1,2,-1
 60 0 l 1,3,-1
 60 725 l 1,4,-1
 157 725 l 1,5,-1
 157 74 l 1,0,-1
371 720 m 1,6,-1
 371 620 l 2,7,8
 371 540 371 540 346 515 c 1,9,-1
 278 515 l 1,10,11
 309 552 309 552 309 610 c 0,12,13
 309 618 309 618 308 620 c 1,14,-1
 249 620 l 1,15,-1
 249 720 l 1,16,-1
 371 720 l 1,6,-1
EndSplineSet
EndChar
StartChar: lcaron
Encoding: 318 318 256
Width: 336
Flags: W
LayerCount: 2
Fore
SplineSet
84 740 m 1,0,-1
 176 740 l 1,1,-1
 176 -3 l 1,2,-1
 84 -3 l 1,3,-1
 84 740 l 1,0,-1
351 720 m 1,4,-1
 351 620 l 2,5,6
 351 540 351 540 326 515 c 1,7,-1
 258 515 l 1,8,9
 289 552 289 552 289 610 c 0,10,11
 289 618 289 618 288 620 c 1,12,-1
 229 620 l 1,13,-1
 229 720 l 1,14,-1
 351 720 l 1,4,-1
EndSplineSet
EndChar
StartChar: Ldot
Encoding: 319 319 257
Width: 589
Flags: W
LayerCount: 2
Fore
SplineSet
157 74 m 1,0,-1
 549 74 l 1,1,-1
 549 0 l 1,2,-1
 60 0 l 1,3,-1
 60 725 l 1,4,-1
 157 725 l 1,5,-1
 157 74 l 1,0,-1
432 264 m 1,6,-1
 324 264 l 1,7,-1
 324 372 l 1,8,-1
 432 372 l 1,9,-1
 432 264 l 1,6,-1
EndSplineSet
EndChar
StartChar: ldot
Encoding: 320 320 258
Width: 353
Flags: W
LayerCount: 2
Fore
SplineSet
84 740 m 1,0,-1
 176 740 l 1,1,-1
 176 -3 l 1,2,-1
 84 -3 l 1,3,-1
 84 740 l 1,0,-1
333 264 m 1,4,-1
 225 264 l 1,5,-1
 225 372 l 1,6,-1
 333 372 l 1,7,-1
 333 264 l 1,4,-1
EndSplineSet
EndChar
StartChar: Lslash
Encoding: 321 321 259
Width: 648
Flags: W
LayerCount: 2
Fore
SplineSet
32 360 m 1,0,-1
 140 400 l 1,1,-1
 140 725 l 1,2,-1
 222 725 l 1,3,-1
 222 430 l 1,4,-1
 356 479 l 1,5,-1
 356 412 l 1,6,-1
 222 364 l 1,7,-1
 222 83 l 1,8,-1
 609 83 l 1,9,-1
 609 0 l 1,10,-1
 140 0 l 1,11,-1
 140 334 l 1,12,-1
 32 295 l 1,13,-1
 32 360 l 1,0,-1
EndSplineSet
EndChar
StartChar: lslash
Encoding: 322 322 260
Width: 328
Flags: W
LayerCount: 2
Fore
SplineSet
122 740 m 1,0,-1
 206 740 l 1,1,-1
 206 435 l 1,2,-1
 326 479 l 1,3,-1
 326 412 l 1,4,-1
 206 369 l 1,5,-1
 206 -3 l 1,6,-1
 122 -3 l 1,7,-1
 122 339 l 1,8,-1
 2 295 l 1,9,-1
 2 360 l 1,10,-1
 122 405 l 1,11,-1
 122 740 l 1,0,-1
EndSplineSet
EndChar
StartChar: Nacute
Encoding: 323 323 261
Width: 770
Flags: W
LayerCount: 2
Fore
SplineSet
564 920 m 1,0,-1
 386 794 l 1,1,-1
 307 794 l 1,2,-1
 419 920 l 1,3,-1
 564 920 l 1,0,-1
710 0 m 1,4,-1
 618 0 l 1,5,-1
 152 575 l 1,6,-1
 152 -3 l 1,7,-1
 60 -3 l 1,8,-1
 60 725 l 1,9,-1
 145 725 l 1,10,-1
 615 146 l 1,11,-1
 615 725 l 1,12,-1
 710 725 l 1,13,-1
 710 0 l 1,4,-1
EndSplineSet
EndChar
StartChar: Ncommaaccent
Encoding: 325 325 263
Width: 770
Flags: W
LayerCount: 2
Fore
SplineSet
710 0 m 1,0,-1
 618 0 l 1,1,-1
 152 575 l 1,2,-1
 152 -3 l 1,3,-1
 60 -3 l 1,4,-1
 60 725 l 1,5,-1
 145 725 l 1,6,-1
 615 146 l 1,7,-1
 615 725 l 1,8,-1
 710 725 l 1,9,-1
 710 0 l 1,0,-1
437 -46 m 1,10,-1
 437 -131 l 2,11,12
 437 -223 437 -223 395 -250 c 1,13,-1
 326 -250 l 1,14,15
 368 -212 368 -212 368 -186 c 2,16,-1
 368 -134 l 1,17,-1
 315 -134 l 1,18,-1
 315 -46 l 1,19,-1
 437 -46 l 1,10,-1
EndSplineSet
EndChar
StartChar: ncommaaccent
Encoding: 326 326 264
Width: 548
Flags: W
LayerCount: 2
Fore
SplineSet
406 -3 m 1,0,-1
 406 319 l 2,1,2
 406 453 406 453 299 453 c 0,3,4
 143 453 143 453 143 255 c 2,5,-1
 143 -3 l 1,6,-1
 50 -3 l 1,7,-1
 50 536 l 1,8,-1
 143 536 l 1,9,-1
 143 413 l 1,10,11
 190 538 190 538 301 538 c 1,12,13
 499 536 499 536 499 345 c 2,14,-1
 499 -3 l 1,15,-1
 406 -3 l 1,0,-1
326 -46 m 1,16,-1
 326 -131 l 2,17,18
 326 -223 326 -223 284 -250 c 1,19,-1
 215 -250 l 1,20,21
 257 -212 257 -212 257 -186 c 2,22,-1
 257 -134 l 1,23,-1
 204 -134 l 1,24,-1
 204 -46 l 1,25,-1
 326 -46 l 1,16,-1
EndSplineSet
EndChar
StartChar: Ncaron
Encoding: 327 327 265
Width: 770
Flags: W
LayerCount: 2
Fore
SplineSet
213 930 m 1,0,-1
 287 930 l 1,1,-1
 365 837 l 1,2,-1
 415 837 l 1,3,-1
 495 930 l 1,4,-1
 567 930 l 1,5,-1
 439 759 l 1,6,-1
 341 759 l 1,7,-1
 213 930 l 1,0,-1
710 0 m 1,8,-1
 618 0 l 1,9,-1
 152 575 l 1,10,-1
 152 -3 l 1,11,-1
 60 -3 l 1,12,-1
 60 725 l 1,13,-1
 145 725 l 1,14,-1
 615 146 l 1,15,-1
 615 725 l 1,16,-1
 710 725 l 1,17,-1
 710 0 l 1,8,-1
EndSplineSet
EndChar
StartChar: ncaron
Encoding: 328 328 266
Width: 548
Flags: W
LayerCount: 2
Fore
SplineSet
103 740 m 1,0,-1
 177 740 l 1,1,-1
 255 647 l 1,2,-1
 305 647 l 1,3,-1
 385 740 l 1,4,-1
 457 740 l 1,5,-1
 329 569 l 1,6,-1
 231 569 l 1,7,-1
 103 740 l 1,0,-1
406 -3 m 1,8,-1
 406 319 l 2,9,10
 406 453 406 453 299 453 c 0,11,12
 143 453 143 453 143 255 c 2,13,-1
 143 -3 l 1,14,-1
 50 -3 l 1,15,-1
 50 536 l 1,16,-1
 143 536 l 1,17,-1
 143 413 l 1,18,19
 190 538 190 538 301 538 c 1,20,21
 499 536 499 536 499 345 c 2,22,-1
 499 -3 l 1,23,-1
 406 -3 l 1,8,-1
EndSplineSet
EndChar
StartChar: napostrophe
Encoding: 329 329 267
Width: 650
Flags: W
LayerCount: 2
Fore
SplineSet
124 730 m 1,0,-1
 124 631 l 2,1,2
 124 550 124 550 84 495 c 1,3,-1
 14 495 l 1,4,5
 54 547 54 547 54 623 c 2,6,-1
 54 631 l 1,7,-1
 2 631 l 1,8,-1
 2 730 l 1,9,-1
 124 730 l 1,0,-1
508 -3 m 1,10,-1
 508 319 l 2,11,12
 508 453 508 453 401 453 c 0,13,14
 245 453 245 453 245 255 c 2,15,-1
 245 -3 l 1,16,-1
 152 -3 l 1,17,-1
 152 536 l 1,18,-1
 245 536 l 1,19,-1
 245 413 l 1,20,21
 292 538 292 538 403 538 c 1,22,23
 601 536 601 536 601 345 c 2,24,-1
 601 -3 l 1,25,-1
 508 -3 l 1,10,-1
EndSplineSet
EndChar
StartChar: Eng
Encoding: 330 330 268
Width: 770
Flags: W
LayerCount: 2
Fore
SplineSet
680 725 m 1,0,-1
 680 49 l 2,1,2
 680 -176 680 -176 473 -190 c 1,3,-1
 471 -190 l 2,4,5
 404 -190 404 -190 363 -180 c 1,6,-1
 392 -98 l 1,7,8
 439 -112 439 -112 485 -112 c 0,9,10
 534 -112 534 -112 562 -82 c 1,11,12
 595 -43 595 -43 596 8 c 1,13,-1
 172 575 l 1,14,-1
 172 -3 l 1,15,-1
 90 -3 l 1,16,-1
 90 725 l 1,17,-1
 175 725 l 1,18,-1
 598 160 l 1,19,-1
 598 725 l 1,20,-1
 680 725 l 1,0,-1
EndSplineSet
EndChar
StartChar: eng
Encoding: 331 331 269
Width: 508
Flags: W
LayerCount: 2
Fore
SplineSet
143 -180 m 1,0,-1
 172 -108 l 1,1,2
 219 -122 219 -122 260 -122 c 0,3,4
 303 -122 303 -122 335 -75 c 0,5,6
 366 -29 366 -29 366 53 c 2,7,-1
 366 244 l 2,8,9
 366 435 366 435 269 435 c 0,10,11
 143 435 143 435 143 232 c 2,12,-1
 143 -3 l 1,13,-1
 50 -3 l 1,14,-1
 50 521 l 1,15,-1
 143 521 l 1,16,-1
 143 416 l 1,17,18
 181 511 181 511 276 511 c 0,19,20
 459 510 459 510 459 264 c 2,21,-1
 459 60 l 2,22,23
 459 -86 459 -86 398 -138 c 128,-1,24
 337 -190 337 -190 253 -190 c 2,25,-1
 251 -190 l 2,26,27
 184 -190 184 -190 143 -180 c 1,0,-1
EndSplineSet
EndChar
StartChar: Obreve
Encoding: 334 334 272
Width: 753
Flags: W
LayerCount: 2
Fore
SplineSet
294 955 m 1,0,-1
 294 948 l 2,1,2
 294 916 294 916 320 893 c 128,-1,3
 346 870 346 870 383 870 c 0,4,5
 419 870 419 870 445 893 c 0,6,7
 470 915 470 915 470 948 c 2,8,-1
 470 955 l 1,9,-1
 543 955 l 1,10,-1
 543 950 l 2,11,12
 543 890 543 890 498 849 c 1,13,14
 451 808 451 808 384 808 c 0,15,16
 318 808 318 808 271 849 c 0,17,18
 225 889 225 889 225 950 c 2,19,-1
 225 955 l 1,20,-1
 294 955 l 1,0,-1
82 170 m 0,21,22
 35 256 35 256 35 360 c 0,23,24
 35 463 35 463 82 552 c 0,25,26
 129 639 129 639 207 692 c 0,27,28
 284 745 284 745 377 745 c 128,-1,29
 470 745 470 745 547 695 c 128,-1,30
 624 645 624 645 672 558 c 1,31,32
 719 469 719 469 719 362 c 0,33,34
 719 253 719 253 672 167 c 1,35,36
 622 80 622 80 547 31 c 1,37,38
 471 -20 471 -20 377 -20 c 128,-1,39
 283 -20 283 -20 207 32 c 1,40,41
 129 83 129 83 82 170 c 0,21,22
381 668 m 1,42,-1
 380 668 l 2,43,44
 278 668 278 668 210 579 c 0,45,46
 141 489 141 489 141 360 c 0,47,48
 141 230 141 230 207 144 c 0,49,50
 272 58 272 58 375 58 c 0,51,52
 479 58 479 58 546 143 c 1,53,54
 613 225 613 225 613 362 c 0,55,56
 613 497 613 497 549 582 c 0,57,58
 484 667 484 667 381 668 c 1,42,-1
EndSplineSet
EndChar
StartChar: obreve
Encoding: 335 335 273
Width: 540
Flags: W
LayerCount: 2
Fore
SplineSet
170 725 m 1,0,-1
 170 718 l 2,1,2
 170 686 170 686 196 663 c 128,-1,3
 222 640 222 640 259 640 c 0,4,5
 295 640 295 640 321 663 c 0,6,7
 346 685 346 685 346 718 c 2,8,-1
 346 725 l 1,9,-1
 419 725 l 1,10,-1
 419 720 l 2,11,12
 419 660 419 660 374 619 c 1,13,14
 327 578 327 578 260 578 c 0,15,16
 194 578 194 578 147 619 c 0,17,18
 101 659 101 659 101 720 c 2,19,-1
 101 725 l 1,20,-1
 170 725 l 1,0,-1
90 69 m 1,21,22
 20 151 20 151 20 266 c 0,23,24
 20 379 20 379 90 458 c 128,-1,25
 160 537 160 537 262 537 c 128,-1,26
 364 537 364 537 437 458 c 128,-1,27
 510 379 510 379 510 266 c 0,28,29
 510 151 510 151 437 69 c 1,30,31
 364 -15 364 -15 262 -15 c 128,-1,32
 160 -15 160 -15 90 69 c 1,21,22
153 403 m 128,-1,34
 112 344 112 344 112 266 c 0,35,36
 112 189 112 189 153 124 c 0,37,38
 193 60 193 60 259 60 c 0,39,40
 324 60 324 60 367 124 c 1,41,42
 409 189 409 189 409 266 c 0,43,44
 409 344 409 344 367 403 c 128,-1,45
 325 462 325 462 260 462 c 0,46,33
 194 462 194 462 153 403 c 128,-1,34
EndSplineSet
EndChar
StartChar: Ohungarumlaut
Encoding: 336 336 274
Width: 753
Flags: W
LayerCount: 2
Fore
SplineSet
481 920 m 1,0,-1
 323 794 l 1,1,-1
 264 794 l 1,2,-1
 356 920 l 1,3,-1
 481 920 l 1,0,-1
659 920 m 1,4,-1
 501 794 l 1,5,-1
 442 794 l 1,6,-1
 534 920 l 1,7,-1
 659 920 l 1,4,-1
82 170 m 0,8,9
 35 256 35 256 35 360 c 0,10,11
 35 463 35 463 82 552 c 0,12,13
 129 639 129 639 207 692 c 0,14,15
 284 745 284 745 377 745 c 128,-1,16
 470 745 470 745 547 695 c 128,-1,17
 624 645 624 645 672 558 c 1,18,19
 719 469 719 469 719 362 c 0,20,21
 719 253 719 253 672 167 c 1,22,23
 622 80 622 80 547 31 c 1,24,25
 471 -20 471 -20 377 -20 c 128,-1,26
 283 -20 283 -20 207 32 c 1,27,28
 129 83 129 83 82 170 c 0,8,9
381 668 m 1,29,-1
 380 668 l 2,30,31
 278 668 278 668 210 579 c 0,32,33
 141 489 141 489 141 360 c 0,34,35
 141 230 141 230 207 144 c 0,36,37
 272 58 272 58 375 58 c 0,38,39
 479 58 479 58 546 143 c 1,40,41
 613 225 613 225 613 362 c 0,42,43
 613 497 613 497 549 582 c 0,44,45
 484 667 484 667 381 668 c 1,29,-1
EndSplineSet
EndChar
StartChar: OE
Encoding: 338 338 276
Width: 911
Flags: W
LayerCount: 2
Fore
SplineSet
78 169 m 0,0,1
 35 254 35 254 35 359 c 0,2,3
 35 466 35 466 78 552 c 0,4,5
 121 640 121 640 190 692 c 0,6,7
 261 745 261 745 343 745 c 0,8,9
 394 745 394 745 443 725 c 1,10,-1
 860 725 l 1,11,-1
 860 642 l 1,12,-1
 535 642 l 1,13,-1
 535 428 l 1,14,-1
 813 428 l 1,15,-1
 813 345 l 1,16,-1
 535 345 l 1,17,-1
 535 83 l 1,18,-1
 871 83 l 1,19,-1
 871 0 l 1,20,-1
 443 0 l 1,21,22
 394 -20 394 -20 343 -20 c 0,23,24
 257 -20 257 -20 190 32 c 1,25,26
 120 84 120 84 78 169 c 0,0,1
438 94 m 1,27,-1
 438 635 l 1,28,29
 398 663 398 663 347 663 c 2,30,-1
 346 663 l 2,31,32
 262 663 262 663 201 576 c 1,33,34
 138 489 138 489 138 360 c 0,35,36
 138 230 138 230 195 147 c 0,37,38
 252 63 252 63 341 63 c 0,39,40
 395 63 395 63 438 94 c 1,27,-1
EndSplineSet
EndChar
StartChar: oe
Encoding: 339 339 277
Width: 850
Flags: W
LayerCount: 2
Fore
SplineSet
433 93 m 1,0,1
 362 -15 362 -15 243 -15 c 0,2,3
 150 -15 150 -15 83 63 c 0,4,5
 15 143 15 143 15 249 c 0,6,7
 15 356 15 356 83 436 c 0,8,9
 150 515 150 515 243 515 c 0,10,11
 363 515 363 515 433 406 c 1,12,13
 444 424 444 424 457 439 c 0,14,15
 525 510 525 510 632 510 c 0,16,17
 718 510 718 510 776 438 c 0,18,19
 835 364 835 364 835 256 c 2,20,-1
 835 215 l 1,21,-1
 484 215 l 1,22,23
 490 149 490 149 529 104 c 0,24,25
 569 59 569 59 648 58 c 1,26,27
 780 58 780 58 815 118 c 1,28,-1
 814 19 l 1,29,30
 753 -15 753 -15 640 -15 c 128,-1,31
 527 -15 527 -15 461 55 c 0,32,33
 448 68 448 68 433 93 c 1,0,1
628 446 m 1,34,-1
 619 446 l 2,35,36
 512 446 512 446 484 292 c 1,37,-1
 747 292 l 1,38,39
 730 429 730 429 628 446 c 1,34,-1
251 434 m 2,40,-1
 250 434 l 2,41,42
 111 434 111 434 111 250 c 128,-1,43
 111 66 111 66 249 66 c 0,44,45
 386 66 386 66 386 250 c 128,-1,46
 386 434 386 434 251 434 c 2,40,-1
EndSplineSet
EndChar
StartChar: Racute
Encoding: 340 340 278
Width: 700
Flags: W
LayerCount: 2
Fore
SplineSet
520 920 m 1,0,-1
 342 794 l 1,1,-1
 263 794 l 1,2,-1
 375 920 l 1,3,-1
 520 920 l 1,0,-1
605 518 m 2,4,-1
 605 508 l 2,5,6
 605 450 605 450 565 386 c 1,7,8
 528 320 528 320 405 303 c 1,9,-1
 640 -5 l 1,10,-1
 516 -5 l 1,11,-1
 322 297 l 1,12,13
 303 296 303 296 153 296 c 1,14,-1
 153 -3 l 1,15,-1
 60 -3 l 1,16,-1
 60 725 l 1,17,-1
 321 725 l 2,18,19
 366 725 366 725 375 724 c 0,20,21
 491 719 491 719 567 636 c 1,22,23
 605 592 605 592 605 518 c 2,4,-1
153 372 m 1,24,-1
 337 372 l 2,25,26
 445 372 445 372 489 431 c 0,27,28
 506 454 506 454 506 509 c 256,29,30
 506 564 506 564 488 593 c 0,31,32
 455 649 455 649 350 649 c 2,33,-1
 153 649 l 1,34,-1
 153 372 l 1,24,-1
EndSplineSet
EndChar
StartChar: racute
Encoding: 341 341 279
Width: 380
Flags: W
LayerCount: 2
Fore
SplineSet
367 701 m 1,0,-1
 189 575 l 1,1,-1
 110 575 l 1,2,-1
 222 701 l 1,3,-1
 367 701 l 1,0,-1
311 538 m 0,4,5
 321 538 321 538 355 536 c 1,6,-1
 354 447 l 1,7,8
 334 451 334 451 315 451 c 0,9,10
 173 445 173 445 173 292 c 2,11,-1
 173 -3 l 1,12,-1
 80 -3 l 1,13,-1
 80 513 l 1,14,-1
 173 513 l 1,15,-1
 173 407 l 1,16,17
 214 538 214 538 311 538 c 0,4,5
EndSplineSet
EndChar
StartChar: rcommaaccent
Encoding: 343 343 281
Width: 380
Flags: W
LayerCount: 2
Fore
SplineSet
311 538 m 0,0,1
 321 538 321 538 355 536 c 1,2,-1
 354 447 l 1,3,4
 334 451 334 451 315 451 c 0,5,6
 173 445 173 445 173 292 c 2,7,-1
 173 -3 l 1,8,-1
 80 -3 l 1,9,-1
 80 513 l 1,10,-1
 173 513 l 1,11,-1
 173 407 l 1,12,13
 214 538 214 538 311 538 c 0,0,1
254 -46 m 1,14,-1
 254 -131 l 2,15,16
 254 -223 254 -223 212 -250 c 1,17,-1
 143 -250 l 1,18,19
 185 -212 185 -212 185 -186 c 2,20,-1
 185 -134 l 1,21,-1
 132 -134 l 1,22,-1
 132 -46 l 1,23,-1
 254 -46 l 1,14,-1
EndSplineSet
EndChar
StartChar: Rcaron
Encoding: 344 344 282
Width: 700
Flags: W
LayerCount: 2
Fore
SplineSet
158 960 m 1,0,-1
 232 960 l 1,1,-1
 310 867 l 1,2,-1
 360 867 l 1,3,-1
 440 960 l 1,4,-1
 512 960 l 1,5,-1
 384 789 l 1,6,-1
 286 789 l 1,7,-1
 158 960 l 1,0,-1
605 518 m 2,8,-1
 605 508 l 2,9,10
 605 450 605 450 565 386 c 1,11,12
 528 320 528 320 405 303 c 1,13,-1
 640 -5 l 1,14,-1
 516 -5 l 1,15,-1
 322 297 l 1,16,17
 303 296 303 296 153 296 c 1,18,-1
 153 -3 l 1,19,-1
 60 -3 l 1,20,-1
 60 725 l 1,21,-1
 321 725 l 2,22,23
 366 725 366 725 375 724 c 0,24,25
 491 719 491 719 567 636 c 1,26,27
 605 592 605 592 605 518 c 2,8,-1
153 372 m 1,28,-1
 337 372 l 2,29,30
 445 372 445 372 489 431 c 0,31,32
 506 454 506 454 506 509 c 256,33,34
 506 564 506 564 488 593 c 0,35,36
 455 649 455 649 350 649 c 2,37,-1
 153 649 l 1,38,-1
 153 372 l 1,28,-1
EndSplineSet
EndChar
StartChar: rcaron
Encoding: 345 345 283
Width: 380
Flags: W
LayerCount: 2
Fore
SplineSet
10 740 m 1,0,-1
 84 740 l 1,1,-1
 162 647 l 1,2,-1
 212 647 l 1,3,-1
 292 740 l 1,4,-1
 364 740 l 1,5,-1
 236 569 l 1,6,-1
 138 569 l 1,7,-1
 10 740 l 1,0,-1
311 538 m 0,8,9
 321 538 321 538 355 536 c 1,10,-1
 354 447 l 1,11,12
 334 451 334 451 315 451 c 0,13,14
 173 445 173 445 173 292 c 2,15,-1
 173 -3 l 1,16,-1
 80 -3 l 1,17,-1
 80 513 l 1,18,-1
 173 513 l 1,19,-1
 173 407 l 1,20,21
 214 538 214 538 311 538 c 0,8,9
EndSplineSet
EndChar
StartChar: Scedilla
Encoding: 350 350 288
Width: 581
Flags: W
LayerCount: 2
Fore
SplineSet
551 189 m 0,0,1
 551 3 551 3 329 -12 c 1,2,-1
 322 -51 l 1,3,4
 418 -51 418 -51 418 -110 c 0,5,6
 418 -216 418 -216 266 -216 c 2,7,-1
 221 -216 l 1,8,-1
 229 -166 l 1,9,-1
 279 -166 l 2,10,11
 352 -166 352 -166 352 -123 c 0,12,13
 352 -97 352 -97 317 -97 c 1,14,-1
 242 -102 l 1,15,-1
 272 -14 l 1,16,17
 75 -9 75 -9 30 130 c 1,18,-1
 111 153 l 1,19,20
 167 67 167 67 283 67 c 0,21,22
 451 67 451 67 451 182 c 0,23,24
 451 292 451 292 208 366 c 1,25,26
 69 418 69 418 69 537 c 2,27,-1
 69 541 l 2,28,29
 69 731 69 731 300 731 c 0,30,31
 495 731 495 731 537 620 c 1,32,-1
 457 588 l 1,33,34
 440 651 440 651 310 651 c 0,35,36
 164 651 164 651 164 550 c 0,37,38
 164 468 164 468 318 425 c 1,39,40
 551 333 551 333 551 189 c 0,0,1
EndSplineSet
EndChar
StartChar: scedilla
Encoding: 351 351 289
Width: 455
Flags: W
LayerCount: 2
Fore
SplineSet
448 149 m 0,0,1
 448 87 448 87 401.5 44 c 128,-1,2
 355 1 355 1 263 -4 c 1,3,-1
 252 -51 l 1,4,5
 348 -51 348 -51 348 -110 c 0,6,7
 348 -216 348 -216 196 -216 c 2,8,-1
 151 -216 l 1,9,-1
 159 -166 l 1,10,-1
 209 -166 l 2,11,12
 282 -166 282 -166 282 -123 c 0,13,14
 282 -97 282 -97 247 -97 c 1,15,-1
 172 -102 l 1,16,-1
 205 -4 l 1,17,18
 37 8 37 8 15 133 c 1,19,-1
 92 148 l 1,20,21
 100 114 100 114 139 94.5 c 128,-1,22
 178 75 178 75 239 75 c 0,23,24
 302 75 302 75 331.5 97.5 c 128,-1,25
 361 120 361 120 361 168 c 0,26,27
 361 201 361 201 326.5 216 c 128,-1,28
 292 231 292 231 243 237 c 128,-1,29
 194 243 194 243 145.5 253 c 128,-1,30
 97 263 97 263 62.5 296 c 128,-1,31
 28 329 28 329 28 387 c 0,32,33
 28 537 28 537 232 537 c 0,34,35
 317 537 317 537 368 510.5 c 128,-1,36
 419 484 419 484 439 412 c 1,37,-1
 372 393 l 1,38,39
 358 436 358 436 321.5 451.5 c 128,-1,40
 285 467 285 467 225 467 c 1,41,42
 174 466 174 466 146 448 c 128,-1,43
 118 430 118 430 118 383 c 0,44,45
 118 348 118 348 152 331 c 128,-1,46
 186 314 186 314 234.5 307.5 c 128,-1,47
 283 301 283 301 331.5 290 c 128,-1,48
 380 279 380 279 414 244.5 c 128,-1,49
 448 210 448 210 448 149 c 0,0,1
EndSplineSet
EndChar
StartChar: Tcommaaccent
Encoding: 354 354 292
Width: 625
Flags: W
LayerCount: 2
Fore
SplineSet
347 -3 m 1,0,-1
 339 -51 l 1,1,2
 435 -51 435 -51 435 -110 c 0,3,4
 435 -216 435 -216 283 -216 c 2,5,-1
 238 -216 l 1,6,-1
 246 -166 l 1,7,-1
 296 -166 l 2,8,9
 369 -166 369 -166 369 -123 c 0,10,11
 369 -97 369 -97 334 -97 c 1,12,-1
 259 -102 l 1,13,-1
 293 -3 l 1,14,-1
 265 -3 l 1,15,-1
 265 647 l 1,16,-1
 25 647 l 1,17,-1
 25 725 l 1,18,-1
 600 725 l 1,19,-1
 600 647 l 1,20,-1
 361 647 l 1,21,-1
 361 -3 l 1,22,-1
 347 -3 l 1,0,-1
EndSplineSet
EndChar
StartChar: tcommaaccent
Encoding: 355 355 293
Width: 377
Flags: W
LayerCount: 2
Fore
SplineSet
219 -7 m 1,0,-1
 211 -51 l 1,1,2
 307 -51 307 -51 307 -110 c 0,3,4
 307 -216 307 -216 155 -216 c 2,5,-1
 110 -216 l 1,6,-1
 118 -166 l 1,7,-1
 168 -166 l 2,8,9
 241 -166 241 -166 241 -123 c 0,10,11
 241 -97 241 -97 206 -97 c 1,12,-1
 131 -102 l 1,13,-1
 166 0 l 1,14,15
 83 24 83 24 83 134 c 2,16,-1
 83 440 l 1,17,-1
 10 440 l 1,18,-1
 10 513 l 1,19,-1
 83 513 l 1,20,-1
 83 668 l 1,21,-1
 174 668 l 1,22,-1
 174 513 l 1,23,-1
 323 513 l 1,24,-1
 323 440 l 1,25,-1
 174 440 l 1,26,-1
 174 148 l 2,27,28
 174 66 174 66 257 66 c 0,29,30
 311 66 311 66 337 92 c 1,31,-1
 343 56 l 1,32,33
 320 -7 320 -7 221 -7 c 2,34,-1
 219 -7 l 1,0,-1
EndSplineSet
EndChar
StartChar: Tcaron
Encoding: 356 356 294
Width: 625
Flags: W
LayerCount: 2
Fore
SplineSet
137 930 m 1,0,-1
 211 930 l 1,1,-1
 289 837 l 1,2,-1
 339 837 l 1,3,-1
 419 930 l 1,4,-1
 491 930 l 1,5,-1
 363 759 l 1,6,-1
 265 759 l 1,7,-1
 137 930 l 1,0,-1
600 725 m 1,8,-1
 600 647 l 1,9,-1
 361 647 l 1,10,-1
 361 -3 l 1,11,-1
 265 -3 l 1,12,-1
 265 647 l 1,13,-1
 25 647 l 1,14,-1
 25 725 l 1,15,-1
 600 725 l 1,8,-1
EndSplineSet
EndChar
StartChar: tcaron
Encoding: 357 357 295
Width: 437
Flags: W
LayerCount: 2
Fore
SplineSet
418 720 m 1,0,-1
 418 620 l 2,1,2
 418 540 418 540 393 515 c 1,3,-1
 325 515 l 1,4,5
 356 552 356 552 356 610 c 0,6,7
 356 618 356 618 355 620 c 1,8,-1
 296 620 l 1,9,-1
 296 720 l 1,10,-1
 418 720 l 1,0,-1
337 92 m 1,11,-1
 343 56 l 1,12,13
 320 -7 320 -7 221 -7 c 0,14,15
 83 -7 83 -7 83 134 c 2,16,-1
 83 440 l 1,17,-1
 10 440 l 1,18,-1
 10 513 l 1,19,-1
 83 513 l 1,20,-1
 83 668 l 1,21,-1
 174 668 l 1,22,-1
 174 513 l 1,23,-1
 323 513 l 1,24,-1
 323 440 l 1,25,-1
 174 440 l 1,26,-1
 174 148 l 2,27,28
 174 66 174 66 257 66 c 0,29,30
 311 66 311 66 337 92 c 1,11,-1
EndSplineSet
EndChar
StartChar: Tbar
Encoding: 358 358 296
Width: 640
Flags: W
LayerCount: 2
Fore
SplineSet
361 642 m 1,0,-1
 361 338 l 1,1,-1
 504 338 l 1,2,-1
 504 276 l 1,3,-1
 361 276 l 1,4,-1
 361 -3 l 1,5,-1
 279 -3 l 1,6,-1
 279 276 l 1,7,-1
 136 276 l 1,8,-1
 136 338 l 1,9,-1
 279 338 l 1,10,-1
 279 642 l 1,11,-1
 25 642 l 1,12,-1
 25 725 l 1,13,-1
 615 725 l 1,14,-1
 615 642 l 1,15,-1
 361 642 l 1,0,-1
EndSplineSet
EndChar
StartChar: tbar
Encoding: 359 359 297
Width: 387
Flags: W
LayerCount: 2
Fore
SplineSet
337 92 m 1,0,-1
 343 56 l 1,1,2
 320 -7 320 -7 221 -7 c 0,3,4
 83 -7 83 -7 83 134 c 2,5,-1
 83 276 l 1,6,-1
 30 276 l 1,7,-1
 30 338 l 1,8,-1
 83 338 l 1,9,-1
 83 424 l 1,10,-1
 10 424 l 1,11,-1
 10 497 l 1,12,-1
 83 497 l 1,13,-1
 83 668 l 1,14,-1
 174 668 l 1,15,-1
 174 497 l 1,16,-1
 323 497 l 1,17,-1
 323 424 l 1,18,-1
 174 424 l 1,19,-1
 174 338 l 1,20,-1
 344 338 l 1,21,-1
 344 276 l 1,22,-1
 174 276 l 1,23,-1
 174 148 l 2,24,25
 174 66 174 66 257 66 c 0,26,27
 311 66 311 66 337 92 c 1,0,-1
EndSplineSet
EndChar
StartChar: Utilde
Encoding: 360 360 298
Width: 740
Flags: W
LayerCount: 2
Fore
SplineSet
313 873 m 0,0,1
 259 873 259 873 233 799 c 1,2,-1
 181 799 l 1,3,4
 192 942 192 942 321 945 c 0,5,6
 352 945 352 945 385 909 c 1,7,8
 417 871 417 871 439 871 c 0,9,10
 494 871 494 871 520 940 c 1,11,-1
 571 940 l 1,12,13
 560 801 560 801 437 800 c 0,14,15
 401 800 401 800 368 837 c 1,16,17
 334 873 334 873 313 873 c 0,0,1
623 91 m 0,18,19
 559 -15 559 -15 374 -15 c 2,20,-1
 363 -15 l 2,21,22
 184 -15 184 -15 117 87 c 0,23,24
 85 137 85 137 85 201 c 2,25,-1
 85 730 l 1,26,-1
 181 730 l 1,27,-1
 181 200 l 2,28,29
 181 149 181 149 196 131 c 0,30,31
 255 60 255 60 376 60 c 0,32,33
 496 60 496 60 541 128 c 0,34,35
 560 156 560 156 560 203 c 2,36,-1
 560 730 l 1,37,-1
 655 730 l 1,38,-1
 655 199 l 2,39,40
 655 144 655 144 623 91 c 0,18,19
EndSplineSet
EndChar
StartChar: utilde
Encoding: 361 361 299
Width: 538
Flags: W
LayerCount: 2
Fore
SplineSet
204 636 m 0,0,1
 150 636 150 636 124 562 c 1,2,-1
 72 562 l 1,3,4
 83 705 83 705 212 708 c 0,5,6
 243 708 243 708 276 672 c 1,7,8
 308 634 308 634 330 634 c 0,9,10
 386 634 386 634 411 703 c 1,11,-1
 462 703 l 1,12,13
 451 564 451 564 328 563 c 0,14,15
 292 563 292 563 259 600 c 1,16,17
 224 636 224 636 204 636 c 0,0,1
143 523 m 1,18,-1
 143 252 l 2,19,20
 143 69 143 69 249 69 c 0,21,22
 395 69 395 69 395 264 c 2,23,-1
 395 523 l 1,24,-1
 488 523 l 1,25,-1
 488 -3 l 1,26,-1
 395 -3 l 1,27,-1
 395 80 l 1,28,29
 357 -15 357 -15 241 -15 c 1,30,31
 50 -13 50 -13 50 232 c 2,32,-1
 50 523 l 1,33,-1
 143 523 l 1,18,-1
EndSplineSet
EndChar
StartChar: Umacron
Encoding: 362 362 300
Width: 740
Flags: W
LayerCount: 2
Fore
SplineSet
220 823 m 1,0,-1
 220 885 l 1,1,-1
 510 885 l 1,2,-1
 510 823 l 1,3,-1
 220 823 l 1,0,-1
623 91 m 0,4,5
 559 -15 559 -15 374 -15 c 2,6,-1
 363 -15 l 2,7,8
 184 -15 184 -15 117 87 c 0,9,10
 85 137 85 137 85 201 c 2,11,-1
 85 730 l 1,12,-1
 181 730 l 1,13,-1
 181 200 l 2,14,15
 181 149 181 149 196 131 c 0,16,17
 255 60 255 60 376 60 c 0,18,19
 496 60 496 60 541 128 c 0,20,21
 560 156 560 156 560 203 c 2,22,-1
 560 730 l 1,23,-1
 655 730 l 1,24,-1
 655 199 l 2,25,26
 655 144 655 144 623 91 c 0,4,5
EndSplineSet
EndChar
StartChar: umacron
Encoding: 363 363 301
Width: 538
Flags: W
LayerCount: 2
Fore
SplineSet
124 615 m 1,0,-1
 124 677 l 1,1,-1
 414 677 l 1,2,-1
 414 615 l 1,3,-1
 124 615 l 1,0,-1
143 523 m 1,4,-1
 143 252 l 2,5,6
 143 69 143 69 249 69 c 0,7,8
 395 69 395 69 395 264 c 2,9,-1
 395 523 l 1,10,-1
 488 523 l 1,11,-1
 488 -3 l 1,12,-1
 395 -3 l 1,13,-1
 395 80 l 1,14,15
 357 -15 357 -15 241 -15 c 1,16,17
 50 -13 50 -13 50 232 c 2,18,-1
 50 523 l 1,19,-1
 143 523 l 1,4,-1
EndSplineSet
EndChar
StartChar: Ubreve
Encoding: 364 364 302
Width: 740
Flags: W
LayerCount: 2
Fore
SplineSet
280 955 m 1,0,-1
 280 948 l 2,1,2
 280 916 280 916 306 893 c 128,-1,3
 332 870 332 870 369 870 c 0,4,5
 405 870 405 870 431 893 c 0,6,7
 456 915 456 915 456 948 c 2,8,-1
 456 955 l 1,9,-1
 529 955 l 1,10,-1
 529 950 l 2,11,12
 529 890 529 890 484 849 c 1,13,14
 437 808 437 808 370 808 c 0,15,16
 304 808 304 808 257 849 c 0,17,18
 211 889 211 889 211 950 c 2,19,-1
 211 955 l 1,20,-1
 280 955 l 1,0,-1
623 91 m 0,21,22
 559 -15 559 -15 374 -15 c 2,23,-1
 363 -15 l 2,24,25
 184 -15 184 -15 117 87 c 0,26,27
 85 137 85 137 85 201 c 2,28,-1
 85 730 l 1,29,-1
 181 730 l 1,30,-1
 181 200 l 2,31,32
 181 149 181 149 196 131 c 0,33,34
 255 60 255 60 376 60 c 0,35,36
 496 60 496 60 541 128 c 0,37,38
 560 156 560 156 560 203 c 2,39,-1
 560 730 l 1,40,-1
 655 730 l 1,41,-1
 655 199 l 2,42,43
 655 144 655 144 623 91 c 0,21,22
EndSplineSet
EndChar
StartChar: ubreve
Encoding: 365 365 303
Width: 538
Flags: W
LayerCount: 2
Fore
SplineSet
190 725 m 1,0,-1
 190 718 l 2,1,2
 190 686 190 686 216 663 c 128,-1,3
 242 640 242 640 279 640 c 0,4,5
 315 640 315 640 341 663 c 0,6,7
 366 685 366 685 366 718 c 2,8,-1
 366 725 l 1,9,-1
 439 725 l 1,10,-1
 439 720 l 2,11,12
 439 660 439 660 394 619 c 1,13,14
 347 578 347 578 280 578 c 0,15,16
 214 578 214 578 167 619 c 0,17,18
 121 659 121 659 121 720 c 2,19,-1
 121 725 l 1,20,-1
 190 725 l 1,0,-1
143 523 m 1,21,-1
 143 252 l 2,22,23
 143 69 143 69 249 69 c 0,24,25
 395 69 395 69 395 264 c 2,26,-1
 395 523 l 1,27,-1
 488 523 l 1,28,-1
 488 -3 l 1,29,-1
 395 -3 l 1,30,-1
 395 80 l 1,31,32
 357 -15 357 -15 241 -15 c 1,33,34
 50 -13 50 -13 50 232 c 2,35,-1
 50 523 l 1,36,-1
 143 523 l 1,21,-1
EndSplineSet
EndChar
StartChar: Uring
Encoding: 366 366 304
Width: 740
Flags: W
LayerCount: 2
Fore
SplineSet
260 850 m 0,0,1
 260 892 260 892 289 921 c 128,-1,2
 318 950 318 950 361 950 c 128,-1,3
 404 950 404 950 433 921 c 128,-1,4
 462 892 462 892 462 850 c 0,5,6
 462 807 462 807 433 778 c 0,7,8
 404 748 404 748 361 748 c 128,-1,9
 318 748 318 748 289 778 c 0,10,11
 260 807 260 807 260 850 c 0,0,1
302 851 m 128,-1,13
 302 827 302 827 319 810 c 0,14,15
 336 792 336 792 360 792 c 128,-1,16
 384 792 384 792 401 810 c 0,17,18
 418 827 418 827 418 851 c 128,-1,19
 418 875 418 875 401 892 c 128,-1,20
 384 909 384 909 360 909 c 128,-1,21
 336 909 336 909 319 892 c 128,-1,12
 302 875 302 875 302 851 c 128,-1,13
623 91 m 0,22,23
 559 -15 559 -15 374 -15 c 2,24,-1
 363 -15 l 2,25,26
 184 -15 184 -15 117 87 c 0,27,28
 85 137 85 137 85 201 c 2,29,-1
 85 730 l 1,30,-1
 181 730 l 1,31,-1
 181 200 l 2,32,33
 181 149 181 149 196 131 c 0,34,35
 255 60 255 60 376 60 c 0,36,37
 496 60 496 60 541 128 c 0,38,39
 560 156 560 156 560 203 c 2,40,-1
 560 730 l 1,41,-1
 655 730 l 1,42,-1
 655 199 l 2,43,44
 655 144 655 144 623 91 c 0,22,23
EndSplineSet
EndChar
StartChar: uring
Encoding: 367 367 305
Width: 538
Flags: W
LayerCount: 2
Fore
SplineSet
164 656 m 0,0,1
 164 698 164 698 193 727 c 128,-1,2
 222 756 222 756 265 756 c 128,-1,3
 308 756 308 756 337 727 c 128,-1,4
 366 698 366 698 366 656 c 0,5,6
 366 613 366 613 337 584 c 0,7,8
 308 554 308 554 265 554 c 128,-1,9
 222 554 222 554 193 584 c 0,10,11
 164 613 164 613 164 656 c 0,0,1
206 657 m 128,-1,13
 206 633 206 633 223 616 c 1,14,15
 239 598 239 598 264 598 c 0,16,17
 288 598 288 598 305 616 c 0,18,19
 322 633 322 633 322 657 c 128,-1,20
 322 681 322 681 305 698 c 128,-1,21
 288 715 288 715 264 715 c 128,-1,22
 240 715 240 715 223 698 c 128,-1,12
 206 681 206 681 206 657 c 128,-1,13
143 523 m 1,23,-1
 143 252 l 2,24,25
 143 69 143 69 249 69 c 0,26,27
 395 69 395 69 395 264 c 2,28,-1
 395 523 l 1,29,-1
 488 523 l 1,30,-1
 488 -3 l 1,31,-1
 395 -3 l 1,32,-1
 395 80 l 1,33,34
 357 -15 357 -15 241 -15 c 1,35,36
 50 -13 50 -13 50 232 c 2,37,-1
 50 523 l 1,38,-1
 143 523 l 1,23,-1
EndSplineSet
EndChar
StartChar: uhungarumlaut
Encoding: 369 369 307
Width: 538
Flags: W
LayerCount: 2
Fore
SplineSet
337 712 m 1,0,-1
 179 586 l 1,1,-1
 120 586 l 1,2,-1
 212 712 l 1,3,-1
 337 712 l 1,0,-1
515 712 m 1,4,-1
 357 586 l 1,5,-1
 298 586 l 1,6,-1
 390 712 l 1,7,-1
 515 712 l 1,4,-1
143 523 m 1,8,-1
 143 252 l 2,9,10
 143 69 143 69 249 69 c 0,11,12
 395 69 395 69 395 264 c 2,13,-1
 395 523 l 1,14,-1
 488 523 l 1,15,-1
 488 -3 l 1,16,-1
 395 -3 l 1,17,-1
 395 80 l 1,18,19
 357 -15 357 -15 241 -15 c 1,20,21
 50 -13 50 -13 50 232 c 2,22,-1
 50 523 l 1,23,-1
 143 523 l 1,8,-1
EndSplineSet
EndChar
StartChar: Uogonek
Encoding: 370 370 308
Width: 740
Flags: W
LayerCount: 2
Fore
SplineSet
655 730 m 1,0,-1
 655 199 l 2,1,2
 655 144 655 144 623 91 c 0,3,4
 574 10 574 10 456 -9 c 1,5,-1
 452 -14 l 2,6,7
 422 -52 422 -52 422 -95 c 256,8,9
 422 -138 422 -138 456 -138 c 0,10,11
 498 -138 498 -138 523 -101 c 1,12,-1
 530 -150 l 1,13,14
 495 -206 495 -206 449 -206 c 0,15,16
 371 -206 371 -206 350 -170 c 0,17,18
 340 -154 340 -154 340 -120 c 0,19,20
 340 -61 340 -61 395 -15 c 1,21,-1
 363 -15 l 2,22,23
 184 -15 184 -15 117 87 c 0,24,25
 85 137 85 137 85 201 c 2,26,-1
 85 730 l 1,27,-1
 181 730 l 1,28,-1
 181 200 l 2,29,30
 181 149 181 149 196 131 c 0,31,32
 255 60 255 60 376 60 c 0,33,34
 496 60 496 60 541 128 c 0,35,36
 560 156 560 156 560 203 c 2,37,-1
 560 730 l 1,38,-1
 655 730 l 1,0,-1
EndSplineSet
EndChar
StartChar: uogonek
Encoding: 371 371 309
Width: 538
Flags: W
LayerCount: 2
Fore
SplineSet
507 -101 m 1,0,-1
 514 -150 l 1,1,2
 479 -206 479 -206 433 -206 c 0,3,4
 355 -206 355 -206 334 -170 c 0,5,6
 324 -154 324 -154 324 -120 c 0,7,8
 324 -61 324 -61 380 -14 c 1,9,-1
 395 -1 l 1,10,-1
 395 80 l 1,11,12
 357 -15 357 -15 241 -15 c 1,13,14
 50 -13 50 -13 50 232 c 2,15,-1
 50 523 l 1,16,-1
 143 523 l 1,17,-1
 143 252 l 2,18,19
 143 69 143 69 249 69 c 0,20,21
 395 69 395 69 395 264 c 2,22,-1
 395 523 l 1,23,-1
 488 523 l 1,24,-1
 488 -3 l 1,25,-1
 445 -3 l 1,26,-1
 436 -14 l 2,27,28
 406 -52 406 -52 406 -95 c 256,29,30
 406 -138 406 -138 440 -138 c 0,31,32
 482 -138 482 -138 507 -101 c 1,0,-1
EndSplineSet
EndChar
StartChar: wcircumflex
Encoding: 373 373 311
Width: 764
Flags: W
LayerCount: 2
Fore
SplineSet
485 570 m 1,0,-1
 405 663 l 1,1,-1
 355 663 l 1,2,-1
 277 570 l 1,3,-1
 203 570 l 1,4,-1
 331 741 l 1,5,-1
 429 741 l 1,6,-1
 557 570 l 1,7,-1
 485 570 l 1,0,-1
170 0 m 1,8,-1
 30 533 l 1,9,-1
 125 533 l 1,10,-1
 219 102 l 1,11,-1
 328 522 l 1,12,-1
 432 522 l 1,13,-1
 533 105 l 1,14,-1
 638 533 l 1,15,-1
 734 533 l 1,16,-1
 583 0 l 1,17,-1
 488 0 l 1,18,-1
 378 442 l 1,19,-1
 269 0 l 1,20,-1
 170 0 l 1,8,-1
EndSplineSet
EndChar
StartChar: Ycircumflex
Encoding: 374 374 312
Width: 703
Flags: W
LayerCount: 2
Fore
SplineSet
460 779 m 1,0,-1
 380 872 l 1,1,-1
 330 872 l 1,2,-1
 252 779 l 1,3,-1
 178 779 l 1,4,-1
 306 950 l 1,5,-1
 404 950 l 1,6,-1
 532 779 l 1,7,-1
 460 779 l 1,0,-1
653 725 m 1,8,-1
 400 362 l 1,9,-1
 400 -3 l 1,10,-1
 303 -3 l 1,11,-1
 303 362 l 1,12,-1
 51 725 l 1,13,-1
 156 725 l 1,14,-1
 351 423 l 1,15,-1
 543 725 l 1,16,-1
 653 725 l 1,8,-1
EndSplineSet
EndChar
StartChar: ycircumflex
Encoding: 375 375 313
Width: 565
Flags: W
LayerCount: 2
Fore
SplineSet
401 570 m 1,0,-1
 321 663 l 1,1,-1
 271 663 l 1,2,-1
 193 570 l 1,3,-1
 119 570 l 1,4,-1
 247 741 l 1,5,-1
 345 741 l 1,6,-1
 473 570 l 1,7,-1
 401 570 l 1,0,-1
433 538 m 1,8,-1
 545 538 l 1,9,10
 464 330 464 330 413 197 c 0,11,12
 383 119 383 119 324 -33 c 2,13,-1
 300 -94 l 1,14,15
 234 -240 234 -240 159 -240 c 0,16,17
 81 -240 81 -240 50 -221 c 1,18,-1
 63 -161 l 1,19,20
 92 -173 92 -173 125 -173 c 0,21,22
 171 -173 171 -173 220 -55 c 1,23,24
 245 -2 245 -2 245 6 c 1,25,26
 210 90 210 90 20 538 c 1,27,-1
 125 538 l 1,28,-1
 282 89 l 1,29,-1
 433 538 l 1,8,-1
EndSplineSet
EndChar
StartChar: Ydieresis
Encoding: 376 376 314
Width: 703
Flags: W
LayerCount: 2
Fore
SplineSet
310 801 m 1,0,-1
 209 801 l 1,1,-1
 209 905 l 1,2,-1
 310 905 l 1,3,-1
 310 801 l 1,0,-1
501 801 m 1,4,-1
 400 801 l 1,5,-1
 400 905 l 1,6,-1
 501 905 l 1,7,-1
 501 801 l 1,4,-1
653 725 m 1,8,-1
 400 362 l 1,9,-1
 400 -3 l 1,10,-1
 303 -3 l 1,11,-1
 303 362 l 1,12,-1
 51 725 l 1,13,-1
 156 725 l 1,14,-1
 351 423 l 1,15,-1
 543 725 l 1,16,-1
 653 725 l 1,8,-1
EndSplineSet
EndChar
StartChar: Zdotaccent
Encoding: 379 379 317
Width: 615
Flags: W
LayerCount: 2
Fore
SplineSet
366 801 m 1,0,-1
 266 801 l 1,1,-1
 266 905 l 1,2,-1
 366 905 l 1,3,-1
 366 801 l 1,0,-1
564 647 m 1,4,-1
 159 78 l 1,5,-1
 576 78 l 1,6,-1
 576 2 l 1,7,-1
 50 2 l 1,8,-1
 50 84 l 1,9,-1
 454 652 l 1,10,-1
 61 652 l 1,11,-1
 61 730 l 1,12,-1
 564 730 l 1,13,-1
 564 647 l 1,4,-1
EndSplineSet
EndChar
StartChar: zdotaccent
Encoding: 380 380 318
Width: 498
Flags: W
LayerCount: 2
Fore
SplineSet
324 601 m 1,0,-1
 224 601 l 1,1,-1
 224 705 l 1,2,-1
 324 705 l 1,3,-1
 324 601 l 1,0,-1
458 464 m 1,4,-1
 149 73 l 1,5,-1
 458 73 l 1,6,-1
 458 0 l 1,7,-1
 40 0 l 1,8,-1
 40 71 l 1,9,-1
 348 461 l 1,10,-1
 48 461 l 1,11,-1
 48 534 l 1,12,-1
 458 534 l 1,13,-1
 458 464 l 1,4,-1
EndSplineSet
EndChar
StartChar: Zcaron
Encoding: 381 381 319
Width: 615
Flags: W
LayerCount: 2
Fore
SplineSet
146 960 m 1,0,-1
 220 960 l 1,1,-1
 298 867 l 1,2,-1
 348 867 l 1,3,-1
 428 960 l 1,4,-1
 500 960 l 1,5,-1
 372 789 l 1,6,-1
 274 789 l 1,7,-1
 146 960 l 1,0,-1
564 647 m 1,8,-1
 159 78 l 1,9,-1
 576 78 l 1,10,-1
 576 2 l 1,11,-1
 50 2 l 1,12,-1
 50 84 l 1,13,-1
 454 652 l 1,14,-1
 61 652 l 1,15,-1
 61 730 l 1,16,-1
 564 730 l 1,17,-1
 564 647 l 1,8,-1
EndSplineSet
EndChar
StartChar: zcaron
Encoding: 382 382 320
Width: 498
Flags: W
LayerCount: 2
Fore
SplineSet
96 740 m 1,0,-1
 170 740 l 1,1,-1
 248 647 l 1,2,-1
 298 647 l 1,3,-1
 378 740 l 1,4,-1
 450 740 l 1,5,-1
 322 569 l 1,6,-1
 224 569 l 1,7,-1
 96 740 l 1,0,-1
458 464 m 1,8,-1
 149 73 l 1,9,-1
 458 73 l 1,10,-1
 458 0 l 1,11,-1
 40 0 l 1,12,-1
 40 71 l 1,13,-1
 348 461 l 1,14,-1
 48 461 l 1,15,-1
 48 534 l 1,16,-1
 458 534 l 1,17,-1
 458 464 l 1,8,-1
EndSplineSet
EndChar
StartChar: longs
Encoding: 383 383 321
Width: 419
Flags: W
LayerCount: 2
Fore
SplineSet
405 646 m 1,0,-1
 387 651 l 1,1,2
 365 656 365 656 334 656 c 0,3,4
 298 656 298 656 275 627 c 128,-1,5
 252 598 252 598 252 545 c 2,6,-1
 252 -3 l 1,7,-1
 169 -3 l 1,8,-1
 169 415 l 1,9,-1
 30 415 l 1,10,-1
 30 498 l 1,11,-1
 169 498 l 1,12,-1
 169 545 l 2,13,14
 169 629 169 629 216 685 c 0,15,16
 262 740 262 740 329 740 c 0,17,18
 383 740 383 740 405 733 c 1,19,-1
 405 646 l 1,0,-1
EndSplineSet
EndChar
StartChar: uni0180
Encoding: 384 384 322
Width: 567
Flags: W
LayerCount: 2
Fore
SplineSet
523 255 m 0,0,1
 523 133 523 133 459 60 c 0,2,3
 394 -15 394 -15 297 -15 c 256,4,5
 200 -15 200 -15 144 53 c 1,6,-1
 144 -3 l 1,7,-1
 60 -3 l 1,8,-1
 60 580 l 1,9,-1
 0 580 l 1,10,-1
 0 642 l 1,11,-1
 60 642 l 1,12,-1
 60 740 l 1,13,-1
 144 740 l 1,14,-1
 144 642 l 1,15,-1
 312 642 l 1,16,-1
 312 580 l 1,17,-1
 144 580 l 1,18,-1
 144 449 l 1,19,20
 202 515 202 515 297 515 c 256,21,22
 392 515 392 515 458 445 c 1,23,24
 523 374 523 374 523 255 c 0,0,1
390 118 m 128,-1,26
 428 168 428 168 429 251 c 1,27,28
 428 336 428 336 387 384 c 0,29,30
 346 431 346 431 284 431 c 0,31,32
 153 429 153 429 144 279 c 1,33,-1
 144 230 l 1,34,35
 159 68 159 68 284 68 c 0,36,25
 352 68 352 68 390 118 c 128,-1,26
EndSplineSet
EndChar
StartChar: uni0181
Encoding: 385 385 323
Width: 707
Flags: W
LayerCount: 2
Fore
SplineSet
108 720 m 2,0,-1
 421 720 l 2,1,2
 504 720 504 720 562 666 c 0,3,4
 620 611 620 611 620 527 c 0,5,6
 620 442 620 442 551 384 c 1,7,8
 601 358 601 358 629 314 c 128,-1,9
 657 270 657 270 658 217 c 1,10,11
 658 109 658 109 592 55 c 1,12,13
 528 0 528 0 402 0 c 2,14,-1
 151 0 l 1,15,-1
 151 648 l 1,16,17
 72 648 72 648 57 645 c 0,18,19
 42 641 42 641 30 605 c 1,20,21
 28 595 28 595 28 581 c 0,22,23
 28 563 28 563 43 500 c 1,24,-1
 -51 500 l 1,25,26
 -52 509 -52 509 -52 536 c 0,27,28
 -52 662 -52 662 27 699 c 0,29,30
 72 720 72 720 108 720 c 2,0,-1
233 412 m 1,31,-1
 419 412 l 2,32,33
 476 412 476 412 507 445 c 1,34,35
 538 476 538 476 538 526 c 0,36,37
 538 574 538 574 505 606 c 0,38,39
 474 637 474 637 421 637 c 2,40,-1
 233 637 l 1,41,-1
 233 412 l 1,31,-1
233 83 m 1,42,-1
 415 83 l 1,43,44
 575 86 575 86 575 209 c 2,45,-1
 575 214 l 2,46,47
 575 269 575 269 536 302 c 1,48,49
 495 335 495 335 423 335 c 2,50,-1
 233 335 l 1,51,-1
 233 83 l 1,42,-1
EndSplineSet
EndChar
StartChar: uni0182
Encoding: 386 386 324
Width: 616
Flags: W
LayerCount: 2
Fore
SplineSet
538 328 m 1,0,1
 566 274 566 274 567 224 c 1,2,3
 567 113 567 113 497 55 c 0,4,5
 426 -5 426 -5 314 -5 c 2,6,-1
 311 -5 l 2,7,8
 130 -5 130 -5 60 5 c 1,9,-1
 60 725 l 1,10,-1
 527 725 l 1,11,-1
 527 653 l 1,12,-1
 152 653 l 1,13,-1
 152 426 l 1,14,-1
 331 426 l 2,15,16
 485 426 485 426 538 328 c 1,0,1
152 354 m 1,17,-1
 152 76 l 1,18,19
 229 68 229 68 265 68 c 2,20,-1
 324 68 l 1,21,22
 474 71 474 71 474 216 c 2,23,-1
 474 221 l 2,24,25
 474 285 474 285 440 319 c 0,26,27
 405 354 405 354 332 354 c 2,28,-1
 152 354 l 1,17,-1
EndSplineSet
EndChar
StartChar: uni0183
Encoding: 387 387 325
Width: 567
Flags: W
LayerCount: 2
Fore
SplineSet
523 255 m 0,0,1
 523 133 523 133 459 60 c 0,2,3
 394 -15 394 -15 300 -15 c 0,4,5
 205 -15 205 -15 149 53 c 1,6,-1
 149 -3 l 1,7,-1
 60 -3 l 1,8,-1
 60 740 l 1,9,-1
 481 740 l 1,10,-1
 481 668 l 1,11,-1
 149 668 l 1,12,-1
 149 449 l 1,13,14
 208 515 208 515 300 515 c 128,-1,15
 392 515 392 515 458 445 c 1,16,17
 523 374 523 374 523 255 c 0,0,1
385 113 m 1,18,19
 418 170 418 170 419 251 c 1,20,21
 417 336 417 336 382 389 c 128,-1,22
 347 442 347 442 284 442 c 0,23,24
 160 441 160 441 149 279 c 1,25,-1
 149 230 l 1,26,27
 165 58 165 58 284 58 c 0,28,29
 352 58 352 58 385 113 c 1,18,19
EndSplineSet
EndChar
StartChar: uni0184
Encoding: 388 388 326
Width: 746
Flags: W
LayerCount: 2
Fore
SplineSet
683 328 m 1,0,1
 711 274 711 274 712 224 c 1,2,3
 712 114 712 114 646 58 c 1,4,5
 574 -5 574 -5 460 -5 c 2,6,-1
 456 -5 l 2,7,8
 272 -5 272 -5 205 5 c 1,9,-1
 205 653 l 1,10,-1
 5 653 l 1,11,-1
 5 725 l 1,12,-1
 297 725 l 1,13,-1
 297 426 l 1,14,-1
 476 426 l 2,15,16
 630 426 630 426 683 328 c 1,0,1
297 354 m 1,17,-1
 297 76 l 1,18,19
 367 68 367 68 469 68 c 0,20,21
 619 68 619 68 619 216 c 2,22,-1
 619 221 l 2,23,24
 619 285 619 285 585 319 c 0,25,26
 550 354 550 354 477 354 c 2,27,-1
 297 354 l 1,17,-1
EndSplineSet
EndChar
StartChar: uni0186
Encoding: 390 390 327
Width: 640
Flags: W
LayerCount: 2
Fore
SplineSet
240 639 m 0,0,1
 132 639 132 639 35 563 c 1,2,-1
 25 646 l 1,3,4
 113 722 113 722 213 722 c 0,5,6
 522 722 522 722 585 463 c 1,7,8
 595 416 595 416 595 344 c 0,9,10
 595 274 595 274 580 216 c 1,11,12
 487 -17 487 -17 234 -17 c 2,13,-1
 232 -17 l 2,14,15
 112 -17 112 -17 31 69 c 1,16,-1
 41 152 l 1,17,18
 92 71 92 71 228 71 c 0,19,20
 495 71 495 71 495 348 c 0,21,22
 495 639 495 639 240 639 c 0,0,1
EndSplineSet
EndChar
StartChar: uni0187
Encoding: 391 391 328
Width: 650
Flags: W
LayerCount: 2
Fore
SplineSet
582 126 m 1,0,-1
 582 28 l 1,1,2
 506 -15 506 -15 410 -15 c 0,3,4
 316 -15 316 -15 230 36 c 1,5,6
 146 84 146 84 94 166 c 0,7,8
 40 253 40 253 40 357 c 0,9,10
 40 460 40 460 96 543 c 0,11,12
 151 624 151 624 232 678 c 0,13,14
 311 730 311 730 418 730 c 0,15,16
 469 730 469 730 518 712 c 1,17,18
 515 728 515 728 515 755 c 0,19,20
 515 783 515 783 531 814 c 1,21,22
 568 893 568 893 694 893 c 0,23,24
 721 893 721 893 730 892 c 1,25,-1
 730 798 l 1,26,27
 667 813 667 813 650 813 c 0,28,29
 639 813 639 813 625 811 c 1,30,31
 582 799 582 799 582 760 c 2,32,-1
 582 577 l 1,33,34
 509 646 509 646 418 647 c 1,35,36
 305 647 305 647 224 562 c 0,37,38
 143 476 143 476 143 358 c 128,-1,39
 143 240 143 240 221 154 c 0,40,41
 298 68 298 68 418 68 c 0,42,43
 509 68 509 68 582 126 c 1,0,-1
EndSplineSet
EndChar
StartChar: uni0188
Encoding: 392 392 329
Width: 550
Flags: W
LayerCount: 2
Fore
SplineSet
409 104 m 1,0,-1
 479 98 l 1,1,2
 453 -12 453 -12 327 -12 c 128,-1,3
 201 -12 201 -12 126 66 c 1,4,5
 50 142 50 142 50 270 c 0,6,7
 50 396 50 396 130 464 c 1,8,9
 210 530 210 530 306 530 c 0,10,11
 339 530 339 530 366 524 c 1,12,13
 392 649 392 649 520 649 c 0,14,15
 560 649 560 649 580 638 c 1,16,-1
 580 560 l 1,17,18
 528 578 528 578 495 578 c 0,19,20
 446 578 446 578 436 542 c 0,21,22
 435 540 435 540 432 494 c 1,23,24
 470 462 470 462 479 406 c 1,25,-1
 410 406 l 1,26,27
 395 455 395 455 322 455 c 0,28,29
 248 455 248 455 196 404 c 0,30,31
 143 351 143 351 143 271 c 0,32,33
 143 189 143 189 190 130 c 1,34,35
 236 70 236 70 318 70 c 0,36,37
 399 70 399 70 409 104 c 1,0,-1
EndSplineSet
EndChar
StartChar: uni0189
Encoding: 393 393 330
Width: 718
Flags: W
LayerCount: 2
Fore
SplineSet
547 646 m 0,0,1
 603 602 603 602 636 530 c 0,2,3
 669 456 669 456 669 367 c 0,4,5
 669 200 669 200 559 90 c 0,6,7
 469 0 469 0 307 0 c 2,8,-1
 100 0 l 1,9,-1
 100 336 l 1,10,-1
 10 336 l 1,11,-1
 10 398 l 1,12,-1
 100 398 l 1,13,-1
 100 725 l 1,14,-1
 320 725 l 2,15,16
 447 725 447 725 547 646 c 0,0,1
183 79 m 1,17,-1
 262 79 l 2,18,19
 308 79 308 79 323 80 c 0,20,21
 427 82 427 82 499 149 c 128,-1,22
 571 216 571 216 571 367 c 0,23,24
 571 430 571 430 556 480 c 1,25,26
 540 529 540 529 517 559 c 1,27,28
 496 589 496 589 463 609 c 128,-1,29
 430 629 430 629 400 637 c 1,30,31
 363 645 363 645 320 645 c 2,32,-1
 183 645 l 1,33,-1
 183 398 l 1,34,-1
 378 398 l 1,35,-1
 378 336 l 1,36,-1
 183 336 l 1,37,-1
 183 79 l 1,17,-1
EndSplineSet
EndChar
StartChar: uni018A
Encoding: 394 394 331
Width: 771
Flags: W
LayerCount: 2
Fore
SplineSet
600 646 m 0,0,1
 656 602 656 602 689 530 c 0,2,3
 722 456 722 456 722 367 c 0,4,5
 722 200 722 200 612 90 c 0,6,7
 522 0 522 0 360 0 c 2,8,-1
 153 0 l 1,9,-1
 153 653 l 1,10,11
 72 653 72 653 57 650 c 0,12,13
 42 646 42 646 30 610 c 1,14,15
 28 600 28 600 28 586 c 0,16,17
 28 568 28 568 43 505 c 1,18,-1
 -51 505 l 1,19,20
 -52 514 -52 514 -52 541 c 0,21,22
 -52 667 -52 667 27 704 c 0,23,24
 72 725 72 725 153 725 c 2,25,-1
 373 725 l 2,26,27
 500 725 500 725 600 646 c 0,0,1
246 69 m 1,28,-1
 316 69 l 2,29,30
 359 69 359 69 377 70 c 0,31,32
 481 73 481 73 550 145 c 1,33,34
 619 215 619 215 619 356 c 0,35,36
 619 495 619 495 570 559 c 0,37,38
 532 609 532 609 453 642 c 0,39,40
 424 655 424 655 373 655 c 2,41,-1
 246 655 l 1,42,-1
 246 69 l 1,28,-1
EndSplineSet
EndChar
StartChar: uni018B
Encoding: 395 395 332
Width: 596
Flags: W
LayerCount: 2
Fore
SplineSet
80 328 m 0,0,1
 131 426 131 426 286 426 c 2,2,-1
 425 426 l 1,3,-1
 425 653 l 1,4,-1
 73 653 l 1,5,-1
 73 725 l 1,6,-1
 517 725 l 1,7,-1
 517 5 l 1,8,9
 414 -10 414 -10 305 -10 c 128,-1,10
 196 -10 196 -10 116 58 c 0,11,12
 50 114 50 114 50 224 c 1,13,14
 51 272 51 272 80 328 c 0,0,1
425 354 m 1,15,-1
 285 354 l 2,16,17
 226 354 226 354 185 319 c 1,18,19
 145 283 145 283 145 221 c 2,20,-1
 145 216 l 2,21,22
 145 71 145 71 293 68 c 0,23,24
 303 67 303 67 351 67 c 0,25,26
 388 67 388 67 425 76 c 1,27,-1
 425 354 l 1,15,-1
EndSplineSet
EndChar
StartChar: uni018C
Encoding: 396 396 333
Width: 567
Flags: W
LayerCount: 2
Fore
SplineSet
45 255 m 0,0,1
 45 374 45 374 111 445 c 0,2,3
 175 515 175 515 266 515 c 0,4,5
 356 515 356 515 414 449 c 1,6,-1
 414 668 l 1,7,-1
 87 668 l 1,8,-1
 87 740 l 1,9,-1
 508 740 l 1,10,-1
 508 -3 l 1,11,-1
 414 -3 l 1,12,-1
 414 53 l 1,13,14
 358 -15 358 -15 266 -15 c 256,15,16
 174 -15 174 -15 110 60 c 1,17,18
 45 134 45 134 45 255 c 0,0,1
183 113 m 1,19,20
 216 58 216 58 284 58 c 0,21,22
 398 58 398 58 414 230 c 1,23,-1
 414 279 l 1,24,25
 404 439 404 439 284 441 c 1,26,27
 220 441 220 441 186 389 c 0,28,29
 151 336 151 336 149 251 c 1,30,31
 150 170 150 170 183 113 c 1,19,20
EndSplineSet
EndChar
StartChar: uni018E
Encoding: 398 398 334
Width: 630
Flags: W
LayerCount: 2
Fore
SplineSet
550 720 m 1,0,-1
 550 0 l 1,1,-1
 40 0 l 1,2,-1
 40 78 l 1,3,-1
 455 78 l 1,4,-1
 455 345 l 1,5,-1
 98 345 l 1,6,-1
 98 423 l 1,7,-1
 455 423 l 1,8,-1
 455 642 l 1,9,-1
 51 642 l 1,10,-1
 51 720 l 1,11,-1
 550 720 l 1,0,-1
EndSplineSet
EndChar
StartChar: uni018F
Encoding: 399 399 335
Width: 742
Flags: W
LayerCount: 2
Fore
SplineSet
325 747 m 1,0,-1
 327 747 l 2,1,2
 698 747 698 747 698 367 c 128,-1,3
 698 -13 698 -13 368 -13 c 0,4,5
 61 -13 61 -13 45 360 c 1,6,-1
 45 371 l 1,7,-1
 47 399 l 1,8,-1
 600 399 l 1,9,10
 590 518 590 518 532 582 c 0,11,12
 455 668 455 668 345 668 c 2,13,-1
 344 668 l 2,14,15
 187 668 187 668 69 574 c 1,16,-1
 69 667 l 1,17,18
 206 746 206 746 325 747 c 1,0,-1
600 324 m 1,19,-1
 137 324 l 1,20,21
 148 218 148 218 199 145 c 1,22,23
 249 71 249 71 365 71 c 0,24,25
 480 71 480 71 536 142 c 1,26,27
 589 213 589 213 600 324 c 1,19,-1
EndSplineSet
EndChar
StartChar: uni0190
Encoding: 400 400 336
Width: 660
Flags: W
LayerCount: 2
Fore
SplineSet
146 226 m 2,0,-1
 146 224 l 2,1,2
 146 77 146 77 369 77 c 0,3,4
 536 77 536 77 553 161 c 1,5,-1
 630 144 l 1,6,7
 603 -7 603 -7 365 -7 c 0,8,9
 43 -7 43 -7 43 210 c 0,10,11
 43 332 43 332 188 402 c 1,12,13
 72 461 72 461 72 552 c 0,14,15
 74 735 74 735 356 735 c 0,16,17
 544 735 544 735 589 625 c 1,18,-1
 513 601 l 1,19,20
 488 661 488 661 364 661 c 0,21,22
 296 661 296 661 238 634 c 1,23,24
 179 605 179 605 179 554 c 0,25,26
 179 435 179 435 387 426 c 2,27,-1
 459 423 l 1,28,-1
 459 343 l 1,29,-1
 401 343 l 2,30,31
 146 343 146 343 146 226 c 2,0,-1
EndSplineSet
EndChar
StartChar: uni0191
Encoding: 401 401 337
Width: 625
Flags: W
LayerCount: 2
Fore
SplineSet
199 -3 m 1,0,-1
 200 -3 l 1,1,2
 193 -65 193 -65 182 -91 c 1,3,4
 145 -170 145 -170 -4 -170 c 0,5,6
 -31 -170 -31 -170 -40 -169 c 1,7,-1
 -40 -75 l 1,8,9
 23 -90 23 -90 41 -90 c 0,10,11
 55 -90 55 -90 65 -88 c 1,12,13
 101 -76 101 -76 104 -63 c 1,14,15
 107 -37 107 -37 108 -3 c 1,16,-1
 107 -3 l 1,17,-1
 107 725 l 1,18,-1
 565 725 l 1,19,-1
 565 647 l 1,20,-1
 199 647 l 1,21,-1
 199 425 l 1,22,-1
 518 425 l 1,23,-1
 518 348 l 1,24,-1
 199 348 l 1,25,-1
 199 -3 l 1,0,-1
EndSplineSet
EndChar
StartChar: florin
Encoding: 402 402 338
Width: 440
Flags: W
LayerCount: 2
Fore
SplineSet
422 694 m 1,0,-1
 421 641 l 1,1,2
 409 665 409 665 367 665 c 0,3,4
 277 665 277 665 275 552 c 1,5,-1
 271 493 l 1,6,-1
 411 493 l 1,7,-1
 411 420 l 1,8,-1
 268 420 l 1,9,-1
 245 -5 l 1,10,11
 229 -162 229 -162 100 -162 c 0,12,13
 59 -162 59 -162 14 -117 c 1,14,-1
 14 -58 l 1,15,16
 75 -86 75 -86 90 -88 c 0,17,18
 104 -90 104 -90 109 -88 c 1,19,20
 149 -84 149 -84 153 0 c 2,21,-1
 175 420 l 1,22,-1
 30 420 l 1,23,-1
 30 493 l 1,24,-1
 179 493 l 1,25,-1
 183 557 l 2,26,27
 188 647 188 647 240 695 c 0,28,29
 293 743 293 743 347 743 c 128,-1,30
 401 743 401 743 422 694 c 1,0,-1
EndSplineSet
EndChar
StartChar: uni0193
Encoding: 403 403 339
Width: 730
Flags: W
LayerCount: 2
Fore
SplineSet
569 716 m 1,0,1
 596 828 596 828 744 828 c 0,2,3
 771 828 771 828 780 827 c 1,4,-1
 780 733 l 1,5,6
 717 748 717 748 699 748 c 0,7,8
 685 748 685 748 675 746 c 1,9,10
 639 734 639 734 636 719 c 0,11,12
 634 711 634 711 633 694 c 1,13,14
 645 690 645 690 656 682 c 1,15,-1
 646 589 l 1,16,17
 608 648 608 648 448 648 c 0,18,19
 148 648 148 648 148 363 c 0,20,21
 148 73 148 73 445 73 c 0,22,23
 514 73 514 73 578 99 c 1,24,-1
 578 309 l 1,25,-1
 392 309 l 1,26,-1
 392 382 l 1,27,-1
 671 382 l 1,28,-1
 671 37 l 1,29,-1
 650 28 l 1,30,31
 560 -12 560 -12 446 -12 c 0,32,33
 50 -12 50 -12 50 353 c 1,34,35
 52 728 52 728 448 728 c 0,36,37
 515 728 515 728 569 716 c 1,0,1
EndSplineSet
EndChar
StartChar: uni0195
Encoding: 405 405 340
Width: 885
Flags: W
LayerCount: 2
Fore
SplineSet
296 503 m 0,0,1
 398 503 398 503 454 447 c 1,2,3
 508 390 508 390 508 291 c 2,4,-1
 508 234 l 2,5,6
 508 51 508 51 609 51 c 0,7,8
 732 51 732 51 732 242 c 2,9,-1
 732 444 l 1,10,-1
 825 444 l 1,11,-1
 825 196 l 1,12,13
 824 -15 824 -15 601 -15 c 0,14,15
 410 -15 410 -15 410 232 c 2,16,-1
 410 274 l 2,17,18
 410 330 410 330 390 382 c 0,19,20
 371 431 371 431 302 431 c 0,21,22
 219 431 219 431 189 377 c 1,23,24
 158 325 158 325 158 259 c 2,25,-1
 158 -3 l 1,26,-1
 65 -3 l 1,27,-1
 65 740 l 1,28,-1
 158 740 l 1,29,-1
 158 406 l 1,30,31
 204 503 204 503 296 503 c 0,0,1
EndSplineSet
EndChar
StartChar: uni0196
Encoding: 406 406 341
Width: 300
Flags: W
LayerCount: 2
Fore
SplineSet
153 740 m 1,0,-1
 153 168 l 1,1,2
 154 122 154 122 156 99 c 0,3,4
 158 70 158 70 209 70 c 128,-1,5
 260 70 260 70 295 88 c 1,6,-1
 295 10 l 1,7,8
 275 -1 275 -1 211 -1 c 0,9,10
 60 -1 60 -1 60 166 c 2,11,-1
 60 740 l 1,12,-1
 153 740 l 1,0,-1
EndSplineSet
EndChar
StartChar: uni0197
Encoding: 407 407 342
Width: 289
Flags: W
LayerCount: 2
Fore
SplineSet
10 350 m 1,0,-1
 10 412 l 1,1,-1
 100 412 l 1,2,-1
 100 731 l 1,3,-1
 190 731 l 1,4,-1
 190 412 l 1,5,-1
 279 412 l 1,6,-1
 279 350 l 1,7,-1
 190 350 l 1,8,-1
 190 -6 l 1,9,-1
 100 -6 l 1,10,-1
 100 350 l 1,11,-1
 10 350 l 1,0,-1
EndSplineSet
EndChar
StartChar: uni0198
Encoding: 408 408 343
Width: 661
Flags: W
LayerCount: 2
Fore
SplineSet
176 725 m 1,0,-1
 176 408 l 1,1,-1
 402 645 l 1,2,3
 455 704 455 704 521 704 c 0,4,5
 559 704 559 704 607 668 c 1,6,7
 634 640 634 640 650 628 c 1,8,-1
 602 566 l 1,9,10
 580 600 580 600 563 612 c 1,11,12
 545 634 545 634 527 634 c 0,13,14
 510 634 510 634 490 616 c 1,15,-1
 277 409 l 1,16,-1
 642 0 l 1,17,-1
 522 0 l 1,18,-1
 225 364 l 1,19,-1
 176 314 l 1,20,-1
 176 0 l 1,21,-1
 80 0 l 1,22,-1
 80 725 l 1,23,-1
 176 725 l 1,0,-1
EndSplineSet
EndChar
StartChar: uni0199
Encoding: 409 409 344
Width: 544
Flags: W
LayerCount: 2
Fore
SplineSet
70 -3 m 1,0,-1
 70 586 l 2,1,2
 70 753 70 753 218 753 c 0,3,4
 282 753 282 753 302 742 c 1,5,-1
 302 664 l 1,6,7
 249 682 249 682 217 682 c 0,8,9
 162 682 162 682 159 647 c 0,10,11
 158 644 158 644 158 630 c 1,12,13
 157 622 157 622 157 612 c 2,14,-1
 157 292 l 1,15,-1
 375 500 l 1,16,-1
 494 500 l 1,17,-1
 276 307 l 1,18,-1
 505 -3 l 1,19,-1
 389 -3 l 1,20,-1
 221 258 l 1,21,-1
 157 194 l 1,22,-1
 157 -3 l 1,23,-1
 70 -3 l 1,0,-1
EndSplineSet
EndChar
StartChar: uni019A
Encoding: 410 410 345
Width: 244
Flags: W
LayerCount: 2
Fore
SplineSet
71 740 m 1,0,-1
 164 740 l 1,1,-1
 164 412 l 1,2,-1
 244 412 l 1,3,-1
 244 350 l 1,4,-1
 164 350 l 1,5,-1
 164 -3 l 1,6,-1
 71 -3 l 1,7,-1
 71 350 l 1,8,-1
 0 350 l 1,9,-1
 0 412 l 1,10,-1
 71 412 l 1,11,-1
 71 740 l 1,0,-1
EndSplineSet
EndChar
StartChar: uni019C
Encoding: 412 412 346
Width: 863
Flags: W
LayerCount: 2
Fore
SplineSet
412 97 m 1,0,1
 366 7 366 7 268 7 c 0,2,3
 168 7 168 7 110 65 c 0,4,5
 50 124 50 124 50 208 c 2,6,-1
 50 725 l 1,7,-1
 146 725 l 1,8,-1
 146 208 l 2,9,10
 146 158 146 158 178 123 c 0,11,12
 209 89 209 89 262 89 c 0,13,14
 313 89 313 89 348 121 c 0,15,16
 382 152 382 152 382 191 c 2,17,-1
 382 725 l 1,18,-1
 478 725 l 1,19,-1
 478 208 l 2,20,21
 478 156 478 156 512 123 c 1,22,23
 545 89 545 89 603 89 c 0,24,25
 660 89 660 89 689 121 c 0,26,27
 717 152 717 152 717 191 c 2,28,-1
 717 725 l 1,29,-1
 813 725 l 1,30,-1
 813 -3 l 1,31,-1
 717 -3 l 1,32,-1
 717 69 l 1,33,34
 670 9 670 9 598 7 c 1,35,-1
 595 7 l 2,36,37
 460 7 460 7 412 97 c 1,0,1
EndSplineSet
EndChar
StartChar: uni019D
Encoding: 413 413 347
Width: 770
Flags: W
LayerCount: 2
Fore
SplineSet
190 575 m 1,0,-1
 190 -3 l 1,1,2
 186 -62 186 -62 172 -91 c 0,3,4
 135 -170 135 -170 -4 -170 c 0,5,6
 -31 -170 -31 -170 -40 -169 c 1,7,-1
 -40 -84 l 1,8,9
 8 -96 8 -96 25 -96 c 0,10,11
 44 -96 44 -96 71 -86 c 0,12,13
 101 -76 101 -76 104 -63 c 0,14,15
 108 -46 108 -46 108 34 c 2,16,-1
 108 725 l 1,17,-1
 193 725 l 1,18,-1
 598 160 l 1,19,-1
 598 725 l 1,20,-1
 680 725 l 1,21,-1
 680 0 l 1,22,-1
 601 0 l 1,23,-1
 190 575 l 1,0,-1
EndSplineSet
EndChar
StartChar: uni019E
Encoding: 414 414 348
Width: 538
Flags: W
LayerCount: 2
Fore
SplineSet
406 -170 m 1,0,-1
 406 244 l 2,1,2
 406 435 406 435 289 435 c 0,3,4
 133 435 133 435 133 232 c 2,5,-1
 133 -3 l 1,6,-1
 50 -3 l 1,7,-1
 50 521 l 1,8,-1
 133 521 l 1,9,-1
 133 416 l 1,10,11
 171 511 171 511 296 511 c 0,12,13
 489 510 489 510 489 264 c 2,14,-1
 489 -170 l 1,15,-1
 406 -170 l 1,0,-1
EndSplineSet
EndChar
StartChar: uni019F
Encoding: 415 415 349
Width: 753
Flags: W
LayerCount: 2
Fore
SplineSet
82 170 m 0,0,1
 35 256 35 256 35 360 c 0,2,3
 35 463 35 463 82 552 c 0,4,5
 129 639 129 639 207 692 c 0,6,7
 284 745 284 745 377 745 c 128,-1,8
 470 745 470 745 547 695 c 128,-1,9
 624 645 624 645 672 558 c 1,10,11
 719 469 719 469 719 362 c 0,12,13
 719 253 719 253 672 167 c 1,14,15
 622 80 622 80 547 31 c 1,16,17
 471 -20 471 -20 377 -20 c 128,-1,18
 283 -20 283 -20 207 32 c 1,19,20
 129 83 129 83 82 170 c 0,0,1
381 668 m 1,21,-1
 380 668 l 2,22,23
 277 668 277 668 204 578 c 0,24,25
 141 501 141 501 132 394 c 1,26,-1
 622 394 l 1,27,28
 615 507 615 507 550 587 c 0,29,30
 484 667 484 667 381 668 c 1,21,-1
622 326 m 1,31,-1
 132 326 l 1,32,33
 139 220 139 220 202 144 c 0,34,35
 273 58 273 58 375 58 c 0,36,37
 478 58 478 58 550 142 c 0,38,39
 613 215 613 215 622 326 c 1,31,-1
EndSplineSet
EndChar
StartChar: Ohorn
Encoding: 416 416 350
Width: 835
Flags: W
LayerCount: 2
Fore
SplineSet
377 745 m 0,0,1
 531 745 531 745 634 615 c 1,2,3
 661 623 661 623 683 633 c 1,4,-1
 652 698 l 1,5,-1
 764 750 l 1,6,-1
 815 638 l 1,7,-1
 704 587 l 2,8,9
 700 585 700 585 664 570 c 1,10,11
 719 479 719 479 719 365 c 0,12,13
 719 253 719 253 672 167 c 1,14,15
 622 80 622 80 547 31 c 1,16,17
 471 -20 471 -20 377 -20 c 128,-1,18
 283 -20 283 -20 207 32 c 1,19,20
 129 83 129 83 82 170 c 0,21,22
 35 256 35 256 35 360 c 0,23,24
 35 463 35 463 82 552 c 0,25,26
 129 639 129 639 207 692 c 0,27,28
 284 745 284 745 377 745 c 0,0,1
381 668 m 1,29,-1
 380 668 l 2,30,31
 278 668 278 668 210 579 c 0,32,33
 141 489 141 489 141 360 c 0,34,35
 141 230 141 230 207 144 c 0,36,37
 272 58 272 58 375 58 c 0,38,39
 479 58 479 58 546 143 c 1,40,41
 613 225 613 225 613 362 c 0,42,43
 613 497 613 497 549 582 c 0,44,45
 484 667 484 667 381 668 c 1,29,-1
EndSplineSet
EndChar
StartChar: ohorn
Encoding: 417 417 351
Width: 640
Flags: W
LayerCount: 2
Fore
SplineSet
100 63 m 0,0,1
 30 139 30 139 30 249 c 0,2,3
 30 357 30 357 100 436 c 128,-1,4
 170 515 170 515 272 515 c 0,5,6
 373 515 373 515 446 436 c 0,7,8
 454 428 454 428 458 422 c 1,9,-1
 498 437 l 1,10,-1
 467 502 l 1,11,-1
 579 554 l 1,12,-1
 630 442 l 1,13,-1
 519 391 l 1,14,-1
 489 378 l 1,15,16
 520 320 520 320 520 249 c 0,17,18
 520 139 520 139 447 63 c 1,19,20
 374 -15 374 -15 272 -15 c 0,21,22
 171 -15 171 -15 100 63 c 0,0,1
163 381 m 128,-1,24
 122 322 122 322 122 250 c 128,-1,25
 122 178 122 178 163 119 c 128,-1,26
 204 60 204 60 269 60 c 0,27,28
 333 60 333 60 377 119 c 1,29,30
 419 178 419 178 419 250 c 0,31,32
 419 323 419 323 377 381 c 0,33,34
 335 440 335 440 270 440 c 0,35,23
 204 440 204 440 163 381 c 128,-1,24
EndSplineSet
EndChar
StartChar: uni01A4
Encoding: 420 420 352
Width: 720
Flags: W
LayerCount: 2
Fore
SplineSet
672 508 m 2,0,-1
 672 498 l 2,1,2
 672 431 672 431 635 370 c 0,3,4
 585 286 585 286 442 278 c 1,5,6
 380 276 380 276 237 276 c 1,7,-1
 237 -3 l 1,8,-1
 141 -3 l 1,9,-1
 141 653 l 1,10,11
 70 653 70 653 57 650 c 0,12,13
 42 646 42 646 30 610 c 1,14,15
 28 600 28 600 28 586 c 0,16,17
 28 568 28 568 43 505 c 1,18,-1
 -51 505 l 1,19,20
 -52 514 -52 514 -52 541 c 0,21,22
 -52 670 -52 670 27 704 c 0,23,24
 69 723 69 723 108 724 c 2,25,-1
 151 725 l 1,26,-1
 393 725 l 2,27,28
 438 725 438 725 447 724 c 0,29,30
 558 720 558 720 634 636 c 1,31,32
 672 592 672 592 672 508 c 2,0,-1
237 344 m 1,33,-1
 409 344 l 2,34,35
 499 344 499 344 548 411 c 0,36,37
 565 434 565 434 565 499 c 128,-1,38
 565 564 565 564 547 593 c 1,39,40
 510 657 510 657 422 657 c 2,41,-1
 237 657 l 1,42,-1
 237 344 l 1,33,-1
EndSplineSet
EndChar
StartChar: uni01A5
Encoding: 421 421 353
Width: 562
Flags: W
LayerCount: 2
Fore
SplineSet
154 413 m 1,0,-1
 154 352 l 1,1,2
 210 419 210 419 287 420 c 1,3,-1
 290 420 l 2,4,5
 394 420 394 420 459 346 c 0,6,7
 523 273 523 273 523 151 c 0,8,9
 523 31 523 31 458 -40 c 1,10,11
 392 -110 392 -110 290 -110 c 2,12,-1
 287 -110 l 1,13,14
 211 -109 211 -109 154 -44 c 1,15,-1
 154 -265 l 1,16,-1
 60 -265 l 1,17,-1
 60 421 l 2,18,19
 60 588 60 588 216 588 c 0,20,21
 280 588 280 588 300 577 c 1,22,-1
 300 499 l 1,23,24
 248 517 248 517 215 517 c 0,25,26
 160 517 160 517 157 482 c 0,27,28
 156 460 156 460 154 413 c 1,0,-1
386 292 m 128,-1,30
 352 347 352 347 284 347 c 0,31,32
 170 347 170 347 154 175 c 1,33,-1
 154 126 l 1,34,35
 164 -34 164 -34 284 -36 c 1,36,37
 348 -36 348 -36 383 17 c 1,38,39
 419 68 419 68 421 154 c 1,40,29
 420 237 420 237 386 292 c 128,-1,30
EndSplineSet
EndChar
StartChar: uni01A6
Encoding: 422 422 354
Width: 700
Flags: W
LayerCount: 2
Fore
SplineSet
380 639 m 0,0,1
 595 628 595 628 595 443 c 128,-1,2
 595 258 595 258 375 258 c 1,3,-1
 680 -69 l 1,4,-1
 546 -69 l 1,5,-1
 282 252 l 1,6,7
 263 251 263 251 152 251 c 1,8,-1
 152 -1 l 1,9,-1
 60 -1 l 1,10,-1
 60 731 l 1,11,-1
 150 731 l 1,12,-1
 150 640 l 1,13,-1
 326 640 l 2,14,15
 371 640 371 640 380 639 c 0,0,1
152 327 m 1,16,-1
 342 327 l 2,17,18
 491 327 491 327 491 444 c 0,19,20
 491 564 491 564 355 564 c 2,21,-1
 152 564 l 1,22,-1
 152 327 l 1,16,-1
EndSplineSet
EndChar
StartChar: uni01A7
Encoding: 423 423 355
Width: 625
Flags: W
LayerCount: 2
Fore
SplineSet
144 593 m 1,0,-1
 64 647 l 1,1,2
 116 687 116 687 168 710 c 1,3,4
 215 732 215 732 302 732 c 2,5,-1
 306 732 l 2,6,7
 394 732 394 732 466 687 c 0,8,9
 501 665 501 665 524 625 c 0,10,11
 546 585 546 585 547 541 c 1,12,-1
 547 537 l 2,13,14
 547 418 547 418 408 366 c 1,15,16
 150 288 150 288 150 182 c 0,17,18
 150 135 150 135 196 99 c 1,19,20
 239 62 239 62 323 62 c 2,21,-1
 330 62 l 2,22,23
 442 62 442 62 505 128 c 1,24,-1
 576 76 l 1,25,26
 505 19 505 19 454 3 c 1,27,28
 405 -14 405 -14 304 -14 c 0,29,30
 205 -14 205 -14 135 32 c 0,31,32
 106 50 106 50 78 92 c 1,33,34
 50 132 50 132 50 189 c 0,35,36
 50 297 50 297 141 357 c 1,37,38
 173 380 173 380 288 425 c 1,39,40
 452 472 452 472 452 550 c 0,41,42
 452 599 452 599 406 627 c 0,43,44
 359 656 359 656 296 656 c 0,45,46
 184 656 184 656 144 593 c 1,0,-1
EndSplineSet
EndChar
StartChar: uni01A8
Encoding: 424 424 356
Width: 469
Flags: W
LayerCount: 2
Fore
SplineSet
114 400 m 1,0,-1
 54 419 l 1,1,2
 94 515 94 515 233 515 c 0,3,4
 285 515 285 515 351 482 c 0,5,6
 381 466 381 466 404 436 c 1,7,8
 425 406 425 406 425 370 c 0,9,10
 425 332 425 332 403 301 c 0,11,12
 380 268 380 268 352 253 c 0,13,14
 327 240 327 240 254 216 c 0,15,16
 127 176 127 176 127 130 c 0,17,18
 127 62 127 62 231 62 c 0,19,20
 336 62 336 62 370 101 c 1,21,-1
 440 94 l 1,22,23
 400 -15 400 -15 238 -15 c 0,24,25
 157 -15 157 -15 99 22 c 1,26,27
 40 63 40 63 40 134 c 0,28,29
 40 219 40 219 120 266 c 1,30,31
 160 288 160 288 234 308 c 256,32,33
 308 328 308 328 322 345 c 0,34,35
 335 361 335 361 335 377 c 0,36,37
 335 391 335 391 311 415 c 128,-1,38
 287 439 287 439 236 440 c 1,39,40
 144 440 144 440 114 400 c 1,0,-1
EndSplineSet
EndChar
StartChar: uni01A9
Encoding: 425 425 357
Width: 665
Flags: W
LayerCount: 2
Fore
SplineSet
590 652 m 1,0,-1
 160 652 l 1,1,-1
 449 371 l 1,2,-1
 159 78 l 1,3,-1
 625 78 l 1,4,-1
 625 2 l 1,5,-1
 50 2 l 1,6,-1
 50 84 l 1,7,-1
 333 370 l 1,8,-1
 50 647 l 1,9,-1
 50 730 l 1,10,-1
 590 730 l 1,11,-1
 590 652 l 1,0,-1
EndSplineSet
EndChar
StartChar: uni01AC
Encoding: 428 428 358
Width: 657
Flags: W
LayerCount: 2
Fore
SplineSet
281 647 m 1,0,-1
 141 647 l 2,1,2
 37 647 37 647 30 610 c 1,3,-1
 30 583 l 2,4,5
 30 556 30 556 43 505 c 1,6,-1
 -51 505 l 1,7,8
 -52 514 -52 514 -52 541 c 0,9,10
 -52 668 -52 668 27 704 c 0,11,12
 70 724 70 724 108 725 c 1,13,-1
 617 725 l 1,14,-1
 617 647 l 1,15,-1
 377 647 l 1,16,-1
 377 -3 l 1,17,-1
 281 -3 l 1,18,-1
 281 647 l 1,0,-1
EndSplineSet
EndChar
StartChar: uni01AD
Encoding: 429 429 359
Width: 377
Flags: W
LayerCount: 2
Fore
SplineSet
348 80 m 1,0,-1
 354 44 l 1,1,2
 337 -3 337 -3 272 -15 c 0,3,4
 255 -19 255 -19 232 -19 c 0,5,6
 119 -19 119 -19 119 134 c 2,7,-1
 119 424 l 1,8,-1
 20 424 l 1,9,-1
 20 497 l 1,10,-1
 119 497 l 1,11,-1
 119 612 l 1,12,-1
 120 613 l 1,13,14
 131 753 131 753 260 753 c 2,15,-1
 268 753 l 1,16,17
 337 751 337 751 352 742 c 1,18,-1
 352 664 l 1,19,20
 300 682 300 682 267 682 c 0,21,22
 215 682 215 682 212 647 c 0,23,24
 211 644 211 644 211 630 c 1,25,26
 210 622 210 622 210 612 c 2,27,-1
 210 497 l 1,28,-1
 334 497 l 1,29,-1
 334 424 l 1,30,-1
 210 424 l 1,31,-1
 210 148 l 1,32,33
 226 75 226 75 268 54 c 1,34,35
 322 54 322 54 348 80 c 1,0,-1
EndSplineSet
EndChar
StartChar: uni01AE
Encoding: 430 430 360
Width: 625
Flags: W
LayerCount: 2
Fore
SplineSet
361 647 m 1,0,-1
 361 -3 l 1,1,2
 362 -50 362 -50 364 -72 c 0,3,4
 366 -101 366 -101 417 -101 c 128,-1,5
 468 -101 468 -101 503 -83 c 1,6,-1
 503 -161 l 1,7,8
 483 -172 483 -172 419 -172 c 0,9,10
 261 -172 261 -172 263 -5 c 1,11,-1
 265 647 l 1,12,-1
 25 647 l 1,13,-1
 25 725 l 1,14,-1
 600 725 l 1,15,-1
 600 647 l 1,16,-1
 361 647 l 1,0,-1
EndSplineSet
EndChar
StartChar: Uhorn
Encoding: 431 431 361
Width: 875
Flags: W
LayerCount: 2
Fore
SplineSet
629 91 m 0,0,1
 565 -15 565 -15 374 -15 c 2,2,-1
 363 -15 l 2,3,4
 180 -15 180 -15 112 87 c 1,5,6
 80 137 80 137 80 201 c 2,7,-1
 80 730 l 1,8,-1
 176 730 l 1,9,-1
 176 200 l 2,10,11
 176 149 176 149 191 131 c 0,12,13
 250 60 250 60 376 60 c 128,-1,14
 502 60 502 60 547 128 c 0,15,16
 566 156 566 156 566 203 c 2,17,-1
 566 730 l 1,18,-1
 661 730 l 1,19,-1
 661 612 l 1,20,21
 692 620 692 620 723 633 c 1,22,-1
 692 698 l 1,23,-1
 804 750 l 1,24,-1
 855 638 l 1,25,-1
 744 587 l 2,26,27
 696 565 696 565 661 559 c 1,28,-1
 661 199 l 2,29,30
 661 144 661 144 629 91 c 0,0,1
EndSplineSet
EndChar
StartChar: uhorn
Encoding: 432 432 362
Width: 703
Flags: W
LayerCount: 2
Fore
SplineSet
143 499 m 1,0,-1
 143 252 l 2,1,2
 143 51 143 51 249 51 c 0,3,4
 395 51 395 51 395 264 c 2,5,-1
 395 499 l 1,6,-1
 488 499 l 1,7,-1
 488 397 l 1,8,9
 522 405 522 405 561 421 c 1,10,-1
 530 486 l 1,11,-1
 642 538 l 1,12,-1
 693 426 l 1,13,-1
 582 375 l 1,14,15
 530 350 530 350 488 345 c 1,16,-1
 488 -3 l 1,17,-1
 395 -3 l 1,18,-1
 395 80 l 1,19,20
 357 -15 357 -15 241 -15 c 1,21,22
 50 -13 50 -13 50 232 c 2,23,-1
 50 499 l 1,24,-1
 143 499 l 1,0,-1
EndSplineSet
EndChar
StartChar: uni01B4
Encoding: 436 436 363
Width: 640
Flags: W
LayerCount: 2
Fore
SplineSet
250 1 m 2,0,-1
 250 6 l 1,1,2
 120 272 120 272 20 498 c 1,3,-1
 125 498 l 1,4,-1
 287 89 l 1,5,-1
 433 498 l 1,6,7
 469 594 469 594 549 594 c 1,8,9
 549 594 549 594 571 592 c 1,10,11
 654 578 654 578 706 529 c 1,12,-1
 682 463 l 1,13,14
 618 518 618 518 579 518 c 0,15,16
 556 518 556 518 545 497 c 1,17,18
 300 -73 300 -73 290 -94 c 1,19,20
 239 -190 239 -190 136 -190 c 1,21,22
 87 -187 87 -187 55 -171 c 1,23,-1
 68 -111 l 1,24,25
 96 -123 96 -123 108 -123 c 0,26,27
 187 -123 187 -123 225 -55 c 0,28,29
 250 -12 250 -12 250 1 c 2,0,-1
EndSplineSet
EndChar
StartChar: uni01B5
Encoding: 437 437 364
Width: 615
Flags: W
LayerCount: 2
Fore
SplineSet
564 730 m 1,0,-1
 564 647 l 1,1,-1
 393 406 l 1,2,-1
 533 406 l 1,3,-1
 533 344 l 1,4,-1
 349 344 l 1,5,-1
 164 84 l 1,6,-1
 576 84 l 1,7,-1
 576 2 l 1,8,-1
 50 2 l 1,9,-1
 50 84 l 1,10,-1
 234 344 l 1,11,-1
 74 344 l 1,12,-1
 74 406 l 1,13,-1
 278 406 l 1,14,-1
 449 647 l 1,15,-1
 61 647 l 1,16,-1
 61 730 l 1,17,-1
 564 730 l 1,0,-1
EndSplineSet
EndChar
StartChar: uni01B6
Encoding: 438 438 365
Width: 538
Flags: W
LayerCount: 2
Fore
SplineSet
369 417 m 1,0,-1
 68 417 l 1,1,-1
 68 500 l 1,2,-1
 479 500 l 1,3,-1
 479 430 l 1,4,-1
 354 290 l 1,5,-1
 477 290 l 1,6,-1
 477 228 l 1,7,-1
 299 228 l 1,8,-1
 169 83 l 1,9,-1
 479 83 l 1,10,-1
 479 0 l 1,11,-1
 60 0 l 1,12,-1
 60 71 l 1,13,-1
 200 228 l 1,14,-1
 74 228 l 1,15,-1
 74 290 l 1,16,-1
 256 290 l 1,17,-1
 369 417 l 1,0,-1
EndSplineSet
EndChar
StartChar: uni01B7
Encoding: 439 439 366
Width: 644
Flags: W
LayerCount: 2
Fore
SplineSet
334 303 m 0,0,1
 296 303 296 303 235 292 c 1,2,-1
 176 353 l 1,3,-1
 436 652 l 1,4,-1
 40 652 l 1,5,-1
 40 730 l 1,6,-1
 554 730 l 1,7,-1
 554 647 l 1,8,-1
 318 382 l 1,9,10
 487 377 487 377 554 274 c 1,11,12
 604 212 604 212 604 127 c 0,13,14
 604 41 604 41 551 -30 c 1,15,16
 437 -170 437 -170 228 -170 c 0,17,18
 113 -170 113 -170 42 -108 c 1,19,-1
 42 -22 l 1,20,21
 118 -86 118 -86 207 -86 c 0,22,23
 360 -86 360 -86 423 -29 c 1,24,25
 499 35 499 35 499 112 c 0,26,27
 499 303 499 303 334 303 c 0,0,1
EndSplineSet
EndChar
StartChar: uni01B8
Encoding: 440 440 367
Width: 644
Flags: W
LayerCount: 2
Fore
SplineSet
310 303 m 0,0,1
 145 303 145 303 145 112 c 0,2,3
 145 35 145 35 221 -29 c 1,4,5
 282 -86 282 -86 437 -86 c 0,6,7
 526 -86 526 -86 602 -22 c 1,8,-1
 602 -108 l 1,9,10
 531 -170 531 -170 416 -170 c 0,11,12
 207 -170 207 -170 93 -30 c 1,13,14
 40 41 40 41 40 127 c 0,15,16
 40 212 40 212 90 274 c 1,17,18
 157 377 157 377 326 382 c 1,19,-1
 90 647 l 1,20,-1
 90 730 l 1,21,-1
 604 730 l 1,22,-1
 604 652 l 1,23,-1
 208 652 l 1,24,-1
 468 353 l 1,25,-1
 409 292 l 1,26,27
 346 303 346 303 310 303 c 0,0,1
EndSplineSet
EndChar
StartChar: uni01BB
Encoding: 443 443 368
Width: 550
Flags: W
LayerCount: 2
Fore
SplineSet
280 637 m 0,0,1
 162 637 162 637 124 478 c 1,2,-1
 64 518 l 1,3,4
 116 720 116 720 262 720 c 2,5,-1
 280 720 l 2,6,7
 413 720 413 720 466 613 c 0,8,9
 485 576 485 576 485 538 c 0,10,11
 485 459 485 459 450 406 c 1,12,-1
 520 406 l 1,13,-1
 520 344 l 1,14,-1
 387 344 l 1,15,16
 178 182 178 182 163 86 c 1,17,-1
 490 86 l 1,18,-1
 490 0 l 1,19,-1
 66 0 l 1,20,-1
 66 82 l 1,21,22
 96 219 96 219 257 344 c 1,23,-1
 150 344 l 1,24,-1
 150 406 l 1,25,-1
 336 406 l 1,26,27
 397 466 397 466 397 526 c 0,28,29
 397 587 397 587 363 612 c 128,-1,30
 329 637 329 637 280 637 c 0,0,1
EndSplineSet
EndChar
StartChar: uni01C0
Encoding: 448 448 369
Width: 235
Flags: W
LayerCount: 2
Fore
SplineSet
155 0 m 1,0,-1
 80 0 l 1,1,-1
 80 800 l 1,2,-1
 155 800 l 1,3,-1
 155 0 l 1,0,-1
EndSplineSet
EndChar
StartChar: uni01C1
Encoding: 449 449 370
Width: 395
Flags: W
LayerCount: 2
Fore
SplineSet
155 0 m 1,0,-1
 80 0 l 1,1,-1
 80 800 l 1,2,-1
 155 800 l 1,3,-1
 155 0 l 1,0,-1
315 0 m 1,4,-1
 240 0 l 1,5,-1
 240 800 l 1,6,-1
 315 800 l 1,7,-1
 315 0 l 1,4,-1
EndSplineSet
EndChar
StartChar: uni01C2
Encoding: 450 450 371
Width: 235
Flags: W
LayerCount: 2
Fore
SplineSet
155 368 m 1,0,-1
 235 368 l 1,1,-1
 235 306 l 1,2,-1
 155 306 l 1,3,-1
 155 0 l 1,4,-1
 80 0 l 1,5,-1
 80 306 l 1,6,-1
 0 306 l 1,7,-1
 0 368 l 1,8,-1
 80 368 l 1,9,-1
 80 444 l 1,10,-1
 0 444 l 1,11,-1
 0 506 l 1,12,-1
 80 506 l 1,13,-1
 80 800 l 1,14,-1
 155 800 l 1,15,-1
 155 506 l 1,16,-1
 235 506 l 1,17,-1
 235 444 l 1,18,-1
 155 444 l 1,19,-1
 155 368 l 1,0,-1
EndSplineSet
EndChar
StartChar: uni01C3
Encoding: 451 451 372
Width: 362
Flags: W
LayerCount: 2
Fore
SplineSet
150 204 m 1,0,-1
 135 731 l 1,1,-1
 228 731 l 1,2,-1
 212 204 l 1,3,-1
 150 204 l 1,0,-1
237 110 m 1,4,-1
 237 -3 l 1,5,-1
 125 -3 l 1,6,-1
 125 110 l 1,7,-1
 237 110 l 1,4,-1
EndSplineSet
EndChar
StartChar: uni01C4
Encoding: 452 452 373
Width: 1213
Flags: W
LayerCount: 2
Fore
SplineSet
749 960 m 1,0,-1
 823 960 l 1,1,-1
 901 867 l 1,2,-1
 951 867 l 1,3,-1
 1031 960 l 1,4,-1
 1103 960 l 1,5,-1
 975 789 l 1,6,-1
 877 789 l 1,7,-1
 749 960 l 1,0,-1
1184 647 m 1,8,-1
 779 78 l 1,9,-1
 1196 78 l 1,10,-1
 1196 2 l 1,11,-1
 670 2 l 1,12,-1
 670 84 l 1,13,-1
 1074 652 l 1,14,-1
 681 652 l 1,15,-1
 681 730 l 1,16,-1
 1184 730 l 1,17,-1
 1184 647 l 1,8,-1
587 530 m 0,18,19
 620 456 620 456 620 379 c 0,20,21
 620 0 620 0 286 0 c 2,22,-1
 60 0 l 1,23,-1
 60 725 l 1,24,-1
 299 725 l 2,25,26
 498 725 498 725 587 530 c 0,18,19
153 83 m 1,27,-1
 211 83 l 2,28,29
 288 83 288 83 303 84 c 0,30,31
 403 85 403 85 461 151 c 0,32,33
 517 216 517 216 517 367 c 0,34,35
 517 592 517 592 379 631 c 0,36,37
 347 640 347 640 299 640 c 2,38,-1
 153 640 l 1,39,-1
 153 83 l 1,27,-1
EndSplineSet
EndChar
StartChar: uni01C5
Encoding: 453 453 374
Width: 1170
Flags: W
LayerCount: 2
Fore
SplineSet
751 750 m 1,0,-1
 825 750 l 1,1,-1
 903 657 l 1,2,-1
 953 657 l 1,3,-1
 1033 750 l 1,4,-1
 1105 750 l 1,5,-1
 977 579 l 1,6,-1
 879 579 l 1,7,-1
 751 750 l 1,0,-1
587 530 m 0,8,9
 620 456 620 456 620 379 c 0,10,11
 620 0 620 0 286 0 c 2,12,-1
 60 0 l 1,13,-1
 60 725 l 1,14,-1
 299 725 l 2,15,16
 498 725 498 725 587 530 c 0,8,9
153 83 m 1,17,-1
 211 83 l 2,18,19
 288 83 288 83 303 84 c 0,20,21
 403 85 403 85 461 151 c 0,22,23
 517 216 517 216 517 367 c 0,24,25
 517 592 517 592 379 631 c 0,26,27
 347 640 347 640 299 640 c 2,28,-1
 153 640 l 1,29,-1
 153 83 l 1,17,-1
1129 464 m 1,30,-1
 820 73 l 1,31,-1
 1129 73 l 1,32,-1
 1129 0 l 1,33,-1
 711 0 l 1,34,-1
 711 71 l 1,35,-1
 1019 461 l 1,36,-1
 719 461 l 1,37,-1
 719 534 l 1,38,-1
 1129 534 l 1,39,-1
 1129 464 l 1,30,-1
EndSplineSet
EndChar
StartChar: uni01C6
Encoding: 454 454 375
Width: 1047
Flags: W
LayerCount: 2
Fore
SplineSet
40 270 m 0,0,1
 40 394 40 394 99 465 c 0,2,3
 157 535 157 535 253 535 c 0,4,5
 332 535 332 535 396 459 c 1,6,-1
 396 740 l 1,7,-1
 485 740 l 1,8,-1
 485 -3 l 1,9,-1
 396 -3 l 1,10,-1
 396 65 l 1,11,12
 349 -15 349 -15 253 -15 c 128,-1,13
 157 -15 157 -15 98 65 c 0,14,15
 40 144 40 144 40 270 c 0,0,1
605 740 m 1,16,-1
 679 740 l 1,17,-1
 757 647 l 1,18,-1
 807 647 l 1,19,-1
 887 740 l 1,20,-1
 959 740 l 1,21,-1
 831 569 l 1,22,-1
 733 569 l 1,23,-1
 605 740 l 1,16,-1
967 464 m 1,24,-1
 658 73 l 1,25,-1
 967 73 l 1,26,-1
 967 0 l 1,27,-1
 549 0 l 1,28,-1
 549 71 l 1,29,-1
 857 461 l 1,30,-1
 557 461 l 1,31,-1
 557 534 l 1,32,-1
 967 534 l 1,33,-1
 967 464 l 1,24,-1
266 445 m 1,34,35
 136 445 136 445 132 261 c 1,36,37
 133 178 133 178 166 127 c 0,38,39
 198 76 198 76 266 76 c 0,40,41
 383 76 383 76 396 230 c 1,42,-1
 396 299 l 1,43,44
 388 444 388 444 266 445 c 1,34,35
EndSplineSet
EndChar
StartChar: uni01C7
Encoding: 455 455 376
Width: 940
Flags: W
LayerCount: 2
Fore
SplineSet
883 726 m 1,0,-1
 883 24 l 2,1,2
 883 -118 883 -118 829 -180 c 1,3,4
 774 -240 774 -240 588 -240 c 1,5,-1
 588 -167 l 1,6,7
 698 -167 698 -167 745 -137 c 1,8,9
 790 -107 790 -107 790 24 c 2,10,-1
 790 726 l 1,11,-1
 883 726 l 1,0,-1
157 74 m 1,12,-1
 549 74 l 1,13,-1
 549 0 l 1,14,-1
 60 0 l 1,15,-1
 60 725 l 1,16,-1
 157 725 l 1,17,-1
 157 74 l 1,12,-1
EndSplineSet
EndChar
StartChar: uni01C8
Encoding: 456 456 377
Width: 800
Flags: W
LayerCount: 2
Fore
SplineSet
157 74 m 1,0,-1
 549 74 l 1,1,-1
 549 0 l 1,2,-1
 60 0 l 1,3,-1
 60 725 l 1,4,-1
 157 725 l 1,5,-1
 157 74 l 1,0,-1
778 699 m 1,6,-1
 778 601 l 1,7,-1
 676 601 l 1,8,-1
 676 699 l 1,9,-1
 778 699 l 1,6,-1
773 522 m 1,10,-1
 773 -48 l 2,11,12
 773 -240 773 -240 570 -240 c 0,13,14
 546 -240 546 -240 539 -239 c 1,15,-1
 528 -173 l 1,16,17
 680 -173 680 -173 680 -72 c 2,18,-1
 680 522 l 1,19,-1
 773 522 l 1,10,-1
EndSplineSet
EndChar
StartChar: uni01C9
Encoding: 457 457 378
Width: 463
Flags: W
LayerCount: 2
Fore
SplineSet
84 740 m 1,0,-1
 176 740 l 1,1,-1
 176 -3 l 1,2,-1
 84 -3 l 1,3,-1
 84 740 l 1,0,-1
441 699 m 1,4,-1
 441 601 l 1,5,-1
 339 601 l 1,6,-1
 339 699 l 1,7,-1
 441 699 l 1,4,-1
436 522 m 1,8,-1
 436 -48 l 2,9,10
 436 -240 436 -240 233 -240 c 0,11,12
 209 -240 209 -240 202 -239 c 1,13,-1
 191 -173 l 1,14,15
 343 -173 343 -173 343 -72 c 2,16,-1
 343 522 l 1,17,-1
 436 522 l 1,8,-1
EndSplineSet
EndChar
StartChar: uni01CA
Encoding: 458 458 379
Width: 1090
Flags: W
LayerCount: 2
Fore
SplineSet
1003 726 m 1,0,-1
 1003 24 l 2,1,2
 1003 -118 1003 -118 949 -180 c 1,3,4
 894 -240 894 -240 708 -240 c 1,5,-1
 708 -167 l 1,6,7
 818 -167 818 -167 865 -137 c 1,8,9
 910 -107 910 -107 910 24 c 2,10,-1
 910 726 l 1,11,-1
 1003 726 l 1,0,-1
710 0 m 1,12,-1
 618 0 l 1,13,-1
 152 575 l 1,14,-1
 152 -3 l 1,15,-1
 60 -3 l 1,16,-1
 60 725 l 1,17,-1
 145 725 l 1,18,-1
 615 146 l 1,19,-1
 615 725 l 1,20,-1
 710 725 l 1,21,-1
 710 0 l 1,12,-1
EndSplineSet
EndChar
StartChar: uni01CB
Encoding: 459 459 380
Width: 990
Flags: W
LayerCount: 2
Fore
SplineSet
710 0 m 1,0,-1
 618 0 l 1,1,-1
 152 575 l 1,2,-1
 152 -3 l 1,3,-1
 60 -3 l 1,4,-1
 60 725 l 1,5,-1
 145 725 l 1,6,-1
 615 146 l 1,7,-1
 615 725 l 1,8,-1
 710 725 l 1,9,-1
 710 0 l 1,0,-1
970 699 m 1,10,-1
 970 601 l 1,11,-1
 868 601 l 1,12,-1
 868 699 l 1,13,-1
 970 699 l 1,10,-1
965 522 m 1,14,-1
 965 -48 l 2,15,16
 965 -240 965 -240 762 -240 c 0,17,18
 738 -240 738 -240 731 -239 c 1,19,-1
 720 -173 l 1,20,21
 872 -173 872 -173 872 -72 c 2,22,-1
 872 522 l 1,23,-1
 965 522 l 1,14,-1
EndSplineSet
EndChar
StartChar: uni01CC
Encoding: 460 460 381
Width: 800
Flags: W
LayerCount: 2
Fore
SplineSet
778 699 m 1,0,-1
 778 601 l 1,1,-1
 676 601 l 1,2,-1
 676 699 l 1,3,-1
 778 699 l 1,0,-1
406 -3 m 1,4,-1
 406 319 l 2,5,6
 406 453 406 453 299 453 c 0,7,8
 143 453 143 453 143 255 c 2,9,-1
 143 -3 l 1,10,-1
 50 -3 l 1,11,-1
 50 536 l 1,12,-1
 143 536 l 1,13,-1
 143 413 l 1,14,15
 190 538 190 538 301 538 c 1,16,17
 499 536 499 536 499 345 c 2,18,-1
 499 -3 l 1,19,-1
 406 -3 l 1,4,-1
773 522 m 1,20,-1
 773 -48 l 2,21,22
 773 -240 773 -240 570 -240 c 0,23,24
 546 -240 546 -240 539 -239 c 1,25,-1
 528 -173 l 1,26,27
 680 -173 680 -173 680 -72 c 2,28,-1
 680 522 l 1,29,-1
 773 522 l 1,20,-1
EndSplineSet
EndChar
StartChar: uni01CD
Encoding: 461 461 382
Width: 735
Flags: W
LayerCount: 2
Fore
SplineSet
190 960 m 1,0,-1
 264 960 l 1,1,-1
 342 867 l 1,2,-1
 392 867 l 1,3,-1
 472 960 l 1,4,-1
 544 960 l 1,5,-1
 416 789 l 1,6,-1
 318 789 l 1,7,-1
 190 960 l 1,0,-1
584 -3 m 1,8,-1
 516 188 l 1,9,-1
 216 188 l 1,10,-1
 148 -3 l 1,11,-1
 40 -3 l 1,12,-1
 328 725 l 1,13,-1
 418 725 l 1,14,-1
 695 -3 l 1,15,-1
 584 -3 l 1,8,-1
240 276 m 1,16,-1
 489 276 l 1,17,-1
 376 625 l 1,18,-1
 240 276 l 1,16,-1
EndSplineSet
EndChar
StartChar: uni01CF
Encoding: 463 463 384
Width: 331
Flags: W
LayerCount: 2
Fore
SplineSet
-5 960 m 1,0,-1
 69 960 l 1,1,-1
 147 867 l 1,2,-1
 197 867 l 1,3,-1
 277 960 l 1,4,-1
 349 960 l 1,5,-1
 221 789 l 1,6,-1
 123 789 l 1,7,-1
 -5 960 l 1,0,-1
125 -6 m 1,8,-1
 125 731 l 1,9,-1
 215 731 l 1,10,-1
 215 -6 l 1,11,-1
 125 -6 l 1,8,-1
EndSplineSet
EndChar
StartChar: uni01D0
Encoding: 464 464 385
Width: 290
Flags: W
LayerCount: 2
Fore
SplineSet
-28 750 m 1,0,-1
 46 750 l 1,1,-1
 124 657 l 1,2,-1
 174 657 l 1,3,-1
 254 750 l 1,4,-1
 326 750 l 1,5,-1
 198 579 l 1,6,-1
 100 579 l 1,7,-1
 -28 750 l 1,0,-1
187 521 m 1,8,-1
 187 -3 l 1,9,-1
 104 -3 l 1,10,-1
 104 521 l 1,11,-1
 187 521 l 1,8,-1
EndSplineSet
EndChar
StartChar: uni01D3
Encoding: 467 467 388
Width: 740
Flags: W
LayerCount: 2
Fore
SplineSet
196 950 m 1,0,-1
 270 950 l 1,1,-1
 348 857 l 1,2,-1
 398 857 l 1,3,-1
 478 950 l 1,4,-1
 550 950 l 1,5,-1
 422 779 l 1,6,-1
 324 779 l 1,7,-1
 196 950 l 1,0,-1
623 91 m 0,8,9
 559 -15 559 -15 374 -15 c 2,10,-1
 363 -15 l 2,11,12
 184 -15 184 -15 117 87 c 0,13,14
 85 137 85 137 85 201 c 2,15,-1
 85 730 l 1,16,-1
 181 730 l 1,17,-1
 181 200 l 2,18,19
 181 149 181 149 196 131 c 0,20,21
 255 60 255 60 376 60 c 0,22,23
 496 60 496 60 541 128 c 0,24,25
 560 156 560 156 560 203 c 2,26,-1
 560 730 l 1,27,-1
 655 730 l 1,28,-1
 655 199 l 2,29,30
 655 144 655 144 623 91 c 0,8,9
EndSplineSet
EndChar
